<svg width="40" height="34" viewBox="0 0 40 34" fill="none" xmlns="http://www.w3.org/2000/svg">
<g clip-path="url(#clip0_1_534)">
<path fill-rule="evenodd" clip-rule="evenodd" d="M0.400024 3.00002C0.400024 2.25741 0.695023 1.54522 1.22013 1.02012C1.74523 0.495012 2.45742 0.200012 3.20002 0.200012H36.8C37.5426 0.200012 38.2548 0.495012 38.7799 1.02012C39.305 1.54522 39.6 2.25741 39.6 3.00002C39.6 3.74262 39.305 4.45481 38.7799 4.97992C38.2548 5.50502 37.5426 5.80002 36.8 5.80002H3.20002C2.45742 5.80002 1.74523 5.50502 1.22013 4.97992C0.695023 4.45481 0.400024 3.74262 0.400024 3.00002ZM0.400024 17C0.400024 16.2574 0.695023 15.5452 1.22013 15.0201C1.74523 14.495 2.45742 14.2 3.20002 14.2H36.8C37.5426 14.2 38.2548 14.495 38.7799 15.0201C39.305 15.5452 39.6 16.2574 39.6 17C39.6 17.7426 39.305 18.4548 38.7799 18.9799C38.2548 19.505 37.5426 19.8 36.8 19.8H3.20002C2.45742 19.8 1.74523 19.505 1.22013 18.9799C0.695023 18.4548 0.400024 17.7426 0.400024 17ZM17.2 31C17.2 30.2574 17.495 29.5452 18.0201 29.0201C18.5452 28.495 19.2574 28.2 20 28.2H36.8C37.5426 28.2 38.2548 28.495 38.7799 29.0201C39.305 29.5452 39.6 30.2574 39.6 31C39.6 31.7426 39.305 32.4548 38.7799 32.9799C38.2548 33.505 37.5426 33.8 36.8 33.8H20C19.2574 33.8 18.5452 33.505 18.0201 32.9799C17.495 32.4548 17.2 31.7426 17.2 31Z" fill="#0064DC"/>
</g>
<defs>
<clipPath id="clip0_1_534">
<rect width="40" height="34" fill="white"/>
</clipPath>
</defs>
</svg>
