<svg width="24" height="24" viewBox="0 0 24 24" fill="none" xmlns="http://www.w3.org/2000/svg">
<g id="folder-arrow-down/outline">
<path id="Vector" d="M9 13.5L12 16.5M12 16.5L15 13.5M12 16.5V10.5M13.06 6.31L10.94 4.19C10.8007 4.05055 10.6353 3.93992 10.4533 3.86442C10.2712 3.78892 10.0761 3.75004 9.879 3.75H4.5C3.90326 3.75 3.33097 3.98705 2.90901 4.40901C2.48705 4.83097 2.25 5.40326 2.25 6V18C2.25 18.5967 2.48705 19.169 2.90901 19.591C3.33097 20.0129 3.90326 20.25 4.5 20.25H19.5C20.0967 20.25 20.669 20.0129 21.091 19.591C21.5129 19.169 21.75 18.5967 21.75 18V9C21.75 8.40326 21.5129 7.83097 21.091 7.40901C20.669 6.98705 20.0967 6.75 19.5 6.75H14.121C13.7233 6.74965 13.341 6.59138 13.06 6.31Z" stroke="white" stroke-width="1.5" stroke-linecap="round" stroke-linejoin="round"/>
</g>
</svg>
