<svg width="341" height="283" viewBox="0 0 341 283" fill="none" xmlns="http://www.w3.org/2000/svg">
<path d="M91.0129 147.876L154.794 192.219L233.016 124.209L119.749 106.569L99.0775 192.219L72.8001 174.056L211.226 92.8863L141.856 74.7912L192.109 192.219L253.039 152.99L107.48 124.209L117.365 192.219L218.949 103.986L162.92 66.7173H193.023L60.1626 192.219" stroke="url(#paint0_linear_1_443)" stroke-width="3" stroke-miterlimit="10" stroke-linecap="round" stroke-linejoin="round"/>
<path d="M154.794 55.7991L178.691 89.8582L202.523 124.011L249.837 192.024L250.25 192.615L249.424 192.621L60.1661 193.64L57.1789 193.657L58.6895 191.517L106.532 123.756C114.583 112.348 122.671 100.963 130.743 89.6374C138.814 78.3118 146.841 67.0484 154.794 55.7991ZM154.794 56.5915C146.974 68.0106 139.23 79.4211 131.527 90.7638C123.824 102.112 116.145 113.395 108.424 124.659L61.6392 192.927L60.1626 190.804L249.421 191.823L249.005 192.42L201.695 124.407L178.213 90.5458L154.794 56.5915Z" fill="url(#paint1_linear_1_443)"/>
<path d="M177.971 44.6857L201.869 78.7447L225.701 112.897L273.015 180.911L273.427 181.502L272.602 181.508L83.3438 182.526L80.3567 182.543L81.8673 180.404L129.713 112.645C137.764 101.238 145.853 89.8525 153.924 78.5268C161.992 67.1984 170.019 55.9349 177.971 44.6857ZM177.971 45.4809C170.152 56.9 162.408 68.3105 154.705 79.6532C147.002 91.0015 139.322 102.285 131.602 113.548L84.8169 181.816L83.3404 179.694L272.599 180.712L272.183 181.31L224.869 113.293L201.388 79.4324L177.971 45.4809Z" fill="url(#paint2_linear_1_443)"/>
<path d="M68.3637 203.279C69.6458 204.176 70.2869 205.41 70.2869 206.978C70.2869 208.548 69.6458 209.777 68.3637 210.668C67.0815 211.557 65.3083 212.004 63.0475 212.004H58.2871V216.648H56.4116V201.937H63.0475C65.3117 201.932 67.0815 202.382 68.3637 203.279ZM67.0235 209.678C67.9511 209.041 68.4148 208.141 68.4148 206.978C68.4148 205.786 67.9511 204.872 67.0235 204.235C66.096 203.599 64.7525 203.279 62.9997 203.279H58.2905V210.634H62.9997C64.7525 210.634 66.096 210.314 67.0235 209.678Z" fill="url(#paint3_linear_1_443)"/>
<path d="M86.4469 216.642L82.3958 211.913C81.9389 211.956 81.4683 211.975 80.9807 211.975H76.2135V216.639H74.338V201.929H80.9739C83.2347 201.929 85.0079 202.379 86.2901 203.273C87.5722 204.17 88.2133 205.404 88.2133 206.972C88.2133 208.121 87.8621 209.092 87.163 209.884C86.464 210.677 85.4614 211.245 84.1622 211.596L88.4929 216.639H86.4469V216.642ZM84.9499 209.689C85.8775 209.044 86.3412 208.141 86.3412 206.978C86.3412 205.786 85.8775 204.872 84.9499 204.235C84.0224 203.599 82.6789 203.279 80.9261 203.279H76.2135V210.657H80.9227C82.6789 210.654 84.0224 210.331 84.9499 209.689Z" fill="url(#paint4_linear_1_443)"/>
<path d="M95.6232 215.79C94.1979 215.139 93.0828 214.248 92.2814 213.113C91.4801 211.978 91.0777 210.705 91.0777 209.29C91.0777 207.875 91.4767 206.598 92.2814 205.464C93.0828 204.329 94.1979 203.437 95.6232 202.784C97.0486 202.133 98.6411 201.807 100.397 201.807C102.153 201.807 103.736 202.13 105.144 202.775C106.552 203.42 107.664 204.312 108.476 205.455C109.284 206.598 109.689 207.875 109.689 209.29C109.689 210.705 109.284 211.984 108.476 213.124C107.664 214.268 106.556 215.159 105.144 215.804C103.736 216.45 102.153 216.772 100.397 216.772C98.6411 216.769 97.0486 216.444 95.6232 215.79ZM104.193 214.593C105.325 214.067 106.208 213.34 106.852 212.408C107.493 211.477 107.814 210.439 107.814 209.29C107.814 208.141 107.493 207.102 106.852 206.168C106.211 205.237 105.325 204.507 104.193 203.984C103.06 203.457 101.795 203.194 100.394 203.194C98.9923 203.194 97.7204 203.457 96.5814 203.984C95.4425 204.51 94.5491 205.237 93.8978 206.168C93.2465 207.099 92.9225 208.141 92.9225 209.29C92.9225 210.439 93.2465 211.477 93.8978 212.408C94.5491 213.342 95.4425 214.07 96.5814 214.593C97.7204 215.12 98.9923 215.383 100.394 215.383C101.795 215.383 103.064 215.12 104.193 214.593Z" fill="url(#paint5_linear_1_443)"/>
<path d="M125.843 205.588V215.298C125.843 217.174 125.29 218.567 124.185 219.469C123.077 220.372 121.413 220.825 119.183 220.825C117.952 220.825 116.782 220.675 115.677 220.372C114.569 220.072 113.672 219.653 112.98 219.121L113.891 217.986C114.532 218.462 115.313 218.833 116.233 219.099C117.154 219.365 118.119 219.498 119.132 219.498C120.82 219.498 122.061 219.172 122.852 218.521C123.647 217.87 124.042 216.857 124.042 215.485V214.075C123.486 214.777 122.757 215.309 121.853 215.671C120.949 216.037 119.95 216.218 118.852 216.218C117.601 216.218 116.469 215.988 115.446 215.536C114.423 215.08 113.621 214.443 113.038 213.623C112.455 212.802 112.165 211.874 112.165 210.838C112.165 209.799 112.458 208.877 113.038 208.064C113.621 207.252 114.419 206.621 115.432 206.174C116.445 205.727 117.584 205.5 118.849 205.5C119.981 205.5 121 205.69 121.911 206.066C122.821 206.446 123.558 206.992 124.114 207.705V205.582H125.843V205.588ZM121.642 214.384C122.416 214.041 123.023 213.56 123.452 212.946C123.882 212.329 124.097 211.63 124.097 210.843C124.097 210.057 123.882 209.361 123.452 208.752C123.023 208.144 122.422 207.665 121.655 207.323C120.888 206.981 120.015 206.808 119.033 206.808C118.071 206.808 117.205 206.975 116.438 207.312C115.671 207.648 115.07 208.124 114.641 208.741C114.211 209.358 113.996 210.057 113.996 210.843C113.996 211.63 114.211 212.329 114.641 212.946C115.07 213.56 115.671 214.041 116.438 214.384C117.205 214.726 118.071 214.899 119.033 214.899C119.994 214.899 120.864 214.726 121.642 214.384Z" fill="url(#paint6_linear_1_443)"/>
<path d="M134.49 206.072C135.326 205.693 136.359 205.506 137.593 205.506V206.955L137.164 206.935C135.762 206.935 134.664 207.292 133.873 208.008C133.079 208.721 132.683 209.723 132.683 211.013V216.645H130.886V205.591H132.608V207.756C133.024 207.012 133.655 206.451 134.49 206.072Z" fill="url(#paint7_linear_1_443)"/>
<path d="M149.467 206.587C150.395 207.309 150.858 208.379 150.858 209.791V216.642H149.136V214.919C148.731 215.493 148.137 215.943 147.353 216.263C146.569 216.586 145.634 216.747 144.553 216.747C143.067 216.747 141.887 216.453 141.007 215.864C140.131 215.275 139.691 214.497 139.691 213.532C139.691 212.595 140.1 211.837 140.918 211.262C141.737 210.688 143.039 210.402 144.83 210.402H149.058V209.731C149.058 208.778 148.737 208.053 148.096 207.555C147.455 207.057 146.517 206.808 145.286 206.808C144.441 206.808 143.633 206.924 142.855 207.156C142.078 207.388 141.413 207.705 140.857 208.113L140.045 206.998C140.72 206.522 141.532 206.154 142.477 205.894C143.421 205.633 144.417 205.506 145.464 205.506C147.206 205.506 148.54 205.866 149.467 206.587ZM147.442 214.995C148.168 214.61 148.707 214.053 149.061 213.323V211.517H144.884C142.606 211.517 141.467 212.176 141.467 213.492C141.467 214.135 141.764 214.644 142.354 215.015C142.944 215.386 143.772 215.572 144.836 215.572C145.846 215.572 146.715 215.38 147.442 214.995Z" fill="url(#paint8_linear_1_443)"/>
<path d="M176.294 206.703C177.245 207.501 177.722 208.679 177.722 210.235V216.645H175.925V210.382C175.925 209.233 175.591 208.359 174.926 207.756C174.258 207.153 173.317 206.853 172.103 206.853C170.718 206.853 169.63 207.207 168.836 207.914C168.041 208.622 167.646 209.598 167.646 210.846V216.645H165.849V210.382C165.849 209.233 165.515 208.359 164.85 207.756C164.185 207.153 163.233 206.853 162.002 206.853C160.635 206.853 159.551 207.207 158.749 207.914C157.948 208.622 157.545 209.598 157.545 210.846V216.645H155.748V205.591H157.47V207.609C157.941 206.935 158.599 206.417 159.445 206.052C160.287 205.687 161.259 205.506 162.357 205.506C163.472 205.506 164.437 205.701 165.255 206.095C166.074 206.488 166.684 207.068 167.09 207.838C167.578 207.111 168.284 206.539 169.204 206.126C170.125 205.713 171.175 205.506 172.358 205.506C174.029 205.506 175.342 205.905 176.294 206.703Z" fill="url(#paint9_linear_1_443)"/>
<path d="M192.017 203.279H185.79V201.935H200.123V203.279H193.893V216.645H192.017V203.279Z" fill="url(#paint10_linear_1_443)"/>
<path d="M210.653 206.587C211.58 207.309 212.044 208.379 212.044 209.791V216.642H210.322V214.919C209.916 215.493 209.323 215.943 208.539 216.263C207.754 216.586 206.82 216.747 205.739 216.747C204.252 216.747 203.072 216.453 202.193 215.864C201.316 215.275 200.876 214.497 200.876 213.532C200.876 212.595 201.285 211.837 202.104 211.262C202.922 210.688 204.225 210.402 206.015 210.402H210.244V209.731C210.244 208.778 209.923 208.053 209.282 207.555C208.641 207.057 207.703 206.808 206.472 206.808C205.626 206.808 204.818 206.924 204.041 207.156C203.263 207.388 202.598 207.705 202.042 208.113L201.231 206.998C201.906 206.522 202.718 206.154 203.662 205.894C204.607 205.633 205.603 205.506 206.649 205.506C208.392 205.506 209.725 205.866 210.653 206.587ZM208.627 214.995C209.354 214.61 209.892 214.053 210.247 213.323V211.517H206.07C203.792 211.517 202.653 212.176 202.653 213.492C202.653 214.135 202.95 214.644 203.539 215.015C204.129 215.386 204.958 215.572 206.022 215.572C207.031 215.572 207.901 215.38 208.627 214.995Z" fill="url(#paint11_linear_1_443)"/>
<path d="M218.97 216.034C217.933 215.558 217.118 214.888 216.528 214.027C215.938 213.164 215.642 212.196 215.642 211.115C215.642 210.037 215.935 209.069 216.528 208.214C217.118 207.36 217.933 206.695 218.97 206.219C220.01 205.744 221.186 205.506 222.502 205.506C223.652 205.506 224.675 205.693 225.578 206.064C226.482 206.434 227.195 206.978 227.716 207.691L226.376 208.446C225.936 207.9 225.381 207.49 224.705 207.218C224.03 206.944 223.297 206.808 222.502 206.808C221.541 206.808 220.675 206.986 219.907 207.343C219.14 207.699 218.54 208.209 218.11 208.865C217.681 209.525 217.466 210.275 217.466 211.112C217.466 211.967 217.681 212.72 218.11 213.371C218.54 214.022 219.14 214.525 219.907 214.885C220.675 215.241 221.541 215.42 222.502 215.42C223.294 215.42 224.03 215.287 224.705 215.021C225.381 214.755 225.94 214.35 226.376 213.804L227.716 214.559C227.195 215.272 226.475 215.819 225.565 216.187C224.654 216.56 223.631 216.744 222.499 216.744C221.186 216.747 220.01 216.509 218.97 216.034Z" fill="url(#paint12_linear_1_443)"/>
<path d="M238.407 215.971C238.069 216.223 237.65 216.416 237.152 216.549C236.654 216.682 236.136 216.75 235.593 216.75C234.342 216.75 233.38 216.47 232.705 215.909C232.03 215.349 231.692 214.556 231.692 213.535V206.853H229.312V205.591H231.692V203.174H233.489V205.591H237.541V206.853H233.489V213.453C233.489 214.109 233.687 214.613 234.083 214.955C234.478 215.298 235.048 215.471 235.791 215.471C236.163 215.471 236.521 215.422 236.865 215.323C237.213 215.227 237.51 215.086 237.766 214.902L238.407 215.971Z" fill="url(#paint13_linear_1_443)"/>
<path d="M241.646 202.857C241.394 202.648 241.268 202.396 241.268 202.102C241.268 201.821 241.394 201.575 241.646 201.366C241.899 201.156 242.212 201.052 242.584 201.052C242.956 201.052 243.266 201.154 243.522 201.357C243.774 201.561 243.9 201.802 243.9 202.082C243.9 202.39 243.774 202.648 243.522 202.86C243.269 203.069 242.956 203.174 242.584 203.174C242.212 203.174 241.899 203.067 241.646 202.857ZM241.67 205.588H243.467V216.642H241.67V205.588Z" fill="url(#paint14_linear_1_443)"/>
<path d="M250.468 216.034C249.431 215.558 248.616 214.888 248.026 214.027C247.436 213.164 247.14 212.196 247.14 211.115C247.14 210.037 247.433 209.069 248.026 208.214C248.616 207.36 249.431 206.695 250.468 206.219C251.508 205.744 252.684 205.506 254.001 205.506C255.15 205.506 256.173 205.693 257.076 206.064C257.98 206.434 258.693 206.978 259.215 207.691L257.874 208.446C257.435 207.9 256.879 207.49 256.204 207.218C255.528 206.944 254.795 206.808 254.001 206.808C253.039 206.808 252.173 206.986 251.406 207.343C250.638 207.699 250.038 208.209 249.609 208.865C249.179 209.525 248.964 210.275 248.964 211.112C248.964 211.967 249.179 212.72 249.609 213.371C250.038 214.022 250.638 214.525 251.406 214.885C252.173 215.241 253.039 215.42 254.001 215.42C254.792 215.42 255.528 215.287 256.204 215.021C256.879 214.755 257.438 214.35 257.874 213.804L259.215 214.559C258.693 215.272 257.973 215.819 257.063 216.187C256.152 216.56 255.129 216.744 253.997 216.744C252.684 216.747 251.508 216.509 250.468 216.034Z" fill="url(#paint15_linear_1_443)"/>
<path d="M263.208 216.359C262.219 216.102 261.448 215.776 260.892 215.383L261.704 214.206C262.26 214.571 262.962 214.868 263.804 215.097C264.65 215.329 265.526 215.442 266.437 215.442C267.654 215.442 268.551 215.284 269.134 214.97C269.717 214.653 270.007 214.208 270.007 213.634C270.007 213.226 269.847 212.907 269.526 212.677C269.206 212.445 268.8 212.27 268.309 212.151C267.818 212.032 267.17 211.916 266.359 211.806C265.278 211.636 264.408 211.466 263.75 211.291C263.092 211.115 262.529 210.818 262.065 210.399C261.602 209.978 261.37 209.397 261.37 208.656C261.37 207.73 261.833 206.975 262.761 206.386C263.688 205.798 264.981 205.503 266.635 205.503C267.494 205.503 268.357 205.597 269.22 205.786C270.079 205.976 270.788 206.225 271.347 206.533L270.563 207.73C269.465 207.099 268.156 206.785 266.638 206.785C265.489 206.785 264.626 206.955 264.043 207.289C263.46 207.626 263.17 208.067 263.17 208.613C263.17 209.035 263.334 209.369 263.665 209.624C263.995 209.876 264.405 210.062 264.892 210.181C265.38 210.3 266.058 210.425 266.918 210.549C267.982 210.716 268.834 210.886 269.475 211.053C270.116 211.22 270.665 211.509 271.122 211.913C271.579 212.321 271.804 212.881 271.804 213.594C271.804 214.562 271.32 215.329 270.348 215.895C269.376 216.461 268.033 216.747 266.311 216.747C265.226 216.747 264.193 216.62 263.208 216.359Z" fill="url(#paint16_linear_1_443)"/>
<path d="M209.749 180.877C201.586 174.396 193.071 168.21 184.14 162.467C175.223 156.717 165.893 151.397 156.113 146.724C151.23 144.384 146.207 142.244 141.079 140.311C135.95 138.384 130.688 136.698 125.311 135.356C119.933 134.026 114.423 133.052 108.864 132.662C103.32 132.269 97.6931 132.495 92.3905 133.703C91.0641 134.001 89.7751 134.385 88.51 134.81C87.2517 135.246 86.0343 135.758 84.8544 136.318C82.5186 137.467 80.3737 138.871 78.4777 140.498C74.679 143.753 71.7635 147.709 69.6697 151.912C68.6263 154.017 67.7806 156.191 67.1736 158.406C66.5734 160.619 66.2188 162.878 66.1745 165.122C66.1335 166.243 66.2188 167.361 66.3484 168.461C66.4166 169.01 66.5257 169.557 66.6212 170.097L66.8258 170.898L66.9281 171.297L67.0577 171.688L67.3168 172.469C67.4089 172.726 67.5248 172.975 67.6271 173.227C67.8181 173.739 68.1045 174.209 68.3466 174.69C68.9059 175.619 69.5026 176.524 70.2733 177.28C71.7259 178.85 73.6526 179.946 75.8077 180.679C77.9731 181.412 80.3942 181.754 82.8869 181.887C87.903 182.125 93.1783 181.513 98.4433 180.693C103.715 179.847 109.031 178.785 114.344 177.571C119.65 176.343 124.939 174.925 130.197 173.4C135.459 171.877 140.69 170.233 145.914 168.546C151.135 166.857 156.338 165.099 161.532 163.302C171.912 159.7 182.271 155.984 192.655 152.26C197.845 150.395 203.048 148.538 208.279 146.716C213.507 144.89 218.758 143.088 224.057 141.347C229.357 139.61 234.71 137.948 240.156 136.423C242.884 135.667 245.633 134.94 248.432 134.289C251.228 133.633 254.072 133.05 257.001 132.6C258.464 132.373 259.955 132.186 261.479 132.056C263.003 131.929 264.565 131.855 266.185 131.901C267.801 131.943 269.503 132.113 271.272 132.563C272.156 132.803 273.056 133.095 273.936 133.545C274.808 133.986 275.654 134.544 276.36 135.232C277.059 135.919 277.618 136.695 277.993 137.479C278.375 138.262 278.597 139.049 278.723 139.808C278.972 141.33 278.856 142.748 278.6 144.087C278.068 146.764 276.97 149.164 275.678 151.433C273.046 155.953 269.516 159.943 265.472 163.498C261.417 167.044 256.793 170.142 251.651 172.556C249.083 173.759 246.39 174.795 243.587 175.593C240.79 176.405 237.892 176.94 234.976 177.274C232.061 177.599 229.118 177.699 226.206 177.583C223.29 177.45 220.405 177.113 217.578 176.609C211.921 175.599 206.496 173.94 201.378 171.838C198.817 170.785 196.331 169.622 193.927 168.36C191.516 167.106 189.187 165.745 186.974 164.27C186.875 164.205 186.858 164.083 186.94 164.001C187.015 163.922 187.151 163.908 187.25 163.965C188.409 164.627 189.599 165.255 190.807 165.855C192.01 166.461 193.231 167.038 194.469 167.59C196.941 168.699 199.475 169.704 202.063 170.592C207.229 172.375 212.596 173.739 218.063 174.433C223.522 175.132 229.077 175.16 234.407 174.314C237.07 173.892 239.679 173.281 242.178 172.443C244.681 171.62 247.082 170.575 249.37 169.381C253.939 166.981 258.055 163.97 261.608 160.583C265.148 157.192 268.176 153.4 270.287 149.393C271.32 147.395 272.121 145.323 272.408 143.351C272.551 142.372 272.554 141.421 272.377 140.62C272.292 140.221 272.159 139.861 271.995 139.564C271.835 139.261 271.634 139.035 271.416 138.831C270.965 138.444 270.294 138.121 269.342 137.906C268.394 137.699 267.262 137.592 266.055 137.6C263.637 137.612 261.018 137.946 258.413 138.424C253.182 139.394 247.917 140.849 242.71 142.437C237.496 144.036 232.32 145.802 227.157 147.618C216.825 151.255 206.585 155.18 196.297 159.055C186.012 162.943 175.714 166.865 165.29 170.612C154.869 174.368 144.345 178.004 133.559 181.23C128.165 182.843 122.705 184.36 117.137 185.699C111.575 187.049 105.877 188.184 99.9812 188.806C97.0316 189.106 94.0376 189.302 90.9924 189.273C90.2354 189.276 89.4648 189.248 88.7043 189.231C87.9337 189.197 87.1698 189.157 86.3992 189.089C84.8579 188.968 83.3097 188.798 81.7616 188.518C78.6721 187.98 75.5451 187.111 72.6876 185.671C71.2622 184.952 69.9186 184.092 68.732 183.098C68.4387 182.846 68.1557 182.586 67.8726 182.331C67.5998 182.065 67.3407 181.791 67.0781 181.522C66.8326 181.242 66.5973 180.956 66.362 180.673C66.2461 180.531 66.1233 180.39 66.0142 180.246L65.7107 179.801C65.5129 179.504 65.3015 179.213 65.1208 178.91L64.6161 177.996C64.4354 177.696 64.3092 177.382 64.1694 177.073C64.0364 176.762 63.8829 176.459 63.7704 176.145C63.5556 175.519 63.3169 174.897 63.1703 174.269C63.0884 173.954 62.9963 173.643 62.9281 173.329L62.7508 172.387L62.6656 171.917L62.611 171.447L62.5019 170.508C62.4576 169.885 62.4064 169.259 62.3962 168.64C62.403 168.02 62.3757 167.4 62.4303 166.786L62.478 165.863C62.4985 165.558 62.5394 165.252 62.5701 164.947C63.0986 160.068 64.5718 155.336 66.9281 150.918C69.2878 146.512 72.4966 142.383 76.6841 138.973C78.771 137.269 81.1478 135.789 83.7155 134.603C85.0045 134.023 86.3344 133.502 87.695 133.064C89.0624 132.636 90.4503 132.26 91.862 131.966C97.5124 130.783 103.367 130.664 109.055 131.165C114.757 131.666 120.339 132.758 125.757 134.199C136.611 137.077 146.838 141.285 156.587 146.065C166.343 150.853 175.601 156.292 184.498 162.097C188.945 165 193.286 168.014 197.555 171.093C201.811 174.187 205.995 177.348 210.09 180.585C210.182 180.659 210.186 180.78 210.097 180.857C209.988 180.947 209.841 180.95 209.749 180.877Z" fill="url(#paint17_linear_1_443)"/>
<path d="M189.2 107.413C190.404 107.413 191.379 106.603 191.379 105.604C191.379 104.606 190.404 103.796 189.2 103.796C187.997 103.796 187.021 104.606 187.021 105.604C187.021 106.603 187.997 107.413 189.2 107.413Z" fill="url(#paint18_linear_1_443)"/>
<path d="M146.357 112.51C147.561 112.51 148.536 111.7 148.536 110.701C148.536 109.702 147.561 108.893 146.357 108.893C145.154 108.893 144.178 109.702 144.178 110.701C144.178 111.7 145.154 112.51 146.357 112.51Z" fill="url(#paint19_linear_1_443)"/>
<path d="M231.556 168.549C232.759 168.549 233.735 167.74 233.735 166.741C233.735 165.742 232.759 164.932 231.556 164.932C230.353 164.932 229.377 165.742 229.377 166.741C229.377 167.74 230.353 168.549 231.556 168.549Z" fill="url(#paint20_linear_1_443)"/>
<path d="M213.841 142.921C215.045 142.921 216.02 142.111 216.02 141.112C216.02 140.114 215.045 139.304 213.841 139.304C212.638 139.304 211.662 140.114 211.662 141.112C211.662 142.111 212.638 142.921 213.841 142.921Z" fill="url(#paint21_linear_1_443)"/>
<path d="M180.655 80.0098C181.858 80.0098 182.834 79.2001 182.834 78.2014C182.834 77.2027 181.858 76.393 180.655 76.393C179.452 76.393 178.476 77.2027 178.476 78.2014C178.476 79.2001 179.452 80.0098 180.655 80.0098Z" fill="url(#paint22_linear_1_443)"/>
<path d="M182.012 170.358C183.216 170.358 184.191 169.548 184.191 168.549C184.191 167.55 183.216 166.741 182.012 166.741C180.809 166.741 179.833 167.55 179.833 168.549C179.833 169.548 180.809 170.358 182.012 170.358Z" fill="url(#paint23_linear_1_443)"/>
<path d="M161.999 123.382C163.202 123.382 164.178 122.573 164.178 121.574C164.178 120.575 163.202 119.766 161.999 119.766C160.795 119.766 159.82 120.575 159.82 121.574C159.82 122.573 160.795 123.382 161.999 123.382Z" fill="url(#paint24_linear_1_443)"/>
<defs>
<linearGradient id="paint0_linear_1_443" x1="59.6522" y1="129.469" x2="253.551" y2="129.469" gradientUnits="userSpaceOnUse">
<stop stop-color="#302655"/>
<stop offset="1" stop-color="#895070" stop-opacity="0.8"/>
</linearGradient>
<linearGradient id="paint1_linear_1_443" x1="57.1771" y1="124.725" x2="252.342" y2="124.725" gradientUnits="userSpaceOnUse">
<stop stop-color="#302655"/>
<stop offset="1" stop-color="#895070" stop-opacity="0.8"/>
</linearGradient>
<linearGradient id="paint2_linear_1_443" x1="80.3544" y1="113.612" x2="275.52" y2="113.612" gradientUnits="userSpaceOnUse">
<stop stop-color="#302655"/>
<stop offset="0.9986" stop-color="#895070" stop-opacity="0.8"/>
</linearGradient>
<linearGradient id="paint3_linear_1_443" x1="56.4136" y1="209.288" x2="70.29" y2="209.288" gradientUnits="userSpaceOnUse">
<stop stop-color="#302655"/>
<stop offset="1" stop-color="#895070" stop-opacity="0.8"/>
</linearGradient>
<linearGradient id="paint4_linear_1_443" x1="74.3409" y1="209.288" x2="88.4962" y2="209.288" gradientUnits="userSpaceOnUse">
<stop stop-color="#302655"/>
<stop offset="1" stop-color="#895070" stop-opacity="0.8"/>
</linearGradient>
<linearGradient id="paint5_linear_1_443" x1="91.0778" y1="209.288" x2="109.689" y2="209.288" gradientUnits="userSpaceOnUse">
<stop stop-color="#302655"/>
<stop offset="1" stop-color="#895070" stop-opacity="0.8"/>
</linearGradient>
<linearGradient id="paint6_linear_1_443" x1="112.17" y1="213.165" x2="125.842" y2="213.165" gradientUnits="userSpaceOnUse">
<stop stop-color="#302655"/>
<stop offset="1" stop-color="#895070" stop-opacity="0.8"/>
</linearGradient>
<linearGradient id="paint7_linear_1_443" x1="130.881" y1="211.074" x2="137.592" y2="211.074" gradientUnits="userSpaceOnUse">
<stop stop-color="#302655"/>
<stop offset="1" stop-color="#895070" stop-opacity="0.8"/>
</linearGradient>
<linearGradient id="paint8_linear_1_443" x1="139.693" y1="211.127" x2="150.859" y2="211.127" gradientUnits="userSpaceOnUse">
<stop stop-color="#302655"/>
<stop offset="1" stop-color="#895070" stop-opacity="0.8"/>
</linearGradient>
<linearGradient id="paint9_linear_1_443" x1="155.747" y1="211.074" x2="177.725" y2="211.074" gradientUnits="userSpaceOnUse">
<stop stop-color="#302655"/>
<stop offset="1" stop-color="#895070" stop-opacity="0.8"/>
</linearGradient>
<linearGradient id="paint10_linear_1_443" x1="185.789" y1="209.288" x2="200.12" y2="209.288" gradientUnits="userSpaceOnUse">
<stop stop-color="#302655"/>
<stop offset="1" stop-color="#895070" stop-opacity="0.8"/>
</linearGradient>
<linearGradient id="paint11_linear_1_443" x1="200.88" y1="211.127" x2="212.046" y2="211.127" gradientUnits="userSpaceOnUse">
<stop stop-color="#302655"/>
<stop offset="1" stop-color="#895070" stop-opacity="0.8"/>
</linearGradient>
<linearGradient id="paint12_linear_1_443" x1="215.642" y1="211.127" x2="227.72" y2="211.127" gradientUnits="userSpaceOnUse">
<stop stop-color="#302655"/>
<stop offset="1" stop-color="#895070" stop-opacity="0.8"/>
</linearGradient>
<linearGradient id="paint13_linear_1_443" x1="229.315" y1="209.96" x2="238.406" y2="209.96" gradientUnits="userSpaceOnUse">
<stop stop-color="#302655"/>
<stop offset="1" stop-color="#895070" stop-opacity="0.8"/>
</linearGradient>
<linearGradient id="paint14_linear_1_443" x1="241.266" y1="208.847" x2="243.899" y2="208.847" gradientUnits="userSpaceOnUse">
<stop stop-color="#302655"/>
<stop offset="1" stop-color="#895070" stop-opacity="0.8"/>
</linearGradient>
<linearGradient id="paint15_linear_1_443" x1="247.14" y1="211.127" x2="259.217" y2="211.127" gradientUnits="userSpaceOnUse">
<stop stop-color="#302655"/>
<stop offset="1" stop-color="#895070" stop-opacity="0.8"/>
</linearGradient>
<linearGradient id="paint16_linear_1_443" x1="260.889" y1="211.127" x2="271.803" y2="211.127" gradientUnits="userSpaceOnUse">
<stop stop-color="#302655"/>
<stop offset="1" stop-color="#895070" stop-opacity="0.8"/>
</linearGradient>
<linearGradient id="paint17_linear_1_443" x1="59.1833" y1="160.092" x2="280.798" y2="160.092" gradientUnits="userSpaceOnUse">
<stop stop-color="#302655"/>
<stop offset="1" stop-color="#895070" stop-opacity="0.8"/>
</linearGradient>
<linearGradient id="paint18_linear_1_443" x1="187.02" y1="105.605" x2="191.378" y2="105.605" gradientUnits="userSpaceOnUse">
<stop stop-color="#302655"/>
<stop offset="1" stop-color="#895070" stop-opacity="0.8"/>
</linearGradient>
<linearGradient id="paint19_linear_1_443" x1="144.177" y1="110.7" x2="148.535" y2="110.7" gradientUnits="userSpaceOnUse">
<stop stop-color="#302655"/>
<stop offset="1" stop-color="#895070" stop-opacity="0.8"/>
</linearGradient>
<linearGradient id="paint20_linear_1_443" x1="229.378" y1="166.74" x2="233.736" y2="166.74" gradientUnits="userSpaceOnUse">
<stop stop-color="#302655"/>
<stop offset="1" stop-color="#895070" stop-opacity="0.8"/>
</linearGradient>
<linearGradient id="paint21_linear_1_443" x1="211.662" y1="141.112" x2="216.02" y2="141.112" gradientUnits="userSpaceOnUse">
<stop stop-color="#302655"/>
<stop offset="1" stop-color="#895070" stop-opacity="0.8"/>
</linearGradient>
<linearGradient id="paint22_linear_1_443" x1="178.475" y1="78.2015" x2="182.833" y2="78.2015" gradientUnits="userSpaceOnUse">
<stop stop-color="#302655"/>
<stop offset="1" stop-color="#895070" stop-opacity="0.8"/>
</linearGradient>
<linearGradient id="paint23_linear_1_443" x1="179.834" y1="168.549" x2="184.192" y2="168.549" gradientUnits="userSpaceOnUse">
<stop stop-color="#302655"/>
<stop offset="1" stop-color="#895070" stop-opacity="0.8"/>
</linearGradient>
<linearGradient id="paint24_linear_1_443" x1="159.819" y1="121.573" x2="164.177" y2="121.573" gradientUnits="userSpaceOnUse">
<stop stop-color="#302655"/>
<stop offset="1" stop-color="#895070" stop-opacity="0.8"/>
</linearGradient>
</defs>
</svg>
