<svg width="44" height="44" viewBox="0 0 44 44" fill="none" xmlns="http://www.w3.org/2000/svg">
<g id="vscode-icons:file-type-js">
<path id="Vector" d="M25.8142 27.0875C26.2408 27.9522 26.9027 28.6791 27.7238 29.1845C28.545 29.6899 29.4921 29.9534 30.4562 29.9448C32.406 29.9448 33.6517 28.9699 33.6517 27.6238C33.6517 26.0109 32.3716 25.4389 30.2266 24.4998L29.0496 23.9951C25.6547 22.5486 23.3984 20.7364 23.3984 16.9056C23.3984 13.376 26.0879 10.6906 30.2899 10.6906C31.6537 10.5917 33.0164 10.8969 34.2076 11.5682C35.3989 12.2396 36.3658 13.2471 36.9875 14.465L33.3231 16.8176C33.0832 16.2141 32.6653 15.6979 32.125 15.3376C31.5846 14.9773 30.9475 14.79 30.2981 14.8005C30.0151 14.772 29.7292 14.8028 29.4587 14.891C29.1883 14.9791 28.9391 15.1227 28.7272 15.3125C28.5153 15.5022 28.3453 15.7341 28.228 15.9933C28.1107 16.2524 28.0486 16.5332 28.0459 16.8176C28.0459 18.2298 28.9204 18.8004 30.9334 19.6749L32.1104 20.1781C36.1089 21.8928 38.3652 23.6404 38.3652 27.5701C38.3652 31.8065 35.0377 34.1275 30.5676 34.1275C28.8264 34.2383 27.0904 33.8428 25.5689 32.9889C24.0474 32.135 22.8056 30.859 21.9931 29.315L25.8142 27.0875ZM9.19324 27.5C9.93299 28.8118 10.6054 29.92 12.2182 29.92C13.7637 29.92 14.74 29.315 14.74 26.9638V10.9656H19.4452V27.0298C19.4452 31.9014 16.588 34.1193 12.419 34.1193C10.9464 34.199 9.48408 33.831 8.22455 33.0638C6.96502 32.2966 5.96724 31.1661 5.36249 29.821L9.19324 27.5Z" fill="#0064DC"/>
</g>
</svg>
