<svg width="519" height="462" viewBox="0 0 519 462" fill="none" xmlns="http://www.w3.org/2000/svg">
<path d="M138.521 241.409L235.595 313.8L354.648 202.772L182.257 173.975L150.795 313.8L110.801 284.148L321.484 151.638L215.904 122.097L292.389 313.8L385.124 249.757L163.584 202.772L178.629 313.8L333.24 169.757L247.963 108.917H293.78L91.5672 313.8" stroke="url(#paint0_linear_1_824)" stroke-width="3" stroke-miterlimit="10" stroke-linecap="round" stroke-linejoin="round"/>
<path d="M235.595 91.0925L271.966 146.694L308.239 202.448L380.251 313.481L380.879 314.446L379.623 314.456L91.5724 316.119L87.0259 316.147L89.3251 312.654L162.141 202.033C174.394 183.409 186.705 164.823 198.99 146.334C211.275 127.845 223.492 109.457 235.595 91.0925ZM235.595 92.3861C223.694 111.028 211.908 129.656 200.184 148.173C188.459 166.699 176.771 185.119 165.021 203.506L93.8145 314.955L91.5672 311.49L379.617 313.153L378.984 314.128L306.978 203.095L271.24 147.817L235.595 92.3861Z" fill="url(#paint1_linear_1_824)"/>
<path d="M270.871 72.9498L307.243 128.551L343.516 184.306L415.527 295.338L416.155 296.304L414.899 296.313L126.849 297.976L122.302 298.004L124.602 294.511L197.422 183.894C209.676 165.271 221.987 146.685 234.271 128.196C246.551 109.702 258.768 91.3143 270.871 72.9498ZM270.871 74.248C258.971 92.8897 247.184 111.518 235.46 130.034C223.736 148.561 212.048 166.981 200.298 185.368L129.091 296.817L126.844 293.352L414.894 295.015L414.261 295.99L342.249 184.952L306.511 129.674L270.871 74.248Z" fill="url(#paint2_linear_1_824)"/>
<path d="M104.049 331.855C106.001 333.319 106.976 335.333 106.976 337.893C106.976 340.457 106.001 342.462 104.049 343.917C102.098 345.368 99.3989 346.098 95.9579 346.098H88.7127V353.679H85.8582V329.665H95.9579C99.4041 329.655 102.098 330.39 104.049 331.855ZM102.009 342.3C103.421 341.261 104.127 339.792 104.127 337.893C104.127 335.948 103.421 334.456 102.009 333.416C100.598 332.377 98.5529 331.855 95.8852 331.855H88.7178V343.862H95.8852C98.5529 343.862 100.598 343.34 102.009 342.3Z" fill="url(#paint3_linear_1_824)"/>
<path d="M131.572 353.67L125.406 345.95C124.711 346.02 123.994 346.052 123.252 346.052H115.996V353.666H113.142V329.651H123.242C126.683 329.651 129.382 330.385 131.333 331.845C133.284 333.31 134.26 335.324 134.26 337.884C134.26 339.759 133.726 341.344 132.662 342.638C131.598 343.931 130.072 344.86 128.094 345.433L134.686 353.666H131.572V353.67ZM129.293 342.319C130.705 341.266 131.411 339.792 131.411 337.893C131.411 335.948 130.705 334.456 129.293 333.416C127.882 332.377 125.837 331.855 123.169 331.855H115.996V343.899H123.164C125.837 343.894 127.882 343.368 129.293 342.319Z" fill="url(#paint4_linear_1_824)"/>
<path d="M145.538 352.28C143.369 351.217 141.671 349.762 140.452 347.909C139.232 346.056 138.62 343.977 138.62 341.667C138.62 339.357 139.227 337.274 140.452 335.421C141.671 333.569 143.369 332.113 145.538 331.046C147.707 329.983 150.131 329.452 152.804 329.452C155.477 329.452 157.885 329.979 160.028 331.032C162.172 332.086 163.864 333.541 165.099 335.407C166.329 337.274 166.947 339.357 166.947 341.667C166.947 343.977 166.329 346.066 165.099 347.928C163.864 349.794 162.177 351.249 160.028 352.303C157.885 353.356 155.477 353.883 152.804 353.883C150.131 353.878 147.707 353.347 145.538 352.28ZM158.58 350.325C160.304 349.466 161.648 348.279 162.629 346.759C163.604 345.239 164.092 343.543 164.092 341.667C164.092 339.792 163.604 338.096 162.629 336.572C161.653 335.052 160.304 333.86 158.58 333.005C156.857 332.146 154.932 331.716 152.799 331.716C150.666 331.716 148.73 332.146 146.996 333.005C145.263 333.864 143.903 335.052 142.912 336.572C141.921 338.092 141.427 339.792 141.427 341.667C141.427 343.543 141.921 345.239 142.912 346.759C143.903 348.283 145.263 349.471 146.996 350.325C148.73 351.185 150.666 351.614 152.799 351.614C154.932 351.614 156.863 351.185 158.58 350.325Z" fill="url(#paint5_linear_1_824)"/>
<path d="M191.532 335.625V351.476C191.532 354.539 190.691 356.812 189.009 358.286C187.323 359.759 184.79 360.499 181.396 360.499C179.522 360.499 177.742 360.254 176.06 359.759C174.374 359.27 173.009 358.586 171.955 357.717L173.341 355.865C174.317 356.641 175.505 357.246 176.906 357.68C178.308 358.115 179.776 358.332 181.318 358.332C183.887 358.332 185.776 357.801 186.98 356.738C188.189 355.675 188.791 354.021 188.791 351.781V349.48C187.945 350.626 186.835 351.494 185.459 352.086C184.084 352.682 182.563 352.977 180.892 352.977C178.988 352.977 177.264 352.603 175.707 351.864C174.15 351.12 172.931 350.081 172.043 348.741C171.156 347.401 170.715 345.886 170.715 344.195C170.715 342.499 171.161 340.993 172.043 339.667C172.931 338.341 174.145 337.311 175.687 336.581C177.228 335.851 178.962 335.481 180.887 335.481C182.61 335.481 184.162 335.791 185.548 336.405C186.933 337.024 188.054 337.916 188.9 339.08V335.615H191.532V335.625ZM185.138 349.983C186.316 349.424 187.24 348.639 187.894 347.637C188.548 346.629 188.874 345.488 188.874 344.204C188.874 342.92 188.548 341.783 187.894 340.79C187.24 339.796 186.326 339.016 185.158 338.457C183.991 337.898 182.662 337.616 181.167 337.616C179.704 337.616 178.385 337.888 177.218 338.438C176.05 338.988 175.137 339.764 174.483 340.771C173.829 341.778 173.502 342.92 173.502 344.204C173.502 345.488 173.829 346.629 174.483 347.637C175.137 348.639 176.05 349.424 177.218 349.983C178.385 350.543 179.704 350.824 181.167 350.824C182.631 350.824 183.954 350.543 185.138 349.983Z" fill="url(#paint6_linear_1_824)"/>
<path d="M204.694 336.415C205.965 335.795 207.538 335.491 209.417 335.491V337.856L208.763 337.824C206.629 337.824 204.958 338.406 203.754 339.575C202.545 340.739 201.943 342.374 201.943 344.481V353.675H199.208V335.629H201.829V339.163C202.462 337.948 203.422 337.034 204.694 336.415Z" fill="url(#paint7_linear_1_824)"/>
<path d="M227.488 337.255C228.9 338.433 229.606 340.18 229.606 342.485V353.67H226.985V350.857C226.367 351.795 225.464 352.529 224.27 353.051C223.077 353.578 221.655 353.841 220.009 353.841C217.746 353.841 215.951 353.361 214.612 352.4C213.278 351.439 212.608 350.168 212.608 348.593C212.608 347.064 213.231 345.825 214.477 344.888C215.722 343.95 217.705 343.483 220.43 343.483H226.865V342.388C226.865 340.831 226.377 339.649 225.402 338.835C224.426 338.022 222.999 337.616 221.125 337.616C219.838 337.616 218.608 337.805 217.425 338.184C216.241 338.563 215.229 339.08 214.383 339.746L213.148 337.925C214.176 337.149 215.411 336.549 216.849 336.123C218.286 335.698 219.802 335.491 221.395 335.491C224.047 335.491 226.076 336.077 227.488 337.255ZM224.405 350.981C225.511 350.353 226.331 349.443 226.87 348.251V345.303H220.513C217.046 345.303 215.312 346.38 215.312 348.528C215.312 349.577 215.764 350.409 216.662 351.014C217.56 351.619 218.821 351.924 220.44 351.924C221.976 351.924 223.3 351.61 224.405 350.981Z" fill="url(#paint8_linear_1_824)"/>
<path d="M268.318 337.445C269.766 338.748 270.492 340.67 270.492 343.211V353.675H267.757V343.451C267.757 341.575 267.249 340.148 266.237 339.163C265.219 338.179 263.787 337.69 261.939 337.69C259.832 337.69 258.177 338.267 256.967 339.422C255.758 340.577 255.156 342.171 255.156 344.208V353.675H252.421V343.451C252.421 341.575 251.912 340.148 250.9 339.163C249.888 338.179 248.44 337.69 246.566 337.69C244.485 337.69 242.835 338.267 241.615 339.422C240.396 340.577 239.783 342.171 239.783 344.208V353.675H237.048V335.629H239.669V338.923C240.385 337.824 241.387 336.978 242.674 336.382C243.956 335.786 245.435 335.491 247.106 335.491C248.803 335.491 250.272 335.809 251.518 336.452C252.763 337.094 253.692 338.041 254.31 339.297C255.052 338.11 256.126 337.177 257.528 336.502C258.929 335.828 260.528 335.491 262.329 335.491C264.872 335.491 266.87 336.142 268.318 337.445Z" fill="url(#paint9_linear_1_824)"/>
<path d="M292.249 331.855H282.772V329.66H304.586V331.855H295.103V353.675H292.249V331.855Z" fill="url(#paint10_linear_1_824)"/>
<path d="M320.612 337.255C322.024 338.433 322.73 340.18 322.73 342.485V353.67H320.109V350.857C319.491 351.795 318.588 352.529 317.394 353.051C316.201 353.578 314.779 353.841 313.133 353.841C310.871 353.841 309.075 353.361 307.736 352.4C306.402 351.439 305.732 350.168 305.732 348.593C305.732 347.064 306.355 345.825 307.601 344.888C308.846 343.95 310.829 343.483 313.554 343.483H319.989V342.388C319.989 340.831 319.502 339.649 318.526 338.835C317.55 338.022 316.123 337.616 314.249 337.616C312.962 337.616 311.732 337.805 310.549 338.184C309.365 338.563 308.353 339.08 307.507 339.746L306.272 337.925C307.3 337.149 308.535 336.549 309.973 336.123C311.41 335.698 312.926 335.491 314.519 335.491C317.171 335.491 319.201 336.077 320.612 337.255ZM317.529 350.981C318.635 350.353 319.455 349.443 319.995 348.251V345.303H313.637C310.17 345.303 308.436 346.38 308.436 348.528C308.436 349.577 308.888 350.409 309.786 351.014C310.684 351.619 311.945 351.924 313.564 351.924C315.1 351.924 316.424 351.61 317.529 350.981Z" fill="url(#paint11_linear_1_824)"/>
<path d="M333.271 352.677C331.693 351.901 330.452 350.806 329.555 349.401C328.657 347.992 328.205 346.412 328.205 344.647C328.205 342.887 328.652 341.307 329.555 339.912C330.452 338.517 331.693 337.431 333.271 336.655C334.854 335.879 336.644 335.491 338.647 335.491C340.397 335.491 341.954 335.795 343.329 336.401C344.704 337.006 345.789 337.893 346.583 339.057L344.543 340.291C343.874 339.399 343.028 338.729 342 338.286C340.973 337.837 339.857 337.616 338.647 337.616C337.184 337.616 335.866 337.907 334.698 338.489C333.53 339.071 332.617 339.903 331.963 340.974C331.309 342.051 330.982 343.275 330.982 344.643C330.982 346.038 331.309 347.267 331.963 348.33C332.617 349.392 333.53 350.214 334.698 350.801C335.866 351.383 337.184 351.674 338.647 351.674C339.852 351.674 340.973 351.457 342 351.023C343.028 350.589 343.879 349.928 344.543 349.036L346.583 350.27C345.789 351.434 344.694 352.326 343.308 352.926C341.922 353.536 340.365 353.837 338.642 353.837C336.644 353.841 334.854 353.453 333.271 352.677Z" fill="url(#paint12_linear_1_824)"/>
<path d="M362.854 352.575C362.34 352.986 361.701 353.301 360.944 353.518C360.186 353.735 359.397 353.846 358.572 353.846C356.667 353.846 355.204 353.388 354.176 352.474C353.148 351.559 352.634 350.265 352.634 348.597V337.69H349.012V335.629H352.634V331.684H355.37V335.629H361.535V337.69H355.37V348.463C355.37 349.535 355.671 350.358 356.273 350.917C356.875 351.476 357.741 351.758 358.873 351.758C359.439 351.758 359.984 351.679 360.508 351.517C361.037 351.36 361.489 351.129 361.878 350.829L362.854 352.575Z" fill="url(#paint13_linear_1_824)"/>
<path d="M367.784 331.166C367.4 330.824 367.208 330.413 367.208 329.933C367.208 329.475 367.4 329.073 367.784 328.732C368.168 328.39 368.646 328.219 369.211 328.219C369.777 328.219 370.249 328.385 370.639 328.718C371.023 329.05 371.215 329.443 371.215 329.9C371.215 330.404 371.023 330.824 370.639 331.171C370.255 331.513 369.777 331.684 369.211 331.684C368.646 331.684 368.168 331.508 367.784 331.166ZM367.82 335.625H370.556V353.67H367.82V335.625Z" fill="url(#paint14_linear_1_824)"/>
<path d="M381.211 352.677C379.633 351.901 378.393 350.806 377.495 349.401C376.597 347.992 376.145 346.412 376.145 344.647C376.145 342.887 376.592 341.307 377.495 339.912C378.393 338.517 379.633 337.431 381.211 336.655C382.794 335.879 384.584 335.491 386.588 335.491C388.337 335.491 389.894 335.795 391.269 336.401C392.644 337.006 393.729 337.893 394.523 339.057L392.483 340.291C391.814 339.399 390.968 338.729 389.94 338.286C388.913 337.837 387.797 337.616 386.588 337.616C385.124 337.616 383.806 337.907 382.638 338.489C381.47 339.071 380.557 339.903 379.903 340.974C379.249 342.051 378.922 343.275 378.922 344.643C378.922 346.038 379.249 347.267 379.903 348.33C380.557 349.392 381.47 350.214 382.638 350.801C383.806 351.383 385.124 351.674 386.588 351.674C387.792 351.674 388.913 351.457 389.94 351.023C390.968 350.589 391.819 349.928 392.483 349.036L394.523 350.27C393.729 351.434 392.634 352.326 391.248 352.926C389.862 353.536 388.305 353.837 386.582 353.837C384.584 353.841 382.794 353.453 381.211 352.677Z" fill="url(#paint15_linear_1_824)"/>
<path d="M400.601 353.208C399.095 352.788 397.923 352.257 397.077 351.614L398.312 349.692C399.158 350.288 400.227 350.773 401.509 351.148C402.796 351.527 404.13 351.711 405.515 351.711C407.368 351.711 408.733 351.453 409.621 350.94C410.508 350.422 410.949 349.697 410.949 348.759C410.949 348.094 410.705 347.572 410.218 347.198C409.73 346.819 409.112 346.532 408.365 346.338C407.617 346.144 406.631 345.955 405.396 345.775C403.751 345.497 402.427 345.22 401.426 344.934C400.424 344.647 399.568 344.162 398.862 343.479C398.156 342.79 397.803 341.843 397.803 340.633C397.803 339.122 398.509 337.888 399.921 336.927C401.332 335.966 403.299 335.486 405.816 335.486C407.124 335.486 408.437 335.638 409.751 335.948C411.058 336.257 412.138 336.664 412.989 337.168L411.795 339.122C410.124 338.092 408.131 337.579 405.822 337.579C404.073 337.579 402.76 337.856 401.872 338.401C400.985 338.951 400.543 339.672 400.543 340.563C400.543 341.252 400.793 341.797 401.296 342.213C401.799 342.624 402.422 342.929 403.164 343.123C403.907 343.317 404.939 343.52 406.247 343.723C407.867 343.996 409.164 344.273 410.14 344.546C411.115 344.818 411.951 345.29 412.647 345.95C413.342 346.615 413.685 347.53 413.685 348.694C413.685 350.275 412.948 351.527 411.468 352.451C409.989 353.375 407.944 353.841 405.323 353.841C403.673 353.841 402.1 353.633 400.601 353.208Z" fill="url(#paint16_linear_1_824)"/>
<path d="M319.237 295.283C306.812 284.703 293.853 274.604 280.26 265.23C266.688 255.842 252.488 247.156 237.603 239.529C230.171 235.708 222.526 232.215 214.721 229.06C206.915 225.913 198.907 223.16 190.722 220.97C182.537 218.799 174.15 217.209 165.691 216.572C157.252 215.93 148.688 216.299 140.618 218.272C138.599 218.757 136.637 219.385 134.712 220.078C132.797 220.79 130.944 221.626 129.148 222.541C125.593 224.417 122.328 226.708 119.443 229.365C113.661 234.678 109.224 241.136 106.037 247.997C104.449 251.434 103.162 254.982 102.238 258.6C101.324 262.213 100.785 265.899 100.717 269.563C100.655 271.393 100.785 273.218 100.982 275.015C101.086 275.911 101.252 276.803 101.397 277.685L101.708 278.993L101.864 279.644L102.061 280.282L102.456 281.557C102.596 281.977 102.772 282.384 102.928 282.795C103.219 283.631 103.655 284.398 104.023 285.183C104.874 286.699 105.783 288.177 106.955 289.411C109.166 291.975 112.099 293.763 115.379 294.959C118.675 296.156 122.359 296.715 126.153 296.932C133.788 297.32 141.817 296.322 149.83 294.982C157.854 293.601 165.945 291.869 174.031 289.887C182.107 287.881 190.156 285.567 198.159 283.077C206.168 280.591 214.129 277.907 222.08 275.153C230.026 272.395 237.946 269.526 245.85 266.592C261.649 260.711 277.416 254.645 293.219 248.565C301.119 245.521 309.039 242.49 317 239.515C324.956 236.535 332.949 233.592 341.014 230.751C349.079 227.914 357.228 225.202 365.516 222.712C369.668 221.478 373.851 220.291 378.112 219.228C382.368 218.156 386.696 217.205 391.155 216.47C393.381 216.1 395.649 215.796 397.969 215.583C400.289 215.375 402.666 215.255 405.131 215.329C407.591 215.398 410.181 215.675 412.875 216.41C414.219 216.803 415.589 217.279 416.928 218.013C418.257 218.734 419.544 219.644 420.618 220.767C421.682 221.889 422.533 223.155 423.104 224.435C423.686 225.715 424.023 226.999 424.215 228.237C424.594 230.723 424.417 233.037 424.028 235.223C423.219 239.593 421.547 243.511 419.58 247.216C415.574 254.594 410.202 261.109 404.047 266.911C397.876 272.7 390.838 277.759 383.012 281.7C379.104 283.663 375.003 285.354 370.737 286.657C366.481 287.983 362.07 288.856 357.633 289.401C353.195 289.933 348.716 290.094 344.284 289.905C339.846 289.688 335.456 289.138 331.153 288.316C322.543 286.666 314.286 283.959 306.495 280.526C302.598 278.808 298.814 276.909 295.155 274.848C291.486 272.802 287.941 270.58 284.573 268.173C284.422 268.066 284.396 267.868 284.521 267.734C284.635 267.604 284.843 267.581 284.993 267.674C286.758 268.755 288.569 269.78 290.406 270.76C292.238 271.748 294.097 272.691 295.98 273.592C299.743 275.403 303.599 277.043 307.539 278.494C315.401 281.404 323.571 283.631 331.89 284.763C340.199 285.904 348.654 285.95 356.766 284.569C360.819 283.881 364.789 282.883 368.594 281.515C372.403 280.171 376.057 278.466 379.539 276.516C386.494 272.598 392.758 267.683 398.166 262.153C403.554 256.618 408.162 250.427 411.375 243.885C412.948 240.623 414.167 237.242 414.603 234.021C414.821 232.423 414.826 230.871 414.556 229.563C414.427 228.912 414.224 228.325 413.975 227.84C413.731 227.346 413.425 226.976 413.093 226.643C412.408 226.01 411.385 225.484 409.937 225.133C408.494 224.795 406.771 224.62 404.934 224.634C401.254 224.652 397.269 225.197 393.303 225.978C385.342 227.563 377.329 229.937 369.403 232.529C361.468 235.14 353.59 238.022 345.732 240.988C330.006 246.925 314.421 253.333 298.762 259.658C283.109 266.006 267.435 272.409 251.57 278.526C235.709 284.657 219.693 290.593 203.277 295.86C195.066 298.494 186.757 300.97 178.282 303.155C169.817 305.359 161.144 307.212 152.171 308.228C147.681 308.718 143.125 309.036 138.49 308.99C137.338 308.995 136.165 308.949 135.007 308.921C133.835 308.865 132.672 308.801 131.499 308.69C129.153 308.491 126.797 308.214 124.441 307.757C119.738 306.879 114.979 305.461 110.63 303.109C108.461 301.935 106.416 300.531 104.61 298.909C104.163 298.498 103.733 298.073 103.302 297.657C102.887 297.223 102.492 296.775 102.092 296.336C101.719 295.879 101.361 295.412 101.003 294.95C100.826 294.719 100.639 294.488 100.473 294.252L100.011 293.527C99.7103 293.042 99.3885 292.566 99.1134 292.072L98.3453 290.58C98.0702 290.09 97.8782 289.577 97.6654 289.073C97.463 288.565 97.2294 288.071 97.0582 287.558C96.7312 286.537 96.3679 285.521 96.1447 284.495C96.0202 283.982 95.88 283.474 95.7762 282.961L95.5064 281.423L95.3766 280.656L95.2936 279.889L95.1275 278.355C95.06 277.339 94.9822 276.318 94.9666 275.306C94.977 274.294 94.9355 273.282 95.0185 272.28L95.0912 270.774C95.1223 270.275 95.1846 269.776 95.2313 269.277C96.0357 261.312 98.2778 253.587 101.864 246.375C105.456 239.182 110.339 232.441 116.713 226.874C119.889 224.093 123.506 221.677 127.414 219.741C129.376 218.794 131.4 217.944 133.471 217.228C135.552 216.53 137.665 215.916 139.813 215.435C148.413 213.504 157.324 213.31 165.981 214.128C174.659 214.946 183.155 216.729 191.402 219.08C207.922 223.779 223.487 230.649 238.325 238.452C253.173 246.269 267.264 255.149 280.805 264.624C287.573 269.364 294.18 274.285 300.677 279.311C307.155 284.361 313.523 289.522 319.756 294.807C319.896 294.927 319.901 295.126 319.766 295.25C319.6 295.398 319.377 295.403 319.237 295.283Z" fill="url(#paint17_linear_1_824)"/>
<path d="M287.962 175.352C289.794 175.352 291.278 174.03 291.278 172.4C291.278 170.769 289.794 169.448 287.962 169.448C286.13 169.448 284.646 170.769 284.646 172.4C284.646 174.03 286.13 175.352 287.962 175.352Z" fill="url(#paint18_linear_1_824)"/>
<path d="M222.755 183.673C224.586 183.673 226.071 182.351 226.071 180.721C226.071 179.09 224.586 177.768 222.755 177.768C220.923 177.768 219.438 179.09 219.438 180.721C219.438 182.351 220.923 183.673 222.755 183.673Z" fill="url(#paint19_linear_1_824)"/>
<path d="M352.427 275.158C354.259 275.158 355.743 273.836 355.743 272.206C355.743 270.575 354.259 269.254 352.427 269.254C350.595 269.254 349.111 270.575 349.111 272.206C349.111 273.836 350.595 275.158 352.427 275.158Z" fill="url(#paint20_linear_1_824)"/>
<path d="M325.465 233.319C327.296 233.319 328.781 231.997 328.781 230.367C328.781 228.737 327.296 227.415 325.465 227.415C323.633 227.415 322.148 228.737 322.148 230.367C322.148 231.997 323.633 233.319 325.465 233.319Z" fill="url(#paint21_linear_1_824)"/>
<path d="M274.956 130.617C276.787 130.617 278.272 129.295 278.272 127.664C278.272 126.034 276.787 124.712 274.956 124.712C273.124 124.712 271.639 126.034 271.639 127.664C271.639 129.295 273.124 130.617 274.956 130.617Z" fill="url(#paint22_linear_1_824)"/>
<path d="M277.021 278.11C278.853 278.11 280.338 276.788 280.338 275.158C280.338 273.528 278.853 272.206 277.021 272.206C275.19 272.206 273.705 273.528 273.705 275.158C273.705 276.788 275.19 278.11 277.021 278.11Z" fill="url(#paint23_linear_1_824)"/>
<path d="M246.561 201.423C248.393 201.423 249.878 200.101 249.878 198.471C249.878 196.84 248.393 195.518 246.561 195.518C244.73 195.518 243.245 196.84 243.245 198.471C243.245 200.101 244.73 201.423 246.561 201.423Z" fill="url(#paint24_linear_1_824)"/>
<defs>
<linearGradient id="paint0_linear_1_824" x1="90.7903" y1="211.359" x2="385.902" y2="211.359" gradientUnits="userSpaceOnUse">
<stop stop-color="#302655"/>
<stop offset="1" stop-color="#895070" stop-opacity="0.8"/>
</linearGradient>
<linearGradient id="paint1_linear_1_824" x1="87.0232" y1="203.614" x2="384.063" y2="203.614" gradientUnits="userSpaceOnUse">
<stop stop-color="#302655"/>
<stop offset="1" stop-color="#895070" stop-opacity="0.8"/>
</linearGradient>
<linearGradient id="paint2_linear_1_824" x1="122.299" y1="185.473" x2="419.339" y2="185.473" gradientUnits="userSpaceOnUse">
<stop stop-color="#302655"/>
<stop offset="0.9986" stop-color="#895070" stop-opacity="0.8"/>
</linearGradient>
<linearGradient id="paint3_linear_1_824" x1="85.8612" y1="341.664" x2="106.981" y2="341.664" gradientUnits="userSpaceOnUse">
<stop stop-color="#302655"/>
<stop offset="1" stop-color="#895070" stop-opacity="0.8"/>
</linearGradient>
<linearGradient id="paint4_linear_1_824" x1="113.146" y1="341.664" x2="134.691" y2="341.664" gradientUnits="userSpaceOnUse">
<stop stop-color="#302655"/>
<stop offset="1" stop-color="#895070" stop-opacity="0.8"/>
</linearGradient>
<linearGradient id="paint5_linear_1_824" x1="138.62" y1="341.664" x2="166.945" y2="341.664" gradientUnits="userSpaceOnUse">
<stop stop-color="#302655"/>
<stop offset="1" stop-color="#895070" stop-opacity="0.8"/>
</linearGradient>
<linearGradient id="paint6_linear_1_824" x1="170.722" y1="347.994" x2="191.531" y2="347.994" gradientUnits="userSpaceOnUse">
<stop stop-color="#302655"/>
<stop offset="1" stop-color="#895070" stop-opacity="0.8"/>
</linearGradient>
<linearGradient id="paint7_linear_1_824" x1="199.2" y1="344.581" x2="209.413" y2="344.581" gradientUnits="userSpaceOnUse">
<stop stop-color="#302655"/>
<stop offset="1" stop-color="#895070" stop-opacity="0.8"/>
</linearGradient>
<linearGradient id="paint8_linear_1_824" x1="212.612" y1="344.666" x2="229.607" y2="344.666" gradientUnits="userSpaceOnUse">
<stop stop-color="#302655"/>
<stop offset="1" stop-color="#895070" stop-opacity="0.8"/>
</linearGradient>
<linearGradient id="paint9_linear_1_824" x1="237.045" y1="344.581" x2="270.496" y2="344.581" gradientUnits="userSpaceOnUse">
<stop stop-color="#302655"/>
<stop offset="1" stop-color="#895070" stop-opacity="0.8"/>
</linearGradient>
<linearGradient id="paint10_linear_1_824" x1="282.77" y1="341.664" x2="304.581" y2="341.664" gradientUnits="userSpaceOnUse">
<stop stop-color="#302655"/>
<stop offset="1" stop-color="#895070" stop-opacity="0.8"/>
</linearGradient>
<linearGradient id="paint11_linear_1_824" x1="305.738" y1="344.666" x2="322.732" y2="344.666" gradientUnits="userSpaceOnUse">
<stop stop-color="#302655"/>
<stop offset="1" stop-color="#895070" stop-opacity="0.8"/>
</linearGradient>
<linearGradient id="paint12_linear_1_824" x1="328.206" y1="344.666" x2="346.588" y2="344.666" gradientUnits="userSpaceOnUse">
<stop stop-color="#302655"/>
<stop offset="1" stop-color="#895070" stop-opacity="0.8"/>
</linearGradient>
<linearGradient id="paint13_linear_1_824" x1="349.016" y1="342.762" x2="362.852" y2="342.762" gradientUnits="userSpaceOnUse">
<stop stop-color="#302655"/>
<stop offset="1" stop-color="#895070" stop-opacity="0.8"/>
</linearGradient>
<linearGradient id="paint14_linear_1_824" x1="367.206" y1="340.944" x2="371.213" y2="340.944" gradientUnits="userSpaceOnUse">
<stop stop-color="#302655"/>
<stop offset="1" stop-color="#895070" stop-opacity="0.8"/>
</linearGradient>
<linearGradient id="paint15_linear_1_824" x1="376.146" y1="344.666" x2="394.527" y2="344.666" gradientUnits="userSpaceOnUse">
<stop stop-color="#302655"/>
<stop offset="1" stop-color="#895070" stop-opacity="0.8"/>
</linearGradient>
<linearGradient id="paint16_linear_1_824" x1="397.072" y1="344.666" x2="413.683" y2="344.666" gradientUnits="userSpaceOnUse">
<stop stop-color="#302655"/>
<stop offset="1" stop-color="#895070" stop-opacity="0.8"/>
</linearGradient>
<linearGradient id="paint17_linear_1_824" x1="90.0766" y1="261.351" x2="427.373" y2="261.351" gradientUnits="userSpaceOnUse">
<stop stop-color="#302655"/>
<stop offset="1" stop-color="#895070" stop-opacity="0.8"/>
</linearGradient>
<linearGradient id="paint18_linear_1_824" x1="284.643" y1="172.4" x2="291.276" y2="172.4" gradientUnits="userSpaceOnUse">
<stop stop-color="#302655"/>
<stop offset="1" stop-color="#895070" stop-opacity="0.8"/>
</linearGradient>
<linearGradient id="paint19_linear_1_824" x1="219.437" y1="180.719" x2="226.07" y2="180.719" gradientUnits="userSpaceOnUse">
<stop stop-color="#302655"/>
<stop offset="1" stop-color="#895070" stop-opacity="0.8"/>
</linearGradient>
<linearGradient id="paint20_linear_1_824" x1="349.112" y1="272.205" x2="355.745" y2="272.205" gradientUnits="userSpaceOnUse">
<stop stop-color="#302655"/>
<stop offset="1" stop-color="#895070" stop-opacity="0.8"/>
</linearGradient>
<linearGradient id="paint21_linear_1_824" x1="322.149" y1="230.367" x2="328.782" y2="230.367" gradientUnits="userSpaceOnUse">
<stop stop-color="#302655"/>
<stop offset="1" stop-color="#895070" stop-opacity="0.8"/>
</linearGradient>
<linearGradient id="paint22_linear_1_824" x1="271.637" y1="127.665" x2="278.27" y2="127.665" gradientUnits="userSpaceOnUse">
<stop stop-color="#302655"/>
<stop offset="1" stop-color="#895070" stop-opacity="0.8"/>
</linearGradient>
<linearGradient id="paint23_linear_1_824" x1="273.706" y1="275.157" x2="280.339" y2="275.157" gradientUnits="userSpaceOnUse">
<stop stop-color="#302655"/>
<stop offset="1" stop-color="#895070" stop-opacity="0.8"/>
</linearGradient>
<linearGradient id="paint24_linear_1_824" x1="243.244" y1="198.469" x2="249.877" y2="198.469" gradientUnits="userSpaceOnUse">
<stop stop-color="#302655"/>
<stop offset="1" stop-color="#895070" stop-opacity="0.8"/>
</linearGradient>
</defs>
</svg>
