<svg width="44" height="44" viewBox="0 0 44 44" fill="none" xmlns="http://www.w3.org/2000/svg">
<g id="devicon:react">
<g id="Group">
<path id="Vector" d="M22 25.9188C24.1643 25.9188 25.9187 24.1643 25.9187 22C25.9187 19.8357 24.1643 18.0813 22 18.0813C19.8357 18.0813 18.0812 19.8357 18.0812 22C18.0812 24.1643 19.8357 25.9188 22 25.9188Z" fill="#F138C0"/>
<path id="Vector_2" d="M36.8844 15.5375C36.1281 15.2625 35.3375 14.9875 34.5125 14.7469C34.7188 13.9219 34.8906 13.0969 35.0281 12.3062C35.75 7.76875 34.9594 4.57187 32.7594 3.33437C32.1063 2.95625 31.3844 2.78437 30.5594 2.78437C28.1531 2.78437 25.0938 4.57187 22 7.5625C18.9063 4.57187 15.8469 2.78437 13.4406 2.78437C12.6156 2.78437 11.8938 2.95625 11.2406 3.33437C9.04064 4.60625 8.25001 7.80312 8.97189 12.3062C9.10939 13.0969 9.28126 13.9219 9.48751 14.7469C8.66251 14.9875 7.87189 15.2281 7.11564 15.5375C2.81876 17.1875 0.481262 19.4562 0.481262 22C0.481262 24.5437 2.85314 26.8125 7.11564 28.4625C7.87189 28.7375 8.66251 29.0125 9.48751 29.2531C9.28126 30.0781 9.10939 30.9031 8.97189 31.6937C8.25001 36.2312 9.04064 39.4281 11.2406 40.6656C11.8938 41.0438 12.6156 41.2156 13.4406 41.2156C15.8813 41.2156 18.9406 39.4281 22 36.4375C25.0938 39.4281 28.1531 41.2156 30.5594 41.2156C31.3844 41.2156 32.1063 41.0438 32.7594 40.6656C34.9594 39.3937 35.75 36.1969 35.0281 31.6937C34.8906 30.9031 34.7188 30.0781 34.5125 29.2531C35.3375 29.0125 36.1281 28.7719 36.8844 28.4625C41.1813 26.8125 43.5188 24.5437 43.5188 22C43.5188 19.4562 41.1813 17.1875 36.8844 15.5375ZM31.7969 5.05312C33.2063 5.87812 33.6875 8.42187 33.1031 12.0312C33 12.7531 32.8281 13.5094 32.6219 14.3C30.8344 13.8875 28.9438 13.6125 26.95 13.4406C25.7813 11.7906 24.5781 10.3125 23.375 8.97187C25.9188 6.4625 28.4969 4.74375 30.5938 4.74375C31.0406 4.74375 31.4531 4.84687 31.7969 5.05312ZM27.9469 25.4375C27.3281 26.5375 26.6063 27.6375 25.85 28.7375C24.5781 28.8406 23.3063 28.875 22 28.875C20.6594 28.875 19.3875 28.8406 18.15 28.7375C17.3938 27.6375 16.7063 26.5375 16.0875 25.4375C15.4344 24.3031 14.8156 23.1344 14.2656 22C14.8156 20.8656 15.4344 19.6969 16.0875 18.5625C16.7063 17.4625 17.4281 16.3625 18.1844 15.2625C19.4563 15.1594 20.7281 15.125 22.0344 15.125C23.375 15.125 24.6469 15.1594 25.8844 15.2625C26.6406 16.3625 27.3281 17.4625 27.9469 18.5625C28.6 19.6969 29.2188 20.8656 29.7688 22C29.1844 23.1344 28.6 24.2687 27.9469 25.4375ZM30.8 24.3031C31.3156 25.5062 31.7281 26.675 32.1063 27.8438C30.9375 28.1187 29.7 28.325 28.3938 28.4969C28.8063 27.8438 29.2531 27.1562 29.6313 26.4344C30.0438 25.7125 30.4219 24.9906 30.8 24.3031ZM22 33.6188C21.175 32.725 20.3844 31.7625 19.6281 30.7656C20.4188 30.8 21.2094 30.8344 22 30.8344C22.7906 30.8344 23.5813 30.8 24.3719 30.7656C23.6156 31.7625 22.825 32.725 22 33.6188ZM15.6063 28.4625C14.3 28.2906 13.0625 28.0844 11.8938 27.8094C12.2719 26.675 12.6844 25.4719 13.2 24.2687C13.5781 24.9562 13.9563 25.6781 14.3688 26.3656C14.7813 27.1219 15.1938 27.775 15.6063 28.4625ZM13.2 19.6969C12.6844 18.4937 12.2719 17.325 11.8938 16.1562C13.0625 15.8812 14.3 15.675 15.6063 15.5031C15.1938 16.1562 14.7469 16.8437 14.3688 17.5656C13.9563 18.2875 13.5781 19.0094 13.2 19.6969ZM22 10.3812C22.825 11.275 23.6156 12.2375 24.3719 13.2344C23.5813 13.2 22.7906 13.1656 22 13.1656C21.2094 13.1656 20.4188 13.2 19.6281 13.2344C20.3844 12.2375 21.175 11.275 22 10.3812ZM29.6313 17.6L28.3938 15.5375C29.7 15.7094 30.9375 15.9156 32.1063 16.1906C31.7281 17.325 31.3156 18.5281 30.8 19.7313C30.4219 19.0094 30.0438 18.2875 29.6313 17.6ZM10.8969 12.0312C10.3125 8.42187 10.7938 5.87812 12.2031 5.05312C12.5469 4.84687 12.9594 4.74375 13.4063 4.74375C15.4688 4.74375 18.0469 6.42812 20.625 8.97187C19.4219 10.2781 18.2188 11.7906 17.05 13.4406C15.0563 13.6125 13.1656 13.9219 11.3781 14.3C11.1719 13.5094 11.0344 12.7531 10.8969 12.0312ZM2.40626 22C2.40626 20.3844 4.36564 18.6656 7.80314 17.3937C8.49064 17.1187 9.24689 16.8781 10.0031 16.6719C10.5531 18.3906 11.2406 20.2125 12.0656 22.0344C11.2406 23.8562 10.5188 25.6437 10.0031 27.3625C5.25939 25.9875 2.40626 23.925 2.40626 22ZM12.2031 38.9469C10.7938 38.1219 10.3125 35.5781 10.8969 31.9688C11 31.2469 11.1719 30.4906 11.3781 29.7C13.1656 30.1125 15.0563 30.3875 17.05 30.5594C18.2188 32.2094 19.4219 33.6875 20.625 35.0281C18.0813 37.5375 15.5031 39.2562 13.4063 39.2562C12.9594 39.2562 12.5469 39.1531 12.2031 38.9469ZM33.1031 31.9688C33.6875 35.5781 33.2063 38.1219 31.7969 38.9469C31.4531 39.1531 31.0406 39.2562 30.5938 39.2562C28.5313 39.2562 25.9531 37.5719 23.375 35.0281C24.5781 33.7219 25.7813 32.2094 26.95 30.5594C28.9438 30.3875 30.8344 30.0781 32.6219 29.7C32.8281 30.4906 32.9656 31.2469 33.1031 31.9688ZM36.1969 26.6063C35.5094 26.8813 34.7531 27.1219 33.9969 27.3281C33.4469 25.6094 32.7594 23.7875 31.9344 21.9656C32.7594 20.1438 33.4813 18.3563 33.9969 16.6375C38.7406 18.0125 41.5938 20.075 41.5938 22C41.5938 23.6156 39.6 25.3344 36.1969 26.6063Z" fill="#F138C0"/>
</g>
</g>
</svg>
