<svg width="319" height="54" viewBox="0 0 319 54" fill="none" xmlns="http://www.w3.org/2000/svg">
<rect width="319" height="54" rx="10" fill="#F0F3FE"/>
<path d="M100.19 23L102.15 13.2H102.388L105.496 21.348L105.37 21.306L111.544 13.2H111.81L109.85 23H109.57L111.446 13.606L111.572 13.634L105.468 21.614H105.3L102.234 13.592L102.346 13.606L100.47 23H100.19ZM113.432 23L114.888 15.762H115.168L113.81 22.524L120.768 15.762H121.048L119.592 23H119.312L120.67 16.238L113.712 23H113.432ZM122.88 23L124.336 15.762H124.616L123.916 19.22H129.362L130.062 15.762H130.342L128.886 23H128.606L129.32 19.472H123.874L123.16 23H122.88ZM132.178 23L133.634 15.762H133.914L132.514 22.748H137.876L139.276 15.762H139.556L138.1 23H132.178ZM138.688 24.876L139.094 22.888L139.178 23H137.82L137.876 22.748H139.402L138.968 24.876H138.688ZM141.613 23L143.069 15.762H143.349L141.991 22.524L148.949 15.762H149.229L147.773 23H147.493L148.851 16.238L141.893 23H141.613ZM154.603 23.042C153.399 23.0233 152.484 22.7713 151.859 22.286C151.234 21.7913 150.921 21.054 150.921 20.074C150.921 19.2247 151.14 18.4733 151.579 17.82C152.027 17.1667 152.638 16.6533 153.413 16.28C154.197 15.9067 155.088 15.72 156.087 15.72H156.115C157.328 15.7293 158.248 15.9813 158.873 16.476C159.498 16.9613 159.811 17.6987 159.811 18.688C159.811 19.5373 159.592 20.2887 159.153 20.942C158.714 21.5953 158.108 22.1087 157.333 22.482C156.558 22.8553 155.667 23.042 154.659 23.042H154.603ZM154.631 22.776H154.673C155.616 22.776 156.451 22.6033 157.179 22.258C157.907 21.9033 158.481 21.418 158.901 20.802C159.321 20.186 159.531 19.486 159.531 18.702C159.531 17.806 159.242 17.1293 158.663 16.672C158.084 16.2147 157.221 15.986 156.073 15.986H156.017C155.093 15.986 154.267 16.1633 153.539 16.518C152.811 16.8727 152.237 17.358 151.817 17.974C151.406 18.5807 151.201 19.276 151.201 20.06C151.201 20.984 151.5 21.6653 152.097 22.104C152.694 22.5333 153.539 22.7573 154.631 22.776ZM153.973 25.716L156.591 12.612H156.871L154.253 25.716H153.973ZM165.301 23.042C164.657 23.042 164.111 22.9253 163.663 22.692C163.215 22.4587 162.874 22.1273 162.641 21.698C162.408 21.2593 162.286 20.7367 162.277 20.13C162.277 19.29 162.445 18.5387 162.781 17.876C163.117 17.2133 163.588 16.6907 164.195 16.308C164.811 15.916 165.516 15.72 166.309 15.72C166.944 15.72 167.49 15.8413 167.947 16.084C168.404 16.3173 168.759 16.6533 169.011 17.092C169.263 17.5307 169.389 18.0533 169.389 18.66C169.389 19.2853 169.286 19.864 169.081 20.396C168.885 20.928 168.605 21.3947 168.241 21.796C167.877 22.188 167.443 22.496 166.939 22.72C166.444 22.9347 165.898 23.042 165.301 23.042ZM161.017 25.716L163.005 15.762H163.285L162.781 18.282L162.417 19.262L162.375 20.34L161.297 25.716H161.017ZM165.343 22.776C166.071 22.776 166.715 22.5987 167.275 22.244C167.844 21.8893 168.292 21.404 168.619 20.788C168.946 20.1627 169.109 19.458 169.109 18.674C169.109 17.8153 168.857 17.1527 168.353 16.686C167.858 16.2193 167.163 15.986 166.267 15.986C165.548 15.986 164.904 16.1633 164.335 16.518C163.766 16.8727 163.318 17.358 162.991 17.974C162.664 18.59 162.501 19.2947 162.501 20.088C162.501 20.9373 162.748 21.6 163.243 22.076C163.747 22.5427 164.447 22.776 165.343 22.776ZM174.212 23.042C173.587 23.042 173.041 22.9253 172.574 22.692C172.117 22.4493 171.762 22.1087 171.51 21.67C171.258 21.222 171.132 20.6993 171.132 20.102C171.132 19.4767 171.23 18.898 171.426 18.366C171.632 17.834 171.916 17.372 172.28 16.98C172.644 16.5787 173.074 16.2707 173.568 16.056C174.072 15.832 174.623 15.72 175.22 15.72C175.864 15.72 176.41 15.8367 176.858 16.07C177.306 16.3033 177.647 16.6393 177.88 17.078C178.123 17.5073 178.244 18.0253 178.244 18.632C178.254 19.4627 178.086 20.214 177.74 20.886C177.404 21.5487 176.933 22.076 176.326 22.468C175.72 22.8507 175.015 23.042 174.212 23.042ZM174.254 22.776C174.982 22.776 175.626 22.5987 176.186 22.244C176.756 21.8893 177.204 21.404 177.53 20.788C177.857 20.1627 178.02 19.458 178.02 18.674C178.02 17.8153 177.768 17.1527 177.264 16.686C176.77 16.2193 176.074 15.986 175.178 15.986C174.46 15.986 173.816 16.168 173.246 16.532C172.677 16.8867 172.229 17.372 171.902 17.988C171.576 18.604 171.412 19.304 171.412 20.088C171.412 20.9373 171.66 21.6 172.154 22.076C172.658 22.5427 173.358 22.776 174.254 22.776ZM177.236 23L177.74 20.48L178.104 19.5L178.146 18.422L178.678 15.762H178.958L177.516 23H177.236ZM104.628 40.042C103.676 40.042 102.873 39.8787 102.22 39.552C101.567 39.216 101.067 38.7493 100.722 38.152C100.386 37.5547 100.218 36.864 100.218 36.08C100.218 35.296 100.349 34.5493 100.61 33.84C100.881 33.1307 101.268 32.5007 101.772 31.95C102.276 31.39 102.887 30.9513 103.606 30.634C104.325 30.3167 105.137 30.158 106.042 30.158C106.994 30.158 107.797 30.326 108.45 30.662C109.113 30.9887 109.612 31.4507 109.948 32.048C110.284 32.636 110.452 33.3267 110.452 34.12C110.452 34.904 110.317 35.6507 110.046 36.36C109.785 37.0693 109.402 37.704 108.898 38.264C108.394 38.8147 107.783 39.2487 107.064 39.566C106.345 39.8833 105.533 40.042 104.628 40.042ZM104.656 39.776C105.496 39.776 106.252 39.6267 106.924 39.328C107.605 39.0293 108.184 38.6187 108.66 38.096C109.145 37.5733 109.519 36.9713 109.78 36.29C110.041 35.6087 110.172 34.8853 110.172 34.12C110.172 33.3827 110.013 32.7387 109.696 32.188C109.388 31.6373 108.926 31.208 108.31 30.9C107.694 30.5827 106.929 30.424 106.014 30.424C105.174 30.424 104.413 30.5733 103.732 30.872C103.06 31.1707 102.481 31.5813 101.996 32.104C101.52 32.6267 101.151 33.2287 100.89 33.91C100.629 34.5913 100.498 35.3147 100.498 36.08C100.498 36.808 100.652 37.452 100.96 38.012C101.277 38.5627 101.744 38.9967 102.36 39.314C102.976 39.622 103.741 39.776 104.656 39.776ZM115.872 40.042C115.228 40.042 114.682 39.9253 114.234 39.692C113.786 39.4587 113.446 39.1273 113.212 38.698C112.979 38.2593 112.858 37.7367 112.848 37.13C112.848 36.29 113.016 35.5387 113.352 34.876C113.688 34.2133 114.16 33.6907 114.766 33.308C115.382 32.916 116.087 32.72 116.88 32.72C117.515 32.72 118.061 32.8413 118.518 33.084C118.976 33.3173 119.33 33.6533 119.582 34.092C119.834 34.5307 119.96 35.0533 119.96 35.66C119.96 36.2853 119.858 36.864 119.652 37.396C119.456 37.928 119.176 38.3947 118.812 38.796C118.448 39.188 118.014 39.496 117.51 39.72C117.016 39.9347 116.47 40.042 115.872 40.042ZM111.588 42.716L113.576 32.762H113.856L113.352 35.282L112.988 36.262L112.946 37.34L111.868 42.716H111.588ZM115.914 39.776C116.642 39.776 117.286 39.5987 117.846 39.244C118.416 38.8893 118.864 38.404 119.19 37.788C119.517 37.1627 119.68 36.458 119.68 35.674C119.68 34.8153 119.428 34.1527 118.924 33.686C118.43 33.2193 117.734 32.986 116.838 32.986C116.12 32.986 115.476 33.1633 114.906 33.518C114.337 33.8727 113.889 34.358 113.562 34.974C113.236 35.59 113.072 36.2947 113.072 37.088C113.072 37.9373 113.32 38.6 113.814 39.076C114.318 39.5427 115.018 39.776 115.914 39.776ZM124.91 40.042C124.247 40.042 123.673 39.9253 123.188 39.692C122.712 39.4587 122.348 39.1227 122.096 38.684C121.844 38.236 121.718 37.6947 121.718 37.06C121.718 36.2387 121.886 35.5013 122.222 34.848C122.558 34.1947 123.015 33.6767 123.594 33.294C124.182 32.9113 124.844 32.72 125.582 32.72C126.198 32.72 126.725 32.8367 127.164 33.07C127.602 33.3033 127.938 33.6393 128.172 34.078C128.414 34.5167 128.536 35.044 128.536 35.66C128.536 35.7813 128.526 35.9073 128.508 36.038C128.498 36.1593 128.484 36.2713 128.466 36.374H121.942L121.998 36.108H128.34L128.228 36.262C128.34 35.5527 128.293 34.9553 128.088 34.47C127.882 33.9847 127.56 33.616 127.122 33.364C126.692 33.112 126.179 32.986 125.582 32.986C124.9 32.986 124.284 33.1633 123.734 33.518C123.192 33.8727 122.763 34.358 122.446 34.974C122.138 35.5807 121.984 36.276 121.984 37.06C121.984 37.9373 122.236 38.6093 122.74 39.076C123.244 39.5427 123.972 39.776 124.924 39.776C125.474 39.776 125.978 39.6827 126.436 39.496C126.893 39.3 127.266 39.034 127.556 38.698L127.724 38.88C127.434 39.2253 127.038 39.5053 126.534 39.72C126.039 39.9347 125.498 40.042 124.91 40.042ZM130.51 40L131.966 32.762H132.246L131.546 36.22H136.992L137.692 32.762H137.972L136.516 40H136.236L136.95 36.472H131.504L130.79 40H130.51ZM143.238 40.042C142.249 40.042 141.469 39.734 140.9 39.118C140.34 38.502 140.06 37.6433 140.06 36.542C140.06 35.7767 140.172 35.0393 140.396 34.33C140.629 33.6207 140.956 32.972 141.376 32.384C141.805 31.796 142.305 31.3013 142.874 30.9C143.453 30.4893 144.083 30.2093 144.764 30.06L147.984 29.332L148.04 29.612L144.82 30.34C144.045 30.5173 143.345 30.8627 142.72 31.376C142.095 31.8893 141.577 32.5193 141.166 33.266C140.755 34.0033 140.485 34.806 140.354 35.674L140.214 35.744C140.625 34.8293 141.194 34.1293 141.922 33.644C142.65 33.1493 143.467 32.902 144.372 32.902C145.287 32.902 146.001 33.1633 146.514 33.686C147.037 34.1993 147.298 34.9133 147.298 35.828C147.298 36.6307 147.116 37.3493 146.752 37.984C146.397 38.6187 145.912 39.1227 145.296 39.496C144.689 39.86 144.003 40.042 143.238 40.042ZM143.266 39.762C143.975 39.762 144.61 39.5893 145.17 39.244C145.739 38.8987 146.187 38.432 146.514 37.844C146.85 37.2467 147.018 36.5747 147.018 35.828C147.018 34.988 146.785 34.3393 146.318 33.882C145.861 33.4153 145.212 33.182 144.372 33.182C143.859 33.182 143.359 33.28 142.874 33.476C142.398 33.672 141.969 33.9333 141.586 34.26C141.203 34.5867 140.9 34.96 140.676 35.38C140.452 35.8 140.34 36.234 140.34 36.682C140.34 37.634 140.601 38.3853 141.124 38.936C141.656 39.4867 142.37 39.762 143.266 39.762ZM147.963 42.758C147.655 42.758 147.366 42.702 147.095 42.59C146.815 42.478 146.596 42.3193 146.437 42.114L146.661 41.904C146.82 42.1093 147.011 42.2587 147.235 42.352C147.459 42.4453 147.716 42.492 148.005 42.492C148.341 42.492 148.658 42.394 148.957 42.198C149.256 42.0113 149.578 41.6567 149.923 41.134L150.735 39.902L150.819 39.804L155.425 32.762H155.761L150.175 41.26C149.914 41.6427 149.666 41.9413 149.433 42.156C149.209 42.38 148.976 42.534 148.733 42.618C148.5 42.7113 148.243 42.758 147.963 42.758ZM150.749 40.154L148.817 32.762H149.111L150.931 39.804L150.749 40.154ZM160.133 40.042C159.489 40.042 158.943 39.9253 158.495 39.692C158.047 39.4587 157.706 39.1273 157.473 38.698C157.24 38.2593 157.118 37.7367 157.109 37.13C157.109 36.29 157.277 35.5387 157.613 34.876C157.949 34.2133 158.42 33.6907 159.027 33.308C159.643 32.916 160.348 32.72 161.141 32.72C161.776 32.72 162.322 32.8413 162.779 33.084C163.236 33.3173 163.591 33.6533 163.843 34.092C164.095 34.5307 164.221 35.0533 164.221 35.66C164.221 36.2853 164.118 36.864 163.913 37.396C163.717 37.928 163.437 38.3947 163.073 38.796C162.709 39.188 162.275 39.496 161.771 39.72C161.276 39.9347 160.73 40.042 160.133 40.042ZM155.849 42.716L157.837 32.762H158.117L157.613 35.282L157.249 36.262L157.207 37.34L156.129 42.716H155.849ZM160.175 39.776C160.903 39.776 161.547 39.5987 162.107 39.244C162.676 38.8893 163.124 38.404 163.451 37.788C163.778 37.1627 163.941 36.458 163.941 35.674C163.941 34.8153 163.689 34.1527 163.185 33.686C162.69 33.2193 161.995 32.986 161.099 32.986C160.38 32.986 159.736 33.1633 159.167 33.518C158.598 33.8727 158.15 34.358 157.823 34.974C157.496 35.59 157.333 36.2947 157.333 37.088C157.333 37.9373 157.58 38.6 158.075 39.076C158.579 39.5427 159.279 39.776 160.175 39.776ZM166.006 40L167.462 32.762H172.166L172.11 33.028H167.574L167.7 32.916L166.286 40H166.006ZM175.076 40.042C174.423 40.042 173.858 39.9253 173.382 39.692C172.916 39.4493 172.556 39.1087 172.304 38.67C172.052 38.222 171.926 37.6993 171.926 37.102C171.926 36.2527 172.104 35.5013 172.458 34.848C172.813 34.1853 173.298 33.6673 173.914 33.294C174.53 32.9113 175.235 32.72 176.028 32.72C176.635 32.72 177.158 32.8227 177.596 33.028C178.044 33.2333 178.385 33.5367 178.618 33.938L178.408 34.106C178.166 33.7233 177.844 33.4433 177.442 33.266C177.041 33.0793 176.565 32.986 176.014 32.986C175.277 32.986 174.619 33.168 174.04 33.532C173.471 33.8867 173.023 34.372 172.696 34.988C172.37 35.604 172.206 36.304 172.206 37.088C172.206 37.9373 172.458 38.6 172.962 39.076C173.466 39.5427 174.185 39.776 175.118 39.776C175.641 39.776 176.126 39.6827 176.574 39.496C177.022 39.3 177.391 39.0293 177.68 38.684L177.848 38.88C177.55 39.2533 177.153 39.5427 176.658 39.748C176.164 39.944 175.636 40.042 175.076 40.042ZM185.276 40L182.686 36.318L182.924 36.206L185.584 40H185.276ZM179.844 40L181.3 32.762H181.58L180.124 40H179.844ZM180.74 36.444L180.796 36.192H182.994L182.938 36.444H180.74ZM182.924 36.402L182.616 36.318L186.438 32.762H186.83L182.924 36.402ZM190.293 40.042C189.668 40.042 189.122 39.9253 188.655 39.692C188.198 39.4493 187.843 39.1087 187.591 38.67C187.339 38.222 187.213 37.6993 187.213 37.102C187.213 36.262 187.386 35.5153 187.731 34.862C188.086 34.1993 188.571 33.6767 189.187 33.294C189.803 32.9113 190.508 32.72 191.301 32.72C191.936 32.72 192.482 32.8413 192.939 33.084C193.397 33.3173 193.751 33.6533 194.003 34.092C194.255 34.5307 194.381 35.0533 194.381 35.66C194.381 36.5 194.204 37.2513 193.849 37.914C193.504 38.5673 193.023 39.0853 192.407 39.468C191.791 39.8507 191.087 40.042 190.293 40.042ZM190.335 39.776C191.063 39.776 191.707 39.5987 192.267 39.244C192.837 38.8893 193.285 38.404 193.611 37.788C193.938 37.1627 194.101 36.458 194.101 35.674C194.101 34.8153 193.849 34.1527 193.345 33.686C192.851 33.2193 192.155 32.986 191.259 32.986C190.541 32.986 189.897 33.168 189.327 33.532C188.758 33.8867 188.31 34.372 187.983 34.988C187.657 35.604 187.493 36.304 187.493 37.088C187.493 37.9373 187.741 38.6 188.235 39.076C188.739 39.5427 189.439 39.776 190.335 39.776ZM196.184 40L197.64 32.762H197.92L196.562 39.524L203.52 32.762H203.8L202.344 40H202.064L203.422 33.238L196.464 40H196.184ZM201.028 31.544C200.487 31.544 200.067 31.3947 199.768 31.096C199.47 30.7973 199.358 30.4193 199.432 29.962H199.684C199.628 30.3447 199.722 30.662 199.964 30.914C200.216 31.1567 200.571 31.278 201.028 31.278C201.476 31.278 201.868 31.1567 202.204 30.914C202.55 30.6713 202.769 30.354 202.862 29.962H203.114C203.012 30.438 202.769 30.8207 202.386 31.11C202.004 31.3993 201.551 31.544 201.028 31.544ZM212.212 40.042C211.587 40.042 211.041 39.9253 210.574 39.692C210.117 39.4493 209.762 39.1087 209.51 38.67C209.258 38.222 209.132 37.6993 209.132 37.102C209.132 36.262 209.305 35.5153 209.65 34.862C210.005 34.1993 210.49 33.6767 211.106 33.294C211.722 32.9113 212.427 32.72 213.22 32.72C213.855 32.72 214.401 32.8413 214.858 33.084C215.316 33.3173 215.67 33.6533 215.922 34.092C216.174 34.5307 216.3 35.0533 216.3 35.66C216.3 36.5 216.123 37.2513 215.768 37.914C215.423 38.5673 214.942 39.0853 214.326 39.468C213.71 39.8507 213.006 40.042 212.212 40.042ZM212.254 39.776C212.982 39.776 213.626 39.5987 214.186 39.244C214.756 38.8893 215.204 38.404 215.53 37.788C215.857 37.1627 216.02 36.458 216.02 35.674C216.02 34.8153 215.768 34.1527 215.264 33.686C214.77 33.2193 214.074 32.986 213.178 32.986C212.46 32.986 211.816 33.168 211.246 33.532C210.677 33.8867 210.229 34.372 209.902 34.988C209.576 35.604 209.412 36.304 209.412 37.088C209.412 37.9373 209.66 38.6 210.154 39.076C210.658 39.5427 211.358 39.776 212.254 39.776ZM221.533 40.042C220.544 40.042 219.764 39.734 219.195 39.118C218.635 38.502 218.355 37.6433 218.355 36.542C218.355 35.7767 218.467 35.0393 218.691 34.33C218.924 33.6207 219.251 32.972 219.671 32.384C220.1 31.796 220.6 31.3013 221.169 30.9C221.748 30.4893 222.378 30.2093 223.059 30.06L226.279 29.332L226.335 29.612L223.115 30.34C222.34 30.5173 221.64 30.8627 221.015 31.376C220.39 31.8893 219.872 32.5193 219.461 33.266C219.05 34.0033 218.78 34.806 218.649 35.674L218.509 35.744C218.92 34.8293 219.489 34.1293 220.217 33.644C220.945 33.1493 221.762 32.902 222.667 32.902C223.582 32.902 224.296 33.1633 224.809 33.686C225.332 34.1993 225.593 34.9133 225.593 35.828C225.593 36.6307 225.411 37.3493 225.047 37.984C224.692 38.6187 224.207 39.1227 223.591 39.496C222.984 39.86 222.298 40.042 221.533 40.042ZM221.561 39.762C222.27 39.762 222.905 39.5893 223.465 39.244C224.034 38.8987 224.482 38.432 224.809 37.844C225.145 37.2467 225.313 36.5747 225.313 35.828C225.313 34.988 225.08 34.3393 224.613 33.882C224.156 33.4153 223.507 33.182 222.667 33.182C222.154 33.182 221.654 33.28 221.169 33.476C220.693 33.672 220.264 33.9333 219.881 34.26C219.498 34.5867 219.195 34.96 218.971 35.38C218.747 35.8 218.635 36.234 218.635 36.682C218.635 37.634 218.896 38.3853 219.419 38.936C219.951 39.4867 220.665 39.762 221.561 39.762ZM225.875 39.972L225.959 39.72C226.034 39.7293 226.099 39.7433 226.155 39.762C226.211 39.7713 226.258 39.776 226.295 39.776C226.622 39.776 226.92 39.6267 227.191 39.328C227.471 39.02 227.742 38.5253 228.003 37.844C228.264 37.1533 228.54 36.2433 228.829 35.114L229.431 32.762H234.191L232.735 40H232.455L233.869 32.916L233.967 33.028H229.543L229.669 32.916L229.095 35.198C228.871 36.0753 228.652 36.822 228.437 37.438C228.232 38.054 228.017 38.5533 227.793 38.936C227.578 39.3187 227.35 39.5987 227.107 39.776C226.874 39.9533 226.617 40.042 226.337 40.042C226.262 40.042 226.192 40.0373 226.127 40.028C226.062 40.0187 225.978 40 225.875 39.972ZM239.067 40.042C238.442 40.042 237.896 39.9253 237.429 39.692C236.972 39.4493 236.617 39.1087 236.365 38.67C236.113 38.222 235.987 37.6993 235.987 37.102C235.987 36.4767 236.085 35.898 236.281 35.366C236.486 34.834 236.771 34.372 237.135 33.98C237.499 33.5787 237.928 33.2707 238.423 33.056C238.927 32.832 239.478 32.72 240.075 32.72C240.719 32.72 241.265 32.8367 241.713 33.07C242.161 33.3033 242.502 33.6393 242.735 34.078C242.978 34.5073 243.099 35.0253 243.099 35.632C243.108 36.4627 242.94 37.214 242.595 37.886C242.259 38.5487 241.788 39.076 241.181 39.468C240.574 39.8507 239.87 40.042 239.067 40.042ZM239.109 39.776C239.837 39.776 240.481 39.5987 241.041 39.244C241.61 38.8893 242.058 38.404 242.385 37.788C242.712 37.1627 242.875 36.458 242.875 35.674C242.875 34.8153 242.623 34.1527 242.119 33.686C241.624 33.2193 240.929 32.986 240.033 32.986C239.314 32.986 238.67 33.168 238.101 33.532C237.532 33.8867 237.084 34.372 236.757 34.988C236.43 35.604 236.267 36.304 236.267 37.088C236.267 37.9373 236.514 38.6 237.009 39.076C237.513 39.5427 238.213 39.776 239.109 39.776ZM242.091 40L242.595 37.48L242.959 36.5L243.001 35.422L243.533 32.762H243.813L242.371 40H242.091ZM248.777 40.042C248.123 40.042 247.559 39.9253 247.083 39.692C246.616 39.4493 246.257 39.1087 246.005 38.67C245.753 38.222 245.627 37.6993 245.627 37.102C245.627 36.2527 245.804 35.5013 246.159 34.848C246.513 34.1853 246.999 33.6673 247.615 33.294C248.231 32.9113 248.935 32.72 249.729 32.72C250.335 32.72 250.858 32.8227 251.297 33.028C251.745 33.2333 252.085 33.5367 252.319 33.938L252.109 34.106C251.866 33.7233 251.544 33.4433 251.143 33.266C250.741 33.0793 250.265 32.986 249.715 32.986C248.977 32.986 248.319 33.168 247.741 33.532C247.171 33.8867 246.723 34.372 246.397 34.988C246.07 35.604 245.907 36.304 245.907 37.088C245.907 37.9373 246.159 38.6 246.663 39.076C247.167 39.5427 247.885 39.776 248.819 39.776C249.341 39.776 249.827 39.6827 250.275 39.496C250.723 39.3 251.091 39.0293 251.381 38.684L251.549 38.88C251.25 39.2533 250.853 39.5427 250.359 39.748C249.864 39.944 249.337 40.042 248.777 40.042ZM254.599 40L256.013 32.916L256.111 33.028H253.059L253.115 32.762H259.275L259.219 33.028H256.167L256.293 32.916L254.879 40H254.599ZM259.424 40L260.88 32.762H261.16L259.802 39.524L266.76 32.762H267.04L265.584 40H265.304L266.662 33.238L259.704 40H259.424Z" fill="#466BE1"/>
<path fill-rule="evenodd" clip-rule="evenodd" d="M64.9685 32.7312C65.0438 33.5269 65.1838 34.3118 65.3885 35.086C66.1424 34.4516 66.9501 33.6989 67.4994 32.5591C67.7255 32.0968 67.8117 31.5591 67.8224 31.086C67.8332 30.3226 67.8655 29.7097 67.7578 29.086C67.6609 29.4194 67.4994 29.7957 67.2624 30.2151C66.487 31.5484 65.6254 32.2043 64.9685 32.7312ZM68.3179 21.7742L67.5532 18.5161C66.9286 18.6667 66.3039 18.8495 65.7116 19.0753C65.8193 20.0968 65.8516 21.129 65.787 22.2258C66.7347 21.9892 67.6501 21.8387 68.3179 21.7742ZM85.528 31.086C85.5388 31.5591 85.6249 32.0968 85.8511 32.5591C86.4111 33.7097 87.2188 34.4516 87.962 35.086C88.1666 34.3011 88.3066 33.5161 88.382 32.7312C87.7143 32.1935 86.8527 31.5376 86.088 30.2151C85.8511 29.7957 85.6788 29.4194 85.5926 29.086C85.4849 29.7097 85.5172 30.3226 85.528 31.086ZM85.7865 18.5054L85.011 21.7634C85.6895 21.828 86.605 21.9785 87.5527 22.2151C87.4989 21.1183 87.5204 20.086 87.6281 19.0645C87.0358 18.8387 86.4111 18.6559 85.7865 18.5054ZM70.7949 19.5806H69.3194V34.5376C69.3194 35.9785 70.4934 37.1398 71.9257 37.1398H73.7135C75.5228 37.1398 76.5137 37.914 76.5137 38.8602H76.826C76.826 37.9032 77.8168 37.1398 79.6261 37.1398H81.4139C82.8571 37.1398 84.0202 35.9677 84.0202 34.5376V19.5806H84.031H82.5232C83.2017 19.2473 83.6002 18.6667 83.3956 17.871C83.3633 17.6667 82.9325 16.8495 83.1371 16.1398C82.4478 16.6989 81.9847 17.6129 81.4785 18.8602C81.3385 19.1935 81.2416 19.3656 81.0262 19.2903C79.8308 18.9032 78.2799 18.6344 76.6644 18.6344C75.0597 18.6344 73.4981 18.914 72.3027 19.2903C72.0873 19.3548 71.9904 19.1828 71.8503 18.8602C71.3226 17.6022 70.8595 16.6989 70.1918 16.1398C70.3964 16.8602 69.9656 17.6774 69.9118 17.871C69.7179 18.6667 70.1164 19.2473 70.7949 19.5806ZM76.6321 35.871C75.9321 35.871 75.3613 35.3011 75.3613 34.6021C75.3613 34.5914 75.3613 34.5699 75.3613 34.5591C75.5013 34.7957 75.7598 34.957 76.0613 34.957C76.5137 34.957 76.8798 34.5914 76.8798 34.1398C76.8798 33.7957 76.6644 33.4946 76.3521 33.3763C76.4491 33.3548 76.5352 33.3441 76.6321 33.3441C77.3322 33.3441 77.8922 33.9032 77.903 34.6021C77.8922 35.3118 77.3322 35.871 76.6321 35.871ZM82.1355 35.871L76.966 31.8172L77.4937 31.3978L82.534 35.3656L82.1355 35.871ZM82.6309 27.3871C82.4909 27.6774 82.0924 27.7312 81.877 27.4946L81.5647 27.7634C82.3401 29.2903 82.1355 29.3011 82.954 30.871C82.114 31.3656 80.3369 32.6667 80.3369 32.6667C79.5184 31.2043 79.7123 31.1505 78.98 29.7849L71.2149 35.871L70.8164 35.3656L76.1475 31.172L74.3813 29.7742C73.6489 31.1505 73.832 31.2043 73.0243 32.6559C73.0243 32.6559 71.2472 31.3441 70.4072 30.8602C71.2257 29.2796 71.0211 29.2796 71.7965 27.7527L71.4626 27.4839C71.2472 27.7204 70.8488 27.6774 70.7088 27.3763L70.0303 25.9462L71.5811 26.2688C71.8934 26.3333 72.0442 26.6989 71.8611 26.9677L76.6644 30.7419L81.4678 26.9677C81.2847 26.7097 81.4247 26.3333 81.7478 26.2688L83.2986 25.9462L82.6309 27.3871ZM77.8707 26.8387V27.4409H76.9875V28.1398L77.5368 28.2903L77.4506 28.6021L76.9875 28.4731V29.0215H76.3414V28.2903L75.7921 28.1398L75.8783 27.828L76.3414 27.957V27.4409H75.4582V26.8387H76.3414V26.0108H76.9875V26.8387H77.8707ZM83.3094 25.1398H70.0303V20.2581H83.3094V25.1398ZM85.5495 17.8495L86.088 15.5376C84.0741 15.3011 83.6648 15.871 83.5571 16.1075C83.3525 16.5269 83.5356 17.1183 83.7079 17.5484C84.0202 17.5269 84.5264 17.5699 85.5495 17.8495ZM69.6533 17.5269C69.8149 17.1075 69.9979 16.5161 69.7933 16.0968C69.6856 15.8602 69.2764 15.3011 67.2732 15.5161L67.8117 17.828C68.824 17.5591 69.341 17.5161 69.6533 17.5269ZM74.7367 41.0323C74.769 40.1613 74.9736 39.6021 75.1028 39.3226C74.0905 38.6559 72.0657 38.129 70.4826 38.4839C71.4519 38.6774 72.7658 39.6021 74.0797 40.5591C74.3382 40.7419 74.5751 40.914 74.7367 41.0323ZM82.9109 40.2473C83.4279 40.1183 83.6864 39.8602 83.6756 39.4301C83.6756 39.0108 83.4925 38.9355 83.4279 38.914C82.9002 38.6989 81.6616 39.3763 80.7677 40.172C81.5324 40.3226 82.3186 40.3871 82.9109 40.2473ZM69.8902 38.871C69.7072 38.957 69.5995 39.1505 69.5672 39.4731C69.5456 39.6667 69.5995 39.8172 69.7287 39.9355C70.138 40.2903 71.2472 40.3441 72.7981 40.0968C71.8719 39.4624 70.8164 38.8172 70.1703 38.8172C70.0626 38.8172 69.9764 38.8387 69.8902 38.871ZM78.2691 39.3011C78.5599 39.5054 79.3892 39.8387 80.3154 40.0753C80.8 39.6129 81.3924 39.172 81.9524 38.8817C82.254 38.7204 82.6309 38.5591 82.9971 38.5161C81.4139 38.1075 79.3246 38.6237 78.2691 39.3011ZM76.7075 17.1935C78.2691 17.1935 79.7338 17.4516 81.0693 17.9247C81.4785 17.3118 82.4047 15.7419 82.4047 14.1505C82.4047 12.4516 80.1108 11.5161 78.8399 11.4731C78.8399 11.4731 76.6752 15.4194 76.6752 15.4301L74.5105 11.4731C73.2397 11.5161 70.9457 12.4516 70.9457 14.1505C70.9457 15.7527 71.8934 17.3548 72.3027 17.9462C73.6381 17.4624 75.1244 17.1935 76.7075 17.1935ZM78.043 9.87097L76.6752 8L75.2967 9.87097L76.6752 12.9785L78.043 9.87097ZM70.4395 22.4946C70.4395 22.4946 70.4826 22.5054 70.5257 22.5269C70.4718 22.6452 70.4718 22.6882 70.5041 22.7204C70.5364 22.7527 70.6764 22.7312 70.8595 22.5806C71.0534 22.5806 71.1288 22.5054 71.3119 22.3763C71.3657 22.3441 71.4196 22.3011 71.4949 22.2473C71.5596 22.2043 71.6565 22.2043 71.7103 22.2688C71.8073 22.3656 71.9473 22.5269 72.0873 22.6989C72.1196 22.7419 72.1519 22.7849 72.195 22.8387C72.2596 22.9247 72.3135 23.0108 72.3888 23.0968C72.2165 23.2473 71.9796 23.4409 71.7103 23.6344C71.5919 23.7312 71.4734 23.7849 71.2472 23.7957C71.1611 23.7957 71.0534 23.8925 71.0318 23.9892C71.0211 24.043 71.0426 24.0968 71.0965 24.1183C71.1503 24.1505 71.2472 24.1613 71.3334 24.1613C71.4626 24.1613 71.6134 24.1398 71.7103 24.129C71.7857 24.1183 72.4535 23.8387 72.9596 23.5699C73.0135 23.5914 73.0673 23.6237 73.132 23.6452C72.9596 23.7849 72.7335 23.9677 72.4858 24.1613C72.3673 24.2581 72.2488 24.3118 72.0227 24.3226C71.9365 24.3226 71.8288 24.4194 71.8073 24.5161C71.7965 24.5699 71.818 24.6237 71.8719 24.6452C71.9257 24.6774 72.0227 24.6882 72.1088 24.6882C72.2381 24.6882 72.3888 24.6667 72.4858 24.6559C72.5827 24.6344 73.9074 24.086 74.2089 23.7634C74.2951 23.7527 74.3813 23.7419 74.4674 23.7312C75.2536 23.6129 75.8352 23.4086 76.3414 23.2366C76.8583 23.0645 77.2999 22.9032 77.806 22.8925C78.5169 22.871 78.8615 23.2796 79.163 23.6344C79.2707 23.7634 79.3677 23.8817 79.4754 23.9785C79.5292 24.0215 79.5938 24.0645 79.6477 24.086L79.6908 24.1075C79.7985 24.172 79.8523 24.2258 79.8738 24.2796C79.8631 24.2903 79.8523 24.3011 79.8308 24.3118C79.7123 24.3656 79.6369 24.5161 79.6692 24.6344C79.6908 24.7204 79.7554 24.7634 79.8415 24.7634C79.8846 24.7634 80.1216 24.7634 80.2723 24.7527C80.3477 24.7527 80.4016 24.7097 80.4446 24.6452C80.52 24.5161 80.5093 24.3118 80.4554 24.1505C80.6062 24.1398 80.7354 24.1505 80.8216 24.2043C80.9293 24.2688 80.9831 24.3226 81.0047 24.3763C80.9939 24.3871 80.9831 24.3978 80.9616 24.4086C80.8431 24.4624 80.7677 24.6129 80.8 24.7312C80.8216 24.8172 80.8862 24.8602 80.9724 24.8602C81.0154 24.8602 81.2524 24.8602 81.4032 24.8495C81.4785 24.8495 81.5324 24.8065 81.5755 24.7419C81.6616 24.6021 81.6401 24.3656 81.5755 24.2043C81.4785 23.9677 81.2739 23.6559 81.0908 23.5484C80.9724 23.4839 80.9185 23.4839 80.8324 23.5054L80.8 23.5161C80.6708 23.5376 80.5847 23.1398 80.5523 23C80.5308 22.9247 80.4985 22.828 80.4554 22.7204C80.5847 22.7957 80.7677 22.8925 80.9939 23C81.3601 23.172 81.8447 23.3118 82.2647 23.3118C82.4263 23.3118 82.5771 23.2903 82.7063 23.2473C82.8571 23.1935 82.9648 23.0968 83.0186 22.9677C83.1156 22.6882 82.954 22.3548 82.9432 22.3226C82.9325 22.2903 82.9002 22.2688 82.8678 22.2688C82.8355 22.2581 82.8032 22.2688 82.7817 22.2903C82.7817 22.2903 82.5232 22.4731 81.8663 22.4516C81.4247 22.4301 80.9616 22.2903 80.4231 22.1183C80.0246 21.9892 79.5723 21.8495 79.0446 21.7312C77.7307 21.3871 76.0398 21.6237 74.7905 21.7957C74.4674 21.8387 74.1766 21.8817 73.9397 21.9032C73.6274 21.9355 73.3258 21.8495 73.0781 21.6667C72.9058 21.5376 72.7658 21.4301 72.6473 21.3226C72.4427 21.1505 72.2811 21.0215 72.1088 20.9355C72.0873 20.8817 72.0657 20.828 72.0442 20.7742C72.0011 20.6129 71.8934 20.5699 71.8396 20.5484C71.7534 20.5269 71.6673 20.5484 71.6026 20.6129C71.5488 20.6667 71.4949 20.7527 71.4411 20.828C71.3765 20.8387 71.3226 20.8495 71.2472 20.871C71.2365 20.8602 71.2149 20.8387 71.2042 20.828C71.0857 20.7097 70.978 20.7097 70.9241 20.7204C70.838 20.7419 70.7734 20.7957 70.7411 20.8817C70.698 21 70.6872 21.1828 70.698 21.3118C70.6441 21.4301 70.6226 21.5484 70.5903 21.6774C70.5687 21.7849 70.5472 21.8925 70.5041 22C70.418 22.2043 70.3641 22.3548 70.3641 22.3656C70.3641 22.4194 70.3857 22.4731 70.4395 22.4946ZM71.0642 21.6129C71.1288 21.5484 71.2365 21.5699 71.2903 21.5806C71.3011 21.6452 71.3119 21.7419 71.2472 21.8065C71.1826 21.871 71.0749 21.8495 71.0211 21.8387C71.0211 21.7957 70.9995 21.6774 71.0642 21.6129ZM87.0465 17.4731C87.1542 17.5269 87.2619 17.5376 87.3696 17.5269C87.585 17.8925 87.8327 18.3333 88.0804 18.7634C87.7358 21.4946 88.0589 23.6667 88.3928 25.9785C88.4035 26.0645 88.4143 26.1505 88.4251 26.2258C88.2958 26.0968 88.0481 25.828 87.9189 25.6989C87.3912 25.1398 87.8435 24.6989 87.6496 24.1398C87.5635 23.8925 87.4342 23.6989 87.3265 23.7527C87.2512 23.7849 87.1758 23.7527 87.1542 23.6667C87.0573 23.3118 86.8634 22.8602 86.2603 23.1075C86.2065 23.129 86.1419 23.1183 86.1096 23.0645C85.9265 22.7527 85.4741 22.6774 85.2372 22.914C84.9572 23.1935 85.0972 23.6882 85.3772 23.9032C85.4311 23.9355 85.4526 24.0215 85.4203 24.0753C85.0326 24.6882 85.6895 24.957 85.9803 25.0215C86.0557 25.043 86.088 25.1183 86.0665 25.2043C86.0234 25.3333 86.0234 25.5161 86.228 25.6559C86.5834 25.8925 87.0573 25.6559 87.3158 25.871C87.4666 25.9892 87.6819 26.2581 87.8973 26.5376C87.7681 26.6129 87.6604 26.6774 87.5527 26.7527C87.1327 27.0323 86.605 27.3548 86.2173 27.7634C85.6895 28.3871 85.8619 29.0968 86.3896 29.9677C86.9604 29.4946 87.6927 29.1183 88.1881 28.8065C89.2328 28.1398 90.7083 27.4946 91.4945 26.5376C92.1406 25.7419 92.0868 25.1075 92.173 23.1398C92.173 23.1183 92.173 23.086 92.173 23.0645C92.0222 23.4839 91.7314 23.9247 91.3437 24.3011C90.8913 24.7742 90.2129 25.2151 89.5344 25.6129C89.6744 25.2796 89.8144 24.957 89.9113 24.7419C89.9651 24.7312 90.019 24.7204 90.0621 24.6989C90.3636 24.5806 90.5036 24.2366 90.3852 23.9462C90.2667 23.6452 89.9221 23.5054 89.6313 23.6237C89.3297 23.7419 89.1897 24.086 89.3082 24.3763C89.3405 24.4409 89.3728 24.5054 89.4267 24.5591C89.319 24.871 89.1466 25.3118 88.9851 25.7312C88.8343 24.6989 88.6835 23.6452 88.6082 22.5484C89.5774 22.871 90.5252 23.3118 91.2037 23.914C91.796 23.2688 92.076 22.4516 91.8606 21.914C91.3437 21.1183 90.3959 20.3979 89.2436 19.7957C90.159 19.086 90.6221 19.5699 91.0529 19.3656C91.3329 19.2258 91.3545 19.0215 91.3114 18.871C91.2898 18.7742 91.3437 18.6882 91.4406 18.6774C91.8175 18.6237 92.5391 18.4086 92.2591 17.6452C92.2376 17.5699 92.2699 17.4946 92.3345 17.4516C92.7114 17.2366 92.9268 16.7097 92.6253 16.3656C92.3345 16.0215 91.7637 16.1505 91.5052 16.4946C91.4621 16.5591 91.376 16.5806 91.3006 16.5376C90.5898 16.1613 90.2344 16.7742 90.1052 17.1183C90.0728 17.2043 89.9651 17.2473 89.879 17.2043C89.7497 17.1398 89.5344 17.0968 89.3728 17.3548C89.0282 17.9355 89.3297 18.7849 88.6082 19.4301C88.6728 18.7204 88.7805 17.9892 88.9528 17.2366L88.9636 17.2258C89.0282 17.0108 89.0713 16.7419 89.1789 16.6022C89.6528 16.0108 90.4713 16.129 90.7513 15.7527C90.956 15.4731 90.8698 15.2688 90.7621 15.1398C90.6975 15.0645 90.7083 14.9462 90.7944 14.8817C91.1283 14.6452 91.8499 13.9462 91.0852 13.4624C91.0098 13.4194 91.0098 13.3118 91.0637 13.2366C91.3221 12.8387 91.2791 12.172 90.8052 12.0323C90.3959 11.9032 89.8574 12.2473 89.7713 12.7097C89.7497 12.7957 89.6851 12.8495 89.599 12.8495C88.7266 12.9032 88.6835 13.5269 88.7158 14.0108C88.7266 14.1183 88.6405 14.2043 88.5328 14.2043C88.3712 14.2043 88.1343 14.2688 88.1127 14.6129C88.0804 15.1935 88.382 15.7312 88.4251 16.4409C88.4358 16.5484 88.4143 16.6882 88.3928 16.828C88.2958 17.2366 88.2204 17.6237 88.1558 18.0108C88.0158 17.7634 87.8758 17.5054 87.7573 17.2688C87.7681 17.2473 87.7896 17.2151 87.8004 17.1935C87.9404 16.9032 87.8112 16.5484 87.5096 16.4086C87.2188 16.2688 86.8634 16.3979 86.7234 16.6989C86.6157 16.9785 86.745 17.3333 87.0465 17.4731ZM92.6145 31.0323C93.0776 30.7527 93.6269 30.3118 93.0561 29.5699C92.9915 29.4946 92.9915 29.4086 93.0561 29.3333C93.4222 28.9677 93.3469 28.3011 92.9484 28.0538C92.4745 27.7634 91.8391 28.1505 91.656 28.6237C91.6237 28.7097 91.5268 28.7634 91.4298 28.7419C90.3098 28.4839 90.5359 30.0538 90.1805 30.3441C89.5774 30.8817 90.019 31.7742 89.9221 32.2366C89.8359 32.6667 89.5236 33.0645 89.3405 33.3763C89.5882 31.6237 89.5236 30.0108 89.362 28.4624C89.1466 28.5806 88.942 28.6989 88.7374 28.8172C88.8343 29.7527 88.8774 30.6882 88.8559 31.6452C88.6512 31.3011 88.4574 30.9785 88.3174 30.7312C88.3497 30.6774 88.3712 30.6237 88.382 30.5591C88.4466 30.2473 88.2528 29.9355 87.9297 29.871C87.6173 29.8065 87.305 30 87.2404 30.3226C87.1758 30.6344 87.3696 30.9462 87.6927 31.0108C87.7466 31.0215 87.8112 31.0215 87.865 31.0215C88.1235 31.3871 88.4789 31.9355 88.802 32.4516C88.7158 33.5054 88.522 34.5914 88.1558 35.7849C87.7789 37.043 87.0788 38.0108 86.088 38.7097C86.2711 38.4624 86.3896 38.172 86.4434 37.8172C86.5619 37.0215 87.1004 37.3118 87.2188 36.6882C87.2727 36.4194 87.1004 36.3118 86.9711 36.2796C86.885 36.2581 86.8419 36.172 86.8742 36.086C87.0035 35.7204 87.1004 35.2151 86.4219 34.9892C86.3573 34.9677 86.3142 34.9032 86.3142 34.8387C86.3465 34.4516 85.9911 34.0645 85.6465 34.086C85.248 34.0968 85.0649 34.6129 85.1834 34.9892C85.2049 35.0538 85.1834 35.1398 85.1187 35.1613C84.4079 35.3763 84.828 36.086 85.0433 36.3441C85.0972 36.4086 85.0864 36.5054 85.011 36.5484C84.9033 36.6237 84.7849 36.7742 84.8926 37.0323C85.0649 37.4839 85.7218 37.2473 85.8942 37.5914C85.9588 37.7204 86.0019 38.6882 84.7849 39.3763C84.4833 39.5484 84.2356 39.6344 84.0094 39.6989V39.7097C83.9987 39.6989 83.9987 39.6989 83.9987 39.6989C83.9341 40.0645 83.6864 40.4194 82.9755 40.5914C81.7478 40.8925 79.4538 40.3441 78.3661 39.7849C78.4415 40.1075 78.5061 40.5591 78.4953 41.2151C78.4953 41.3226 78.1076 41.7097 78.1076 41.7097C78.1938 40.3548 77.9137 39.5484 77.8384 39.4194C77.8276 39.4086 77.8168 39.3871 77.806 39.3763C77.7737 39.3656 77.7522 39.3548 77.7199 39.3548C76.9983 39.3548 75.8783 39.3548 75.5767 39.3548C75.5444 39.3548 75.5013 39.3656 75.469 39.3871C75.3398 39.6237 75.0597 40.3118 75.0921 41.6452C75.0921 41.6452 74.7474 41.5054 74.0905 41.0323C73.8966 40.8925 73.4335 40.5484 73.1966 40.3763C71.8396 40.6237 70.1164 40.7957 69.4487 40.1828C69.2764 40.0323 69.1902 39.8387 69.1687 39.6237C69.1687 39.6022 69.1687 39.5806 69.1687 39.5699C68.9425 39.5054 68.7271 39.4409 68.5117 39.3548C67.3055 38.6452 67.3378 37.6882 67.4024 37.5699C67.5747 37.2258 68.2317 37.4624 68.404 37.0108C68.5009 36.7419 68.3932 36.6021 68.2855 36.5269C68.2209 36.4839 68.1994 36.3871 68.2532 36.3226C68.4686 36.0645 68.8887 35.3548 68.1778 35.1398C68.1132 35.1183 68.0917 35.0323 68.1132 34.9677C68.2317 34.5914 68.0594 34.086 67.6501 34.0645C67.3055 34.0538 66.9501 34.4409 66.9824 34.8172C66.9824 34.8925 66.9393 34.9462 66.8747 34.9677C66.1962 35.1935 66.3039 35.6989 66.4224 36.0645C66.4547 36.1505 66.4116 36.2366 66.3254 36.2581C66.1962 36.2903 66.0239 36.3979 66.0777 36.6667C66.207 37.2903 66.7347 37 66.8532 37.7957C66.907 38.1505 67.0255 38.4409 67.2086 38.6882C66.207 38 65.5285 37.0215 65.1408 35.7634C64.7854 34.5806 64.5915 33.4839 64.4946 32.4301C64.8177 31.9032 65.1731 31.3656 65.4316 31C65.4854 31 65.55 31 65.6039 30.9892C65.9162 30.9247 66.1208 30.6129 66.0562 30.3011C65.9916 29.9892 65.6793 29.7849 65.3669 29.8495C65.0546 29.914 64.85 30.2258 64.9146 30.5376C64.9254 30.6021 64.9469 30.6559 64.9792 30.7097C64.8392 30.9677 64.6454 31.2903 64.4407 31.6237C64.4084 30.6882 64.4623 29.7419 64.5484 28.8172C64.3546 28.6989 64.1499 28.5914 63.9453 28.4731C63.773 30.0323 63.7084 31.6452 63.9561 33.4086C63.773 33.086 63.4607 32.6989 63.3745 32.2688C63.2776 31.7957 63.7192 30.9032 63.116 30.3763C62.7606 30.0645 62.9868 28.5161 61.8667 28.7742C61.7698 28.7957 61.6729 28.7312 61.6406 28.6559C61.4575 28.1828 60.8221 27.7957 60.3482 28.086C59.939 28.3333 59.8743 28.9892 60.2405 29.3656C60.3051 29.4301 60.3051 29.5269 60.2513 29.6021C59.6805 30.3441 60.2297 30.7849 60.6928 31.0645C60.8005 31.129 60.8221 31.2473 60.7467 31.3333C60.6282 31.4624 60.5205 31.6989 60.8221 31.9355C61.3498 32.3548 62.1252 32.2473 62.6853 32.6452C63.1053 32.9462 63.3207 33.4516 63.6438 33.8817C63.4391 34.1075 63.2668 34.3441 63.116 34.6129C62.9114 35.1398 63.1053 35.7849 63.6976 36.5806C63.9022 36.3118 64.1715 36.0645 64.473 35.8172C64.4838 35.871 64.5053 35.9247 64.5161 35.9677C64.9254 37.3441 65.7008 38.4301 66.7885 39.1936C65.3669 38.7419 64.1823 38.0323 63.4607 36.8925C63.1268 36.4516 62.8899 36.043 62.7606 35.6559C62.6745 36.2796 62.7176 37.0323 62.9653 37.9892C63.6438 40.6989 66.1854 41.8387 69.5779 41.9893C70.2672 43.3226 72.335 42.7957 73.832 42.3763C74.4243 42.9677 74.909 44 74.909 44C75.5229 43.6989 75.9967 43.2043 76.3521 42.7312C76.8152 43.1183 77.6014 43.6129 78.8184 43.9462C78.8184 43.9462 78.8184 43.086 79.0769 42.2366C80.6277 42.7204 82.674 43.2688 83.4171 41.9893C86.9281 41.8817 89.5774 40.7527 90.2775 37.9785C90.5252 37.0108 90.5683 36.2688 90.4821 35.6452C90.3529 36.0323 90.1159 36.4409 89.7821 36.8817C89.0605 38.0215 87.8543 38.7419 86.4219 39.1828C87.5204 38.4086 88.3174 37.3226 88.7266 35.9677C88.7482 35.914 88.7589 35.8495 88.7805 35.7957C89.0713 36.043 89.3405 36.2903 89.5559 36.5591C90.1482 35.7527 90.3421 35.1075 90.1375 34.5914C89.9975 34.3226 89.8144 34.0753 89.6097 33.8602C89.9221 33.4301 90.1375 32.9355 90.5575 32.6452C91.1283 32.2473 91.9037 32.3548 92.4207 31.9355C92.7222 31.6989 92.6145 31.4731 92.496 31.3333C92.4853 31.2258 92.5068 31.0968 92.6145 31.0323ZM61.0052 17.4624C61.0698 17.5054 61.1021 17.5806 61.0806 17.6559C60.8113 18.4194 61.5329 18.6344 61.8991 18.6882C61.996 18.6989 62.0498 18.7957 62.0283 18.8817C61.996 19.0323 62.0068 19.2366 62.2868 19.3763C62.7176 19.5914 63.1807 19.1075 64.0853 19.7957C62.9437 20.3871 61.996 21.1183 61.479 21.9032C61.2636 22.4516 61.5437 23.2688 62.136 23.9032C62.8145 23.3118 63.7515 22.8602 64.7315 22.5376C64.6561 23.6452 64.5053 24.6989 64.3546 25.7419C64.193 25.3226 64.0207 24.8817 63.913 24.5699C63.9561 24.5161 63.9992 24.4624 64.0315 24.3871C64.1499 24.086 64.0099 23.7527 63.7084 23.6344C63.4068 23.5161 63.073 23.6559 62.9545 23.957C62.836 24.2581 62.976 24.5914 63.2776 24.7097C63.3314 24.7312 63.3853 24.7419 63.4284 24.7527C63.5361 24.9677 63.6653 25.2796 63.8053 25.6129C63.116 25.2151 62.4483 24.7742 61.996 24.3011C61.6083 23.9247 61.3283 23.4839 61.1667 23.0645C61.1667 23.086 61.1667 23.1183 61.1667 23.1398C61.2529 25.1075 61.199 25.7419 61.8452 26.5376C62.6314 27.5054 64.1069 28.1398 65.1515 28.8065C65.6577 29.1183 66.3901 29.4946 66.9501 29.9677C67.4778 29.086 67.6501 28.3763 67.1224 27.7634C66.7347 27.3548 66.207 27.0323 65.787 26.7527C65.6793 26.6774 65.55 26.6021 65.4208 26.5269C65.6362 26.2366 65.8623 25.957 66.0239 25.828C66.2824 25.6237 66.7562 25.8495 67.1116 25.6129C67.3163 25.4731 67.3163 25.2903 67.2732 25.1613C67.2516 25.086 67.284 25 67.3593 24.9785C67.6501 24.914 68.3071 24.6344 67.9194 24.0323C67.8871 23.9785 67.9086 23.8925 67.9625 23.8602C68.2425 23.6559 68.3825 23.1505 68.1025 22.8817C67.8655 22.6559 67.4132 22.7204 67.2301 23.0323C67.1978 23.086 67.1332 23.1075 67.0793 23.0753C66.487 22.8172 66.2931 23.2688 66.1854 23.6344C66.1639 23.7204 66.0885 23.7527 66.0131 23.7204C65.9054 23.6667 65.7654 23.8495 65.69 24.1075C65.4962 24.6667 65.9593 25.1075 65.4208 25.6667C65.2915 25.8064 65.0438 26.0645 64.9146 26.1935C64.9254 26.1075 64.9361 26.0323 64.9469 25.9462C65.2808 23.6559 65.6039 21.4624 65.2592 18.7312C65.4962 18.3011 65.7439 17.8602 65.97 17.4946C66.0777 17.5054 66.1854 17.4946 66.2931 17.4409C66.5839 17.3011 66.7132 16.957 66.5839 16.6559C66.4439 16.3656 66.0993 16.2366 65.7977 16.3656C65.4962 16.4946 65.3777 16.8495 65.5069 17.1505C65.5177 17.172 65.5392 17.2043 65.55 17.2258C65.4316 17.4516 65.2808 17.7097 65.1515 17.9677C65.0869 17.5806 65.0115 17.1828 64.9146 16.7849C64.8931 16.6452 64.8715 16.5161 64.8823 16.3978C64.9254 15.6774 65.2269 15.1398 65.1946 14.5699C65.1731 14.2258 64.9361 14.1613 64.7746 14.1613C64.6669 14.1613 64.5915 14.0753 64.5915 13.9677C64.6238 13.4946 64.5807 12.8602 63.7084 12.8065C63.6222 12.8065 63.5468 12.7419 63.5361 12.6667C63.4499 12.2043 62.9007 11.8602 62.5022 11.9892C62.0283 12.1398 61.9852 12.7957 62.2437 13.1935C62.2868 13.2688 62.2868 13.3763 62.2222 13.4194C61.4575 13.8925 62.1791 14.5914 62.5129 14.8387C62.5991 14.9032 62.6099 15.0215 62.5452 15.0968C62.4375 15.2258 62.3514 15.4301 62.556 15.7097C62.836 16.0968 63.6545 15.9677 64.1284 16.5591C64.2361 16.6989 64.2684 16.9677 64.3438 17.1828C64.3438 17.1935 64.3546 17.1935 64.3546 17.1935C64.5269 17.957 64.6346 18.6882 64.6992 19.3871C63.9776 18.7312 64.2792 17.8817 63.9346 17.3118C63.773 17.043 63.5576 17.086 63.4284 17.1613C63.353 17.2043 63.2453 17.172 63.213 17.0753C63.073 16.7312 62.7283 16.1183 62.0175 16.4946C61.9529 16.5269 61.8667 16.5161 61.8129 16.4516C61.5652 16.1613 61.0052 16.043 60.7036 16.3763C60.4236 16.7204 60.6282 17.2473 61.0052 17.4624ZM71.9042 29.3011C71.9904 29.3548 72.0334 29.4409 72.055 29.4839C71.9904 29.5376 71.9365 29.6021 71.8827 29.6882C71.8288 29.7742 71.8073 29.8495 71.7857 29.9355C71.7427 29.9355 71.635 29.9355 71.5488 29.8925C71.4626 29.8387 71.4842 29.6989 71.5165 29.6237L71.7857 29.6344L71.6457 29.3979C71.6996 29.3333 71.818 29.2473 71.9042 29.3011ZM71.5488 29.3871L71.6673 29.5484L71.4626 29.5269L71.4088 29.3979L71.5488 29.3871ZM73.455 30.6237C73.0243 30.8602 73.0996 30.9032 72.9058 30.4946C72.8735 30.5054 72.8304 30.5161 72.7873 30.5269C72.8196 31.0968 72.5719 31.3333 71.4519 30.8602L72.2273 30.3333C72.2273 30.3333 72.3565 30.6344 72.4427 30.4839C72.5827 30.2473 71.9257 30.0753 71.9257 30.4194C71.9257 30.4194 71.635 30.3226 71.775 30.0538C71.9365 29.7527 72.3458 29.957 72.3458 29.957C72.3458 29.957 71.9688 29.6989 72.1627 29.4086C72.335 29.1505 72.5612 29.3656 72.5612 29.3656C72.2488 29.5269 72.7119 30.0215 72.8627 29.7849C72.9489 29.6344 72.6258 29.6667 72.6258 29.6667L72.7227 28.7312C73.6704 29.4946 73.5735 29.8172 73.0566 30.0645C73.0673 30.1075 73.0781 30.1505 73.0781 30.1935C73.5304 30.172 73.4658 30.1398 73.455 30.6237ZM80.5631 30.5269C80.5093 30.5161 80.477 30.5054 80.4446 30.4946C80.2616 30.9032 80.3262 30.8602 79.8954 30.6237C79.8954 30.1398 79.82 30.172 80.2723 30.2043C80.2723 30.172 80.2831 30.129 80.2939 30.0753C79.7769 29.828 79.68 29.5054 80.6277 28.7419L80.7247 29.6774C80.7247 29.6774 80.3908 29.6452 80.4877 29.7957C80.6277 30.0323 81.1016 29.5376 80.7893 29.3763C80.7893 29.3763 81.0154 29.1613 81.1878 29.4194C81.3708 29.6989 81.0047 29.9677 81.0047 29.9677C81.0047 29.9677 81.4139 29.7634 81.5755 30.0645C81.7155 30.3333 81.4247 30.4301 81.4247 30.4301C81.4247 30.0753 80.7677 30.2581 80.9077 30.4946C80.9939 30.6452 81.1231 30.3441 81.1231 30.3441L81.8986 30.871C80.7677 31.3333 80.5308 31.0968 80.5631 30.5269ZM81.9416 29.3979L81.8878 29.5269L81.6832 29.5484L81.8016 29.3871L81.9416 29.3979ZM81.6939 29.3979L81.5539 29.6344L81.8232 29.6237C81.8555 29.6882 81.877 29.8387 81.7909 29.8925C81.7047 29.9462 81.597 29.9462 81.5539 29.9355C81.5324 29.8495 81.5001 29.7634 81.457 29.6882C81.4139 29.6129 81.3493 29.5376 81.2847 29.4839C81.3062 29.4409 81.3601 29.3441 81.4355 29.3011C81.5324 29.2473 81.6509 29.3333 81.6939 29.3979Z" fill="#466BE1"/>
</svg>
