<svg width="41" height="41" viewBox="0 0 41 41" fill="none" xmlns="http://www.w3.org/2000/svg">
<g clip-path="url(#clip0_16_3561)">
<path d="M19.4648 15.5303C23.7476 15.5303 27.2196 12.0583 27.2196 7.77549C27.2196 3.49263 23.7476 0.0206909 19.4648 0.0206909C15.1819 0.0206909 11.71 3.49263 11.71 7.77549C11.71 12.0583 15.1819 15.5303 19.4648 15.5303Z" fill="#0F0F64"/>
<path d="M19.1952 15.5355C23.4781 15.5355 26.95 12.0635 26.95 7.78068C26.95 3.49782 23.4781 0.0258789 19.1952 0.0258789C14.9124 0.0258789 11.4404 3.49782 11.4404 7.78068C11.4404 12.0635 14.9124 15.5355 19.1952 15.5355Z" fill="#0F0F65"/>
<path d="M18.9316 15.5459C23.2144 15.5459 26.6864 12.0739 26.6864 7.79105C26.6864 3.5082 23.2144 0.0362549 18.9316 0.0362549C14.6487 0.0362549 11.1768 3.5082 11.1768 7.79105C11.1768 12.0739 14.6487 15.5459 18.9316 15.5459Z" fill="#0F0F65"/>
<path d="M18.662 15.5614C22.9449 15.5614 26.4168 12.0894 26.4168 7.80656C26.4168 3.5237 22.9449 0.0517578 18.662 0.0517578C14.3792 0.0517578 10.9072 3.5237 10.9072 7.80656C10.9072 12.0894 14.3792 15.5614 18.662 15.5614Z" fill="#0F1066"/>
<path d="M18.3984 15.582C22.6812 15.582 26.1532 12.1101 26.1532 7.82725C26.1532 3.54439 22.6812 0.0724487 18.3984 0.0724487C14.1155 0.0724487 10.6436 3.54439 10.6436 7.82725C10.6436 12.1101 14.1155 15.582 18.3984 15.582Z" fill="#0F1067"/>
<path d="M18.1396 15.6131C22.4224 15.6131 25.8944 12.1412 25.8944 7.85831C25.8944 3.57546 22.4224 0.103516 18.1396 0.103516C13.8567 0.103516 10.3848 3.57546 10.3848 7.85831C10.3848 12.1412 13.8567 15.6131 18.1396 15.6131Z" fill="#0E1067"/>
<path d="M17.8754 15.6442C22.1583 15.6442 25.6302 12.1722 25.6302 7.88938C25.6302 3.60652 22.1583 0.134583 17.8754 0.134583C13.5925 0.134583 10.1206 3.60652 10.1206 7.88938C10.1206 12.1722 13.5925 15.6442 17.8754 15.6442Z" fill="#0E1068"/>
<path d="M17.6166 15.6856C21.8995 15.6856 25.3714 12.2137 25.3714 7.93082C25.3714 3.64797 21.8995 0.176025 17.6166 0.176025C13.3338 0.176025 9.86182 3.64797 9.86182 7.93082C9.86182 12.2137 13.3338 15.6856 17.6166 15.6856Z" fill="#0E1169"/>
<path d="M17.3627 15.7322C21.6456 15.7322 25.1175 12.2603 25.1175 7.97739C25.1175 3.69454 21.6456 0.222595 17.3627 0.222595C13.0799 0.222595 9.60791 3.69454 9.60791 7.97739C9.60791 12.2603 13.0799 15.7322 17.3627 15.7322Z" fill="#0E116A"/>
<path d="M17.1039 15.7839C21.3868 15.7839 24.8587 12.312 24.8587 8.02915C24.8587 3.74629 21.3868 0.274353 17.1039 0.274353C12.8211 0.274353 9.34912 3.74629 9.34912 8.02915C9.34912 12.312 12.8211 15.7839 17.1039 15.7839Z" fill="#0E116A"/>
<path d="M16.8554 15.8409C21.1382 15.8409 24.6102 12.369 24.6102 8.0861C24.6102 3.80324 21.1382 0.331299 16.8554 0.331299C12.5725 0.331299 9.10059 3.80324 9.10059 8.0861C9.10059 12.369 12.5725 15.8409 16.8554 15.8409Z" fill="#0E116B"/>
<path d="M16.602 15.9082C20.8848 15.9082 24.3568 12.4363 24.3568 8.15342C24.3568 3.87056 20.8848 0.398621 16.602 0.398621C12.3191 0.398621 8.84717 3.87056 8.84717 8.15342C8.84717 12.4363 12.3191 15.9082 16.602 15.9082Z" fill="#0E126C"/>
<path d="M16.3534 15.9755C20.6363 15.9755 24.1082 12.5035 24.1082 8.22068C24.1082 3.93782 20.6363 0.465881 16.3534 0.465881C12.0706 0.465881 8.59863 3.93782 8.59863 8.22068C8.59863 12.5035 12.0706 15.9755 16.3534 15.9755Z" fill="#0E126C"/>
<path d="M16.1049 16.048C20.3878 16.048 23.8597 12.576 23.8597 8.29319C23.8597 4.01033 20.3878 0.538391 16.1049 0.538391C11.822 0.538391 8.3501 4.01033 8.3501 8.29319C8.3501 12.576 11.822 16.048 16.1049 16.048Z" fill="#0E126D"/>
<path d="M15.8617 16.1308C20.1446 16.1308 23.6165 12.6589 23.6165 8.37601C23.6165 4.09316 20.1446 0.621216 15.8617 0.621216C11.5789 0.621216 8.10693 4.09316 8.10693 8.37601C8.10693 12.6589 11.5789 16.1308 15.8617 16.1308Z" fill="#0E126E"/>
<path d="M15.6181 16.2136C19.9009 16.2136 23.3729 12.7417 23.3729 8.45884C23.3729 4.17598 19.9009 0.704041 15.6181 0.704041C11.3352 0.704041 7.86328 4.17598 7.86328 8.45884C7.86328 12.7417 11.3352 16.2136 15.6181 16.2136Z" fill="#0D136E"/>
<path d="M15.3803 16.3068C19.6631 16.3068 23.1351 12.8349 23.1351 8.55204C23.1351 4.26918 19.6631 0.797241 15.3803 0.797241C11.0974 0.797241 7.62549 4.26918 7.62549 8.55204C7.62549 12.8349 11.0974 16.3068 15.3803 16.3068Z" fill="#0D136F"/>
<path d="M15.142 16.4C19.4249 16.4 22.8968 12.928 22.8968 8.64518C22.8968 4.36232 19.4249 0.890381 15.142 0.890381C10.8591 0.890381 7.38721 4.36232 7.38721 8.64518C7.38721 12.928 10.8591 16.4 15.142 16.4Z" fill="#0D1370"/>
<path d="M14.9037 16.5036C19.1866 16.5036 22.6585 13.0316 22.6585 8.74876C22.6585 4.4659 19.1866 0.993958 14.9037 0.993958C10.6209 0.993958 7.14893 4.4659 7.14893 8.74876C7.14893 13.0316 10.6209 16.5036 14.9037 16.5036Z" fill="#0D1371"/>
<path d="M14.6708 16.6071C18.9537 16.6071 22.4256 13.1351 22.4256 8.85227C22.4256 4.56942 18.9537 1.09747 14.6708 1.09747C10.388 1.09747 6.91602 4.56942 6.91602 8.85227C6.91602 13.1351 10.388 16.6071 14.6708 16.6071Z" fill="#0D1471"/>
<path d="M14.4433 16.721C18.7261 16.721 22.1981 13.249 22.1981 8.96616C22.1981 4.68331 18.7261 1.21136 14.4433 1.21136C10.1604 1.21136 6.68848 4.68331 6.68848 8.96616C6.68848 13.249 10.1604 16.721 14.4433 16.721Z" fill="#0D1472"/>
<path d="M14.2152 16.8349C18.4981 16.8349 21.97 13.3629 21.97 9.08006C21.97 4.7972 18.4981 1.32526 14.2152 1.32526C9.93239 1.32526 6.46045 4.7972 6.46045 9.08006C6.46045 13.3629 9.93239 16.8349 14.2152 16.8349Z" fill="#0D1473"/>
<path d="M13.9877 16.9539C18.2706 16.9539 21.7425 13.482 21.7425 9.19913C21.7425 4.91628 18.2706 1.44434 13.9877 1.44434C9.70485 1.44434 6.23291 4.91628 6.23291 9.19913C6.23291 13.482 9.70485 16.9539 13.9877 16.9539Z" fill="#0D1473"/>
<path d="M13.7704 17.0833C18.0533 17.0833 21.5252 13.6114 21.5252 9.32853C21.5252 5.04567 18.0533 1.57373 13.7704 1.57373C9.48757 1.57373 6.01562 5.04567 6.01562 9.32853C6.01562 13.6114 9.48757 17.0833 13.7704 17.0833Z" fill="#0D1574"/>
<path d="M13.5478 17.2128C17.8306 17.2128 21.3026 13.7408 21.3026 9.45798C21.3026 5.17513 17.8306 1.70319 13.5478 1.70319C9.26491 1.70319 5.79297 5.17513 5.79297 9.45798C5.79297 13.7408 9.26491 17.2128 13.5478 17.2128Z" fill="#0C1575"/>
<path d="M13.3354 17.3474C17.6182 17.3474 21.0902 13.8754 21.0902 9.59257C21.0902 5.30971 17.6182 1.83777 13.3354 1.83777C9.05251 1.83777 5.58057 5.30971 5.58057 9.59257C5.58057 13.8754 9.05251 17.3474 13.3354 17.3474Z" fill="#0C1575"/>
<path d="M13.1181 17.4819C17.4009 17.4819 20.8729 14.01 20.8729 9.72715C20.8729 5.44429 17.4009 1.97235 13.1181 1.97235C8.83522 1.97235 5.36328 5.44429 5.36328 9.72715C5.36328 14.01 8.83522 17.4819 13.1181 17.4819Z" fill="#0C1576"/>
<path d="M12.911 17.6269C17.1939 17.6269 20.6658 14.155 20.6658 9.87211C20.6658 5.58925 17.1939 2.11731 12.911 2.11731C8.62819 2.11731 5.15625 5.58925 5.15625 9.87211C5.15625 14.155 8.62819 17.6269 12.911 17.6269Z" fill="#0C1677"/>
<path d="M12.704 17.777C16.9869 17.777 20.4588 14.305 20.4588 10.0222C20.4588 5.73934 16.9869 2.2674 12.704 2.2674C8.42116 2.2674 4.94922 5.73934 4.94922 10.0222C4.94922 14.305 8.42116 17.777 12.704 17.777Z" fill="#0C1678"/>
<path d="M12.5019 17.9271C16.7847 17.9271 20.2567 14.4552 20.2567 10.1723C20.2567 5.88948 16.7847 2.41754 12.5019 2.41754C8.21901 2.41754 4.74707 5.88948 4.74707 10.1723C4.74707 14.4552 8.21901 17.9271 12.5019 17.9271Z" fill="#0C1678"/>
<path d="M12.3002 18.0825C16.5831 18.0825 20.055 14.6105 20.055 10.3277C20.055 6.04482 16.5831 2.57288 12.3002 2.57288C8.01735 2.57288 4.54541 6.04482 4.54541 10.3277C4.54541 14.6105 8.01735 18.0825 12.3002 18.0825Z" fill="#0C1679"/>
<path d="M12.1034 18.2429C16.3863 18.2429 19.8582 14.771 19.8582 10.4881C19.8582 6.20528 16.3863 2.73334 12.1034 2.73334C7.82057 2.73334 4.34863 6.20528 4.34863 10.4881C4.34863 14.771 7.82057 18.2429 12.1034 18.2429Z" fill="#0C177A"/>
<path d="M11.9115 18.4034C16.1944 18.4034 19.6663 14.9315 19.6663 10.6486C19.6663 6.36574 16.1944 2.8938 11.9115 2.8938C7.62868 2.8938 4.15674 6.36574 4.15674 10.6486C4.15674 14.9315 7.62868 18.4034 11.9115 18.4034Z" fill="#0C177A"/>
<path d="M11.7201 18.5742C16.003 18.5742 19.4749 15.1023 19.4749 10.8194C19.4749 6.53658 16.003 3.06464 11.7201 3.06464C7.43727 3.06464 3.96533 6.53658 3.96533 10.8194C3.96533 15.1023 7.43727 18.5742 11.7201 18.5742Z" fill="#0C177B"/>
<path d="M11.5336 18.7451C15.8165 18.7451 19.2884 15.2731 19.2884 10.9903C19.2884 6.70741 15.8165 3.23547 11.5336 3.23547C7.25075 3.23547 3.77881 6.70741 3.77881 10.9903C3.77881 15.2731 7.25075 18.7451 11.5336 18.7451Z" fill="#0B177C"/>
<path d="M11.3476 18.9211C15.6304 18.9211 19.1024 15.4492 19.1024 11.1663C19.1024 6.88344 15.6304 3.4115 11.3476 3.4115C7.06471 3.4115 3.59277 6.88344 3.59277 11.1663C3.59277 15.4492 7.06471 18.9211 11.3476 18.9211Z" fill="#0B187C"/>
<path d="M11.1713 19.0971C15.4542 19.0971 18.9261 15.6252 18.9261 11.3423C18.9261 7.05947 15.4542 3.58752 11.1713 3.58752C6.88845 3.58752 3.4165 7.05947 3.4165 11.3423C3.4165 15.6252 6.88845 19.0971 11.1713 19.0971Z" fill="#0B187D"/>
<path d="M10.9955 19.2783C15.2784 19.2783 18.7503 15.8063 18.7503 11.5235C18.7503 7.24062 15.2784 3.76868 10.9955 3.76868C6.71266 3.76868 3.24072 7.24062 3.24072 11.5235C3.24072 15.8063 6.71266 19.2783 10.9955 19.2783Z" fill="#0B187E"/>
<path d="M10.8246 19.4647C15.1075 19.4647 18.5794 15.9927 18.5794 11.7099C18.5794 7.42702 15.1075 3.95508 10.8246 3.95508C6.54177 3.95508 3.06982 7.42702 3.06982 11.7099C3.06982 15.9927 6.54177 19.4647 10.8246 19.4647Z" fill="#0B187F"/>
<path d="M10.6591 19.6562C14.942 19.6562 18.4139 16.1843 18.4139 11.9014C18.4139 7.61855 14.942 4.14661 10.6591 4.14661C6.37624 4.14661 2.9043 7.61855 2.9043 11.9014C2.9043 16.1843 6.37624 19.6562 10.6591 19.6562Z" fill="#0B197F"/>
<path d="M10.4931 19.8477C14.7759 19.8477 18.2479 16.3758 18.2479 12.0929C18.2479 7.81008 14.7759 4.33813 10.4931 4.33813C6.21022 4.33813 2.73828 7.81008 2.73828 12.0929C2.73828 16.3758 6.21022 19.8477 10.4931 19.8477Z" fill="#0B1980"/>
<path d="M10.3329 20.0393C14.6158 20.0393 18.0877 16.5673 18.0877 12.2845C18.0877 8.0016 14.6158 4.52966 10.3329 4.52966C6.05007 4.52966 2.57812 8.0016 2.57812 12.2845C2.57812 16.5673 6.05007 20.0393 10.3329 20.0393Z" fill="#0B1981"/>
<path d="M10.1776 20.2412C14.4605 20.2412 17.9324 16.7692 17.9324 12.4864C17.9324 8.20351 14.4605 4.73157 10.1776 4.73157C5.89479 4.73157 2.42285 8.20351 2.42285 12.4864C2.42285 16.7692 5.89479 20.2412 10.1776 20.2412Z" fill="#0B1981"/>
<path d="M10.0273 20.4431C14.3101 20.4431 17.7821 16.9711 17.7821 12.6883C17.7821 8.40541 14.3101 4.93347 10.0273 4.93347C5.7444 4.93347 2.27246 8.40541 2.27246 12.6883C2.27246 16.9711 5.7444 20.4431 10.0273 20.4431Z" fill="#0A1A82"/>
<path d="M9.87736 20.645C14.1602 20.645 17.6322 17.173 17.6322 12.8902C17.6322 8.60732 14.1602 5.13538 9.87736 5.13538C5.5945 5.13538 2.12256 8.60732 2.12256 12.8902C2.12256 17.173 5.5945 20.645 9.87736 20.645Z" fill="#0A1A83"/>
<path d="M9.73771 20.852C14.0206 20.852 17.4925 17.3801 17.4925 13.0972C17.4925 8.81435 14.0206 5.34241 9.73771 5.34241C5.45485 5.34241 1.98291 8.81435 1.98291 13.0972C1.98291 17.3801 5.45485 20.852 9.73771 20.852Z" fill="#0A1A83"/>
<path d="M9.59757 21.0643C13.8804 21.0643 17.3524 17.5923 17.3524 13.3095C17.3524 9.02663 13.8804 5.55469 9.59757 5.55469C5.31472 5.55469 1.84277 9.02663 1.84277 13.3095C1.84277 17.5923 5.31472 21.0643 9.59757 21.0643Z" fill="#0A1A84"/>
<path d="M9.46329 21.2765C13.7462 21.2765 17.2181 17.8046 17.2181 13.5217C17.2181 9.23885 13.7462 5.76691 9.46329 5.76691C5.18044 5.76691 1.7085 9.23885 1.7085 13.5217C1.7085 17.8046 5.18044 21.2765 9.46329 21.2765Z" fill="#0A1B85"/>
<path d="M9.3339 21.4939C13.6168 21.4939 17.0887 18.022 17.0887 13.7391C17.0887 9.45626 13.6168 5.98431 9.3339 5.98431C5.05104 5.98431 1.5791 9.45626 1.5791 13.7391C1.5791 18.022 5.05104 21.4939 9.3339 21.4939Z" fill="#0A1B86"/>
<path d="M9.20939 21.7114C13.4922 21.7114 16.9642 18.2394 16.9642 13.9566C16.9642 9.67372 13.4922 6.20178 9.20939 6.20178C4.92653 6.20178 1.45459 9.67372 1.45459 13.9566C1.45459 18.2394 4.92653 21.7114 9.20939 21.7114Z" fill="#0A1B86"/>
<path d="M9.09025 21.9288C13.3731 21.9288 16.845 18.4568 16.845 14.174C16.845 9.89113 13.3731 6.41919 9.09025 6.41919C4.80739 6.41919 1.33545 9.89113 1.33545 14.174C1.33545 18.4568 4.80739 21.9288 9.09025 21.9288Z" fill="#0A1B87"/>
<path d="M8.97111 22.1514C13.254 22.1514 16.7259 18.6794 16.7259 14.3966C16.7259 10.1137 13.254 6.64178 8.97111 6.64178C4.68825 6.64178 1.21631 10.1137 1.21631 14.3966C1.21631 18.6794 4.68825 22.1514 8.97111 22.1514Z" fill="#0A1B88"/>
<path d="M8.86271 22.3792C13.1456 22.3792 16.6175 18.9072 16.6175 14.6244C16.6175 10.3415 13.1456 6.86957 8.86271 6.86957C4.57985 6.86957 1.10791 10.3415 1.10791 14.6244C1.10791 18.9072 4.57985 22.3792 8.86271 22.3792Z" fill="#0A1C88"/>
<path d="M8.75919 22.6069C13.042 22.6069 16.514 19.135 16.514 14.8521C16.514 10.5693 13.042 7.09735 8.75919 7.09735C4.47634 7.09735 1.00439 10.5693 1.00439 14.8521C1.00439 19.135 4.47634 22.6069 8.75919 22.6069Z" fill="#091C89"/>
<path d="M8.65568 22.8347C12.9385 22.8347 16.4105 19.3628 16.4105 15.0799C16.4105 10.7971 12.9385 7.32513 8.65568 7.32513C4.37282 7.32513 0.900879 10.7971 0.900879 15.0799C0.900879 19.3628 4.37282 22.8347 8.65568 22.8347Z" fill="#091C8A"/>
<path d="M8.56242 23.0677C12.8453 23.0677 16.3172 19.5958 16.3172 15.3129C16.3172 11.03 12.8453 7.55811 8.56242 7.55811C4.27956 7.55811 0.807617 11.03 0.807617 15.3129C0.807617 19.5958 4.27956 23.0677 8.56242 23.0677Z" fill="#091C8A"/>
<path d="M8.46915 23.3006C12.752 23.3006 16.224 19.8287 16.224 15.5458C16.224 11.263 12.752 7.79102 8.46915 7.79102C4.1863 7.79102 0.714355 11.263 0.714355 15.5458C0.714355 19.8287 4.1863 23.3006 8.46915 23.3006Z" fill="#091D8B"/>
<path d="M8.38126 23.5336C12.6641 23.5336 16.1361 20.0616 16.1361 15.7788C16.1361 11.4959 12.6641 8.02399 8.38126 8.02399C4.09841 8.02399 0.626465 11.4959 0.626465 15.7788C0.626465 20.0616 4.09841 23.5336 8.38126 23.5336Z" fill="#091D8C"/>
<path d="M8.30363 23.7717C12.5865 23.7717 16.0584 20.2998 16.0584 16.0169C16.0584 11.7341 12.5865 8.26215 8.30363 8.26215C4.02077 8.26215 0.548828 11.7341 0.548828 16.0169C0.548828 20.2998 4.02077 23.7717 8.30363 23.7717Z" fill="#091D8D"/>
<path d="M8.22599 24.0098C12.5088 24.0098 15.9808 20.5379 15.9808 16.255C15.9808 11.9722 12.5088 8.50024 8.22599 8.50024C3.94313 8.50024 0.471191 11.9722 0.471191 16.255C0.471191 20.5379 3.94313 24.0098 8.22599 24.0098Z" fill="#091D8D"/>
<path d="M8.15861 24.2531C12.4415 24.2531 15.9134 20.7812 15.9134 16.4983C15.9134 12.2155 12.4415 8.74353 8.15861 8.74353C3.87575 8.74353 0.403809 12.2155 0.403809 16.4983C0.403809 20.7812 3.87575 24.2531 8.15861 24.2531Z" fill="#091E8E"/>
<path d="M8.09122 24.4965C12.3741 24.4965 15.846 21.0245 15.846 16.7417C15.846 12.4588 12.3741 8.98688 8.09122 8.98688C3.80837 8.98688 0.336426 12.4588 0.336426 16.7417C0.336426 21.0245 3.80837 24.4965 8.09122 24.4965Z" fill="#091E8F"/>
<path d="M8.03458 24.7398C12.3174 24.7398 15.7894 21.2678 15.7894 16.985C15.7894 12.7021 12.3174 9.23016 8.03458 9.23016C3.75173 9.23016 0.279785 12.7021 0.279785 16.985C0.279785 21.2678 3.75173 24.7398 8.03458 24.7398Z" fill="#081E8F"/>
<path d="M7.97745 24.9831C12.2603 24.9831 15.7323 21.5112 15.7323 17.2283C15.7323 12.9455 12.2603 9.47351 7.97745 9.47351C3.6946 9.47351 0.222656 12.9455 0.222656 17.2283C0.222656 21.5112 3.6946 24.9831 7.97745 24.9831Z" fill="#081E90"/>
<path d="M7.93058 25.2316C12.2134 25.2316 15.6854 21.7596 15.6854 17.4768C15.6854 13.1939 12.2134 9.72198 7.93058 9.72198C3.64772 9.72198 0.175781 13.1939 0.175781 17.4768C0.175781 21.7596 3.64772 25.2316 7.93058 25.2316Z" fill="#081F91"/>
<path d="M7.88956 25.4749C12.1724 25.4749 15.6444 22.0029 15.6444 17.7201C15.6444 13.4372 12.1724 9.96527 7.88956 9.96527C3.60671 9.96527 0.134766 13.4372 0.134766 17.7201C0.134766 22.0029 3.60671 25.4749 7.88956 25.4749Z" fill="#081F91"/>
<path d="M7.85294 25.7233C12.1358 25.7233 15.6077 22.2514 15.6077 17.9685C15.6077 13.6857 12.1358 10.2137 7.85294 10.2137C3.57009 10.2137 0.0981445 13.6857 0.0981445 17.9685C0.0981445 22.2514 3.57009 25.7233 7.85294 25.7233Z" fill="#081F92"/>
<path d="M7.82218 25.977C12.105 25.977 15.577 22.5051 15.577 18.2222C15.577 13.9393 12.105 10.4674 7.82218 10.4674C3.53932 10.4674 0.0673828 13.9393 0.0673828 18.2222C0.0673828 22.5051 3.53932 25.977 7.82218 25.977Z" fill="#081F93"/>
<path d="M7.7963 26.2255C12.0792 26.2255 15.5511 22.7535 15.5511 18.4707C15.5511 14.1878 12.0792 10.7159 7.7963 10.7159C3.51345 10.7159 0.0415039 14.1878 0.0415039 18.4707C0.0415039 22.7535 3.51345 26.2255 7.7963 26.2255Z" fill="#082094"/>
<path d="M7.77531 26.4791C12.0582 26.4791 15.5301 23.0072 15.5301 18.7243C15.5301 14.4415 12.0582 10.9695 7.77531 10.9695C3.49245 10.9695 0.0205078 14.4415 0.0205078 18.7243C0.0205078 23.0072 3.49245 26.4791 7.77531 26.4791Z" fill="#082094"/>
<path d="M7.76505 26.7277C12.0479 26.7277 15.5198 23.2557 15.5198 18.9729C15.5198 14.69 12.0479 11.2181 7.76505 11.2181C3.48219 11.2181 0.0102539 14.69 0.0102539 18.9729C0.0102539 23.2557 3.48219 26.7277 7.76505 26.7277Z" fill="#082095"/>
<path d="M7.7548 26.9813C12.0377 26.9813 15.5096 23.5094 15.5096 19.2265C15.5096 14.9437 12.0377 11.4717 7.7548 11.4717C3.47194 11.4717 0 14.9437 0 19.2265C0 23.5094 3.47194 26.9813 7.7548 26.9813Z" fill="#082096"/>
<path d="M7.7548 27.235C12.0377 27.235 15.5096 23.7631 15.5096 19.4802C15.5096 15.1973 12.0377 11.7254 7.7548 11.7254C3.47194 11.7254 0 15.1973 0 19.4802C0 23.7631 3.47194 27.235 7.7548 27.235Z" fill="#072196"/>
<path d="M7.76017 27.4938C12.043 27.4938 15.515 24.0218 15.515 19.739C15.515 15.4561 12.043 11.9842 7.76017 11.9842C3.47731 11.9842 0.00537109 15.4561 0.00537109 19.739C0.00537109 24.0218 3.47731 27.4938 7.76017 27.4938Z" fill="#072197"/>
<path d="M7.77042 27.7475C12.0533 27.7475 15.5252 24.2755 15.5252 19.9927C15.5252 15.7098 12.0533 12.2379 7.77042 12.2379C3.48757 12.2379 0.015625 15.7098 0.015625 19.9927C0.015625 24.2755 3.48757 27.7475 7.77042 27.7475Z" fill="#072198"/>
<path d="M7.78605 28.0011C12.0689 28.0011 15.5408 24.5292 15.5408 20.2463C15.5408 15.9635 12.0689 12.4915 7.78605 12.4915C3.50319 12.4915 0.03125 15.9635 0.03125 20.2463C0.03125 24.5292 3.50319 28.0011 7.78605 28.0011Z" fill="#072198"/>
<path d="M7.81193 28.2496C12.0948 28.2496 15.5667 24.7777 15.5667 20.4948C15.5667 16.212 12.0948 12.7401 7.81193 12.7401C3.52907 12.7401 0.0571289 16.212 0.0571289 20.4948C0.0571289 24.7777 3.52907 28.2496 7.81193 28.2496Z" fill="#072299"/>
<path d="M7.83781 28.5033C12.1207 28.5033 15.5926 25.0314 15.5926 20.7485C15.5926 16.4657 12.1207 12.9937 7.83781 12.9937C3.55495 12.9937 0.0830078 16.4657 0.0830078 20.7485C0.0830078 25.0314 3.55495 28.5033 7.83781 28.5033Z" fill="#07229A"/>
<path d="M7.87394 28.7518C12.1568 28.7518 15.6287 25.2798 15.6287 20.997C15.6287 16.7141 12.1568 13.2422 7.87394 13.2422C3.59108 13.2422 0.119141 16.7141 0.119141 20.997C0.119141 25.2798 3.59108 28.7518 7.87394 28.7518Z" fill="#07229B"/>
<path d="M7.91544 29.0003C12.1983 29.0003 15.6702 25.5283 15.6702 21.2455C15.6702 16.9626 12.1983 13.4907 7.91544 13.4907C3.63259 13.4907 0.160645 16.9626 0.160645 21.2455C0.160645 25.5283 3.63259 29.0003 7.91544 29.0003Z" fill="#07229B"/>
<path d="M7.96183 29.2487C12.2447 29.2487 15.7166 25.7768 15.7166 21.4939C15.7166 17.2111 12.2447 13.7391 7.96183 13.7391C3.67897 13.7391 0.207031 17.2111 0.207031 21.4939C0.207031 25.7768 3.67897 29.2487 7.96183 29.2487Z" fill="#07239C"/>
<path d="M8.00822 29.4972C12.2911 29.4972 15.763 26.0253 15.763 21.7424C15.763 17.4596 12.2911 13.9876 8.00822 13.9876C3.72536 13.9876 0.253418 17.4596 0.253418 21.7424C0.253418 26.0253 3.72536 29.4972 8.00822 29.4972Z" fill="#07239D"/>
<path d="M8.06534 29.7406C12.3482 29.7406 15.8201 26.2686 15.8201 21.9858C15.8201 17.7029 12.3482 14.231 8.06534 14.231C3.78249 14.231 0.310547 17.7029 0.310547 21.9858C0.310547 26.2686 3.78249 29.7406 8.06534 29.7406Z" fill="#06239D"/>
<path d="M8.12736 29.9838C12.4102 29.9838 15.8822 26.5119 15.8822 22.229C15.8822 17.9462 12.4102 14.4742 8.12736 14.4742C3.8445 14.4742 0.372559 17.9462 0.372559 22.229C0.372559 26.5119 3.8445 29.9838 8.12736 29.9838Z" fill="#06239E"/>
<path d="M8.19474 30.2271C12.4776 30.2271 15.9495 26.7552 15.9495 22.4723C15.9495 18.1895 12.4776 14.7175 8.19474 14.7175C3.91188 14.7175 0.439941 18.1895 0.439941 22.4723C0.439941 26.7552 3.91188 30.2271 8.19474 30.2271Z" fill="#06249F"/>
<path d="M8.26749 30.4705C12.5504 30.4705 16.0223 26.9985 16.0223 22.7157C16.0223 18.4328 12.5504 14.9609 8.26749 14.9609C3.98464 14.9609 0.512695 18.4328 0.512695 22.7157C0.512695 26.9985 3.98464 30.4705 8.26749 30.4705Z" fill="#06249F"/>
<path d="M8.34513 30.7086C12.628 30.7086 16.0999 27.2366 16.0999 22.9538C16.0999 18.6709 12.628 15.199 8.34513 15.199C4.06227 15.199 0.590332 18.6709 0.590332 22.9538C0.590332 27.2366 4.06227 30.7086 8.34513 30.7086Z" fill="#0624A0"/>
<path d="M8.43302 30.9467C12.7159 30.9467 16.1878 27.4748 16.1878 23.1919C16.1878 18.9091 12.7159 15.4371 8.43302 15.4371C4.15017 15.4371 0.678223 18.9091 0.678223 23.1919C0.678223 27.4748 4.15017 30.9467 8.43302 30.9467Z" fill="#0624A1"/>
<path d="M8.52091 31.1797C12.8038 31.1797 16.2757 27.7078 16.2757 23.4249C16.2757 19.142 12.8038 15.6701 8.52091 15.6701C4.23805 15.6701 0.766113 19.142 0.766113 23.4249C0.766113 27.7078 4.23805 31.1797 8.52091 31.1797Z" fill="#0625A2"/>
<path d="M8.61417 31.4126C12.897 31.4126 16.369 27.9407 16.369 23.6578C16.369 19.375 12.897 15.903 8.61417 15.903C4.33132 15.903 0.859375 19.375 0.859375 23.6578C0.859375 27.9407 4.33132 31.4126 8.61417 31.4126Z" fill="#0625A2"/>
<path d="M8.71232 31.6456C12.9952 31.6456 16.4671 28.1736 16.4671 23.8908C16.4671 19.6079 12.9952 16.136 8.71232 16.136C4.42946 16.136 0.95752 19.6079 0.95752 23.8908C0.95752 28.1736 4.42946 31.6456 8.71232 31.6456Z" fill="#0625A3"/>
<path d="M8.81095 31.8734C13.0938 31.8734 16.5658 28.4014 16.5658 24.1186C16.5658 19.8357 13.0938 16.3638 8.81095 16.3638C4.52809 16.3638 1.05615 19.8357 1.05615 24.1186C1.05615 28.4014 4.52809 31.8734 8.81095 31.8734Z" fill="#0525A4"/>
<path d="M8.91935 32.1011C13.2022 32.1011 16.6741 28.6292 16.6741 24.3464C16.6741 20.0635 13.2022 16.5916 8.91935 16.5916C4.63649 16.5916 1.16455 20.0635 1.16455 24.3464C1.16455 28.6292 4.63649 32.1011 8.91935 32.1011Z" fill="#0526A4"/>
<path d="M9.03361 32.3237C13.3165 32.3237 16.7884 28.8518 16.7884 24.5689C16.7884 20.2861 13.3165 16.8141 9.03361 16.8141C4.75075 16.8141 1.27881 20.2861 1.27881 24.5689C1.27881 28.8518 4.75075 32.3237 9.03361 32.3237Z" fill="#0526A5"/>
<path d="M9.15275 32.5463C13.4356 32.5463 16.9075 29.0744 16.9075 24.7915C16.9075 20.5087 13.4356 17.0367 9.15275 17.0367C4.86989 17.0367 1.39795 20.5087 1.39795 24.7915C1.39795 29.0744 4.86989 32.5463 9.15275 32.5463Z" fill="#0526A6"/>
<path d="M9.2714 32.7689C13.5543 32.7689 17.0262 29.297 17.0262 25.0141C17.0262 20.7313 13.5543 17.2593 9.2714 17.2593C4.98854 17.2593 1.5166 20.7313 1.5166 25.0141C1.5166 29.297 4.98854 32.7689 9.2714 32.7689Z" fill="#0526A6"/>
<path d="M9.40079 32.9863C13.6837 32.9863 17.1556 29.5144 17.1556 25.2315C17.1556 20.9487 13.6837 17.4767 9.40079 17.4767C5.11794 17.4767 1.646 20.9487 1.646 25.2315C1.646 29.5144 5.11794 32.9863 9.40079 32.9863Z" fill="#0526A7"/>
<path d="M9.53019 33.1986C13.813 33.1986 17.285 29.7267 17.285 25.4438C17.285 21.161 13.813 17.689 9.53019 17.689C5.24733 17.689 1.77539 21.161 1.77539 25.4438C1.77539 29.7267 5.24733 33.1986 9.53019 33.1986Z" fill="#0527A8"/>
<path d="M9.66496 33.4108C13.9478 33.4108 17.4198 29.9389 17.4198 25.656C17.4198 21.3732 13.9478 17.9012 9.66496 17.9012C5.3821 17.9012 1.91016 21.3732 1.91016 25.656C1.91016 29.9389 5.3821 33.4108 9.66496 33.4108Z" fill="#0527A9"/>
<path d="M9.8046 33.6179C14.0875 33.6179 17.5594 30.146 17.5594 25.8631C17.5594 21.5803 14.0875 18.1083 9.8046 18.1083C5.52175 18.1083 2.0498 21.5803 2.0498 25.8631C2.0498 30.146 5.52175 33.6179 9.8046 33.6179Z" fill="#0527A9"/>
<path d="M9.94962 33.825C14.2325 33.825 17.7044 30.3531 17.7044 26.0702C17.7044 21.7874 14.2325 18.3154 9.94962 18.3154C5.66677 18.3154 2.19482 21.7874 2.19482 26.0702C2.19482 30.3531 5.66677 33.825 9.94962 33.825Z" fill="#0527AA"/>
<path d="M10.1 34.0269C14.3829 34.0269 17.8548 30.5549 17.8548 26.2721C17.8548 21.9892 14.3829 18.5173 10.1 18.5173C5.81716 18.5173 2.34521 21.9892 2.34521 26.2721C2.34521 30.5549 5.81716 34.0269 10.1 34.0269Z" fill="#0428AB"/>
<path d="M10.2499 34.2288C14.5328 34.2288 18.0047 30.7568 18.0047 26.474C18.0047 22.1911 14.5328 18.7192 10.2499 18.7192C5.96706 18.7192 2.49512 22.1911 2.49512 26.474C2.49512 30.7568 5.96706 34.2288 10.2499 34.2288Z" fill="#0428AB"/>
<path d="M10.4052 34.4255C14.688 34.4255 18.16 30.9535 18.16 26.6707C18.16 22.3878 14.688 18.9159 10.4052 18.9159C6.12233 18.9159 2.65039 22.3878 2.65039 26.6707C2.65039 30.9535 6.12233 34.4255 10.4052 34.4255Z" fill="#0428AC"/>
<path d="M10.5658 34.6222C14.8487 34.6222 18.3206 31.1503 18.3206 26.8674C18.3206 22.5846 14.8487 19.1126 10.5658 19.1126C6.28298 19.1126 2.81104 22.5846 2.81104 26.8674C2.81104 31.1503 6.28298 34.6222 10.5658 34.6222Z" fill="#0428AD"/>
<path d="M10.7314 34.8086C15.0142 34.8086 18.4862 31.3367 18.4862 27.0538C18.4862 22.771 15.0142 19.299 10.7314 19.299C6.4485 19.299 2.97656 22.771 2.97656 27.0538C2.97656 31.3367 6.4485 34.8086 10.7314 34.8086Z" fill="#0429AD"/>
<path d="M10.9023 35.0001C15.1851 35.0001 18.6571 31.5282 18.6571 27.2453C18.6571 22.9625 15.1851 19.4905 10.9023 19.4905C6.6194 19.4905 3.14746 22.9625 3.14746 27.2453C3.14746 31.5282 6.6194 35.0001 10.9023 35.0001Z" fill="#0429AE"/>
<path d="M11.0732 35.1813C15.356 35.1813 18.828 31.7093 18.828 27.4265C18.828 23.1436 15.356 19.6717 11.0732 19.6717C6.7903 19.6717 3.31836 23.1436 3.31836 27.4265C3.31836 31.7093 6.7903 35.1813 11.0732 35.1813Z" fill="#0429AF"/>
<path d="M11.2489 35.3625C15.5318 35.3625 19.0037 31.8906 19.0037 27.6077C19.0037 23.3248 15.5318 19.8529 11.2489 19.8529C6.96608 19.8529 3.49414 23.3248 3.49414 27.6077C3.49414 31.8906 6.96608 35.3625 11.2489 35.3625Z" fill="#0429B0"/>
<path d="M11.4301 35.5385C15.7129 35.5385 19.1849 32.0666 19.1849 27.7837C19.1849 23.5009 15.7129 20.0289 11.4301 20.0289C7.14723 20.0289 3.67529 23.5009 3.67529 27.7837C3.67529 32.0666 7.14723 35.5385 11.4301 35.5385Z" fill="#042AB0"/>
<path d="M11.6166 35.7094C15.8995 35.7094 19.3714 32.2374 19.3714 27.9546C19.3714 23.6717 15.8995 20.1998 11.6166 20.1998C7.33376 20.1998 3.86182 23.6717 3.86182 27.9546C3.86182 32.2374 7.33376 35.7094 11.6166 35.7094Z" fill="#032AB1"/>
<path d="M11.8031 35.8802C16.086 35.8802 19.5579 32.4083 19.5579 28.1254C19.5579 23.8425 16.086 20.3706 11.8031 20.3706C7.52028 20.3706 4.04834 23.8425 4.04834 28.1254C4.04834 32.4083 7.52028 35.8802 11.8031 35.8802Z" fill="#032AB2"/>
<path d="M11.9945 36.0459C16.2774 36.0459 19.7493 32.5739 19.7493 28.2911C19.7493 24.0082 16.2774 20.5363 11.9945 20.5363C7.71169 20.5363 4.23975 24.0082 4.23975 28.2911C4.23975 32.5739 7.71169 36.0459 11.9945 36.0459Z" fill="#032AB2"/>
<path d="M12.186 36.2063C16.4688 36.2063 19.9407 32.7344 19.9407 28.4515C19.9407 24.1687 16.4688 20.6967 12.186 20.6967C7.90309 20.6967 4.43115 24.1687 4.43115 28.4515C4.43115 32.7344 7.90309 36.2063 12.186 36.2063Z" fill="#032BB3"/>
<path d="M12.3881 36.3616C16.671 36.3616 20.1429 32.8897 20.1429 28.6068C20.1429 24.324 16.671 20.8521 12.3881 20.8521C8.10524 20.8521 4.6333 24.324 4.6333 28.6068C4.6333 32.8897 8.10524 36.3616 12.3881 36.3616Z" fill="#032BB4"/>
<path d="M12.5898 36.5169C16.8726 36.5169 20.3446 33.045 20.3446 28.7621C20.3446 24.4793 16.8726 21.0073 12.5898 21.0073C8.3069 21.0073 4.83496 24.4793 4.83496 28.7621C4.83496 33.045 8.3069 36.5169 12.5898 36.5169Z" fill="#032BB4"/>
<path d="M12.7919 36.6671C17.0748 36.6671 20.5467 33.1951 20.5467 28.9123C20.5467 24.6294 17.0748 21.1575 12.7919 21.1575C8.50905 21.1575 5.03711 24.6294 5.03711 28.9123C5.03711 33.1951 8.50905 36.6671 12.7919 36.6671Z" fill="#032BB5"/>
<path d="M12.9989 36.812C17.2818 36.812 20.7537 33.3401 20.7537 29.0572C20.7537 24.7744 17.2818 21.3024 12.9989 21.3024C8.71608 21.3024 5.24414 24.7744 5.24414 29.0572C5.24414 33.3401 8.71608 36.812 12.9989 36.812Z" fill="#032CB6"/>
<path d="M13.2113 36.9518C17.4942 36.9518 20.9661 33.4799 20.9661 29.197C20.9661 24.9141 17.4942 21.4422 13.2113 21.4422C8.92848 21.4422 5.45654 24.9141 5.45654 29.197C5.45654 33.4799 8.92848 36.9518 13.2113 36.9518Z" fill="#032CB7"/>
<path d="M13.4233 37.0864C17.7061 37.0864 21.1781 33.6144 21.1781 29.3316C21.1781 25.0487 17.7061 21.5768 13.4233 21.5768C9.1404 21.5768 5.66846 25.0487 5.66846 29.3316C5.66846 33.6144 9.1404 37.0864 13.4233 37.0864Z" fill="#032CB7"/>
<path d="M13.6405 37.2158C17.9234 37.2158 21.3953 33.7438 21.3953 29.461C21.3953 25.1781 17.9234 21.7062 13.6405 21.7062C9.35768 21.7062 5.88574 25.1781 5.88574 29.461C5.88574 33.7438 9.35768 37.2158 13.6405 37.2158Z" fill="#022CB8"/>
<path d="M13.8632 37.3452C18.1461 37.3452 21.618 33.8733 21.618 29.5904C21.618 25.3076 18.1461 21.8356 13.8632 21.8356C9.58034 21.8356 6.1084 25.3076 6.1084 29.5904C6.1084 33.8733 9.58034 37.3452 13.8632 37.3452Z" fill="#022DB9"/>
<path d="M14.0859 37.4642C18.3687 37.4642 21.8407 33.9923 21.8407 29.7094C21.8407 25.4266 18.3687 21.9547 14.0859 21.9547C9.803 21.9547 6.33105 25.4266 6.33105 29.7094C6.33105 33.9923 9.803 37.4642 14.0859 37.4642Z" fill="#022DB9"/>
<path d="M14.3085 37.5833C18.5914 37.5833 22.0633 34.1114 22.0633 29.8285C22.0633 25.5457 18.5914 22.0737 14.3085 22.0737C10.0257 22.0737 6.55371 25.5457 6.55371 29.8285C6.55371 34.1114 10.0257 37.5833 14.3085 37.5833Z" fill="#022DBA"/>
<path d="M14.5414 37.692C18.8243 37.692 22.2962 34.2201 22.2962 29.9372C22.2962 25.6544 18.8243 22.1824 14.5414 22.1824C10.2586 22.1824 6.78662 25.6544 6.78662 29.9372C6.78662 34.2201 10.2586 37.692 14.5414 37.692Z" fill="#022DBB"/>
<path d="M14.7694 37.8007C19.0523 37.8007 22.5242 34.3288 22.5242 30.0459C22.5242 25.7631 19.0523 22.2911 14.7694 22.2911C10.4866 22.2911 7.01465 25.7631 7.01465 30.0459C7.01465 34.3288 10.4866 37.8007 14.7694 37.8007Z" fill="#022EBB"/>
<path d="M15.0072 37.9043C19.2901 37.9043 22.762 34.4324 22.762 30.1495C22.762 25.8667 19.2901 22.3947 15.0072 22.3947C10.7244 22.3947 7.25244 25.8667 7.25244 30.1495C7.25244 34.4324 10.7244 37.9043 15.0072 37.9043Z" fill="#022EBC"/>
<path d="M15.2406 37.9975C19.5235 37.9975 22.9954 34.5255 22.9954 30.2427C22.9954 25.9598 19.5235 22.4879 15.2406 22.4879C10.9578 22.4879 7.48584 25.9598 7.48584 30.2427C7.48584 34.5255 10.9578 37.9975 15.2406 37.9975Z" fill="#022EBD"/>
<path d="M15.4784 38.0907C19.7613 38.0907 23.2332 34.6187 23.2332 30.3359C23.2332 26.053 19.7613 22.5811 15.4784 22.5811C11.1956 22.5811 7.72363 26.053 7.72363 30.3359C7.72363 34.6187 11.1956 38.0907 15.4784 38.0907Z" fill="#022EBE"/>
<path d="M15.7221 38.1787C20.0049 38.1787 23.4769 34.7067 23.4769 30.4239C23.4769 26.141 20.0049 22.6691 15.7221 22.6691C11.4392 22.6691 7.96729 26.141 7.96729 30.4239C7.96729 34.7067 11.4392 38.1787 15.7221 38.1787Z" fill="#012FBE"/>
<path d="M15.9652 38.2615C20.2481 38.2615 23.72 34.7895 23.72 30.5067C23.72 26.2238 20.2481 22.7519 15.9652 22.7519C11.6824 22.7519 8.21045 26.2238 8.21045 30.5067C8.21045 34.7895 11.6824 38.2615 15.9652 38.2615Z" fill="#012FBF"/>
<path d="M16.2138 38.3339C20.4966 38.3339 23.9686 34.862 23.9686 30.5791C23.9686 26.2963 20.4966 22.8243 16.2138 22.8243C11.9309 22.8243 8.45898 26.2963 8.45898 30.5791C8.45898 34.862 11.9309 38.3339 16.2138 38.3339Z" fill="#012FC0"/>
<path d="M16.4623 38.4064C20.7452 38.4064 24.2171 34.9345 24.2171 30.6516C24.2171 26.3688 20.7452 22.8969 16.4623 22.8969C12.1795 22.8969 8.70752 26.3688 8.70752 30.6516C8.70752 34.9345 12.1795 38.4064 16.4623 38.4064Z" fill="#012FC0"/>
<path d="M16.7104 38.4686C20.9932 38.4686 24.4652 34.9966 24.4652 30.7138C24.4652 26.4309 20.9932 22.959 16.7104 22.959C12.4275 22.959 8.95557 26.4309 8.95557 30.7138C8.95557 34.9966 12.4275 38.4686 16.7104 38.4686Z" fill="#0130C1"/>
<path d="M16.9643 38.5255C21.2471 38.5255 24.7191 35.0536 24.7191 30.7707C24.7191 26.4879 21.2471 23.0159 16.9643 23.0159C12.6814 23.0159 9.20947 26.4879 9.20947 30.7707C9.20947 35.0536 12.6814 38.5255 16.9643 38.5255Z" fill="#0130C2"/>
<path d="M17.2231 38.5773C21.5059 38.5773 24.9779 35.1053 24.9779 30.8225C24.9779 26.5396 21.5059 23.0677 17.2231 23.0677C12.9402 23.0677 9.46826 26.5396 9.46826 30.8225C9.46826 35.1053 12.9402 38.5773 17.2231 38.5773Z" fill="#0130C2"/>
<path d="M17.477 38.629C21.7598 38.629 25.2318 35.1571 25.2318 30.8742C25.2318 26.5914 21.7598 23.1194 17.477 23.1194C13.1941 23.1194 9.72217 26.5914 9.72217 30.8742C9.72217 35.1571 13.1941 38.629 17.477 38.629Z" fill="#0130C3"/>
<path d="M17.7358 38.6653C22.0186 38.6653 25.4906 35.1934 25.4906 30.9105C25.4906 26.6276 22.0186 23.1557 17.7358 23.1557C13.4529 23.1557 9.98096 26.6276 9.98096 30.9105C9.98096 35.1934 13.4529 38.6653 17.7358 38.6653Z" fill="#0131C4"/>
<path d="M17.9994 38.7015C22.2823 38.7015 25.7542 35.2296 25.7542 30.9467C25.7542 26.6638 22.2823 23.1919 17.9994 23.1919C13.7166 23.1919 10.2446 26.6638 10.2446 30.9467C10.2446 35.2296 13.7166 38.7015 17.9994 38.7015Z" fill="#0131C5"/>
<path d="M18.2582 38.7326C22.5411 38.7326 26.013 35.2606 26.013 30.9778C26.013 26.6949 22.5411 23.223 18.2582 23.223C13.9754 23.223 10.5034 26.6949 10.5034 30.9778C10.5034 35.2606 13.9754 38.7326 18.2582 38.7326Z" fill="#0031C5"/>
<path d="M18.5224 38.7533C22.8052 38.7533 26.2772 35.2814 26.2772 30.9985C26.2772 26.7157 22.8052 23.2437 18.5224 23.2437C14.2395 23.2437 10.7676 26.7157 10.7676 30.9985C10.7676 35.2814 14.2395 38.7533 18.5224 38.7533Z" fill="#0031C6"/>
<path d="M18.7919 38.7688C23.0748 38.7688 26.5467 35.2969 26.5467 31.014C26.5467 26.7312 23.0748 23.2592 18.7919 23.2592C14.5091 23.2592 11.0371 26.7312 11.0371 31.014C11.0371 35.2969 14.5091 38.7688 18.7919 38.7688Z" fill="#0032C7"/>
<path d="M19.061 38.7792C23.3438 38.7792 26.8157 35.3072 26.8157 31.0244C26.8157 26.7415 23.3438 23.2696 19.061 23.2696C14.7781 23.2696 11.3062 26.7415 11.3062 31.0244C11.3062 35.3072 14.7781 38.7792 19.061 38.7792Z" fill="#0032C7"/>
<path d="M19.33 38.7843C23.6129 38.7843 27.0848 35.3124 27.0848 31.0295C27.0848 26.7467 23.6129 23.2747 19.33 23.2747C15.0471 23.2747 11.5752 26.7467 11.5752 31.0295C11.5752 35.3124 15.0471 38.7843 19.33 38.7843Z" fill="#0032C8"/>
<path d="M19.33 38.7843C23.6129 38.7843 27.0848 35.3124 27.0848 31.0295C27.0848 26.7467 23.6129 23.2747 19.33 23.2747C15.0471 23.2747 11.5752 26.7467 11.5752 31.0295C11.5752 35.3124 15.0471 38.7843 19.33 38.7843Z" fill="#0032C8"/>
<path d="M19.6098 38.7792C23.8926 38.7792 27.3646 35.3072 27.3646 31.0244C27.3646 26.7415 23.8926 23.2696 19.6098 23.2696C15.3269 23.2696 11.855 26.7415 11.855 31.0244C11.855 35.3072 15.3269 38.7792 19.6098 38.7792Z" fill="#0032C8"/>
<path d="M19.8944 38.7688C24.1773 38.7688 27.6492 35.2969 27.6492 31.014C27.6492 26.7312 24.1773 23.2592 19.8944 23.2592C15.6116 23.2592 12.1396 26.7312 12.1396 31.014C12.1396 35.2969 15.6116 38.7688 19.8944 38.7688Z" fill="#0033C9"/>
<path d="M20.1737 38.7533C24.4566 38.7533 27.9285 35.2814 27.9285 30.9985C27.9285 26.7157 24.4566 23.2437 20.1737 23.2437C15.8909 23.2437 12.4189 26.7157 12.4189 30.9985C12.4189 35.2814 15.8909 38.7533 20.1737 38.7533Z" fill="#0033C9"/>
<path d="M20.4482 38.7274C24.731 38.7274 28.203 35.2554 28.203 30.9726C28.203 26.6897 24.731 23.2178 20.4482 23.2178C16.1653 23.2178 12.6934 26.6897 12.6934 30.9726C12.6934 35.2554 16.1653 38.7274 20.4482 38.7274Z" fill="#0033C9"/>
<path d="M20.7279 38.6964C25.0108 38.6964 28.4827 35.2244 28.4827 30.9416C28.4827 26.6587 25.0108 23.1868 20.7279 23.1868C16.4451 23.1868 12.9731 26.6587 12.9731 30.9416C12.9731 35.2244 16.4451 38.6964 20.7279 38.6964Z" fill="#0034C9"/>
<path d="M21.0024 38.6601C25.2852 38.6601 28.7572 35.1882 28.7572 30.9053C28.7572 26.6225 25.2852 23.1505 21.0024 23.1505C16.7195 23.1505 13.2476 26.6225 13.2476 30.9053C13.2476 35.1882 16.7195 38.6601 21.0024 38.6601Z" fill="#0034CA"/>
<path d="M21.2714 38.6187C25.5543 38.6187 29.0262 35.1467 29.0262 30.8639C29.0262 26.581 25.5543 23.1091 21.2714 23.1091C16.9885 23.1091 13.5166 26.581 13.5166 30.8639C13.5166 35.1467 16.9885 38.6187 21.2714 38.6187Z" fill="#0034CA"/>
<path d="M21.5404 38.5669C25.8233 38.5669 29.2952 35.095 29.2952 30.8121C29.2952 26.5293 25.8233 23.0573 21.5404 23.0573C17.2576 23.0573 13.7856 26.5293 13.7856 30.8121C13.7856 35.095 17.2576 38.5669 21.5404 38.5669Z" fill="#0034CA"/>
<path d="M21.8095 38.5152C26.0923 38.5152 29.5643 35.0432 29.5643 30.7604C29.5643 26.4775 26.0923 23.0056 21.8095 23.0056C17.5266 23.0056 14.0547 26.4775 14.0547 30.7604C14.0547 35.0432 17.5266 38.5152 21.8095 38.5152Z" fill="#0035CA"/>
<path d="M22.0736 38.453C26.3565 38.453 29.8284 34.9811 29.8284 30.6982C29.8284 26.4154 26.3565 22.9434 22.0736 22.9434C17.7908 22.9434 14.3188 26.4154 14.3188 30.6982C14.3188 34.9811 17.7908 38.453 22.0736 38.453Z" fill="#0035CB"/>
<path d="M22.3378 38.3858C26.6207 38.3858 30.0926 34.9138 30.0926 30.631C30.0926 26.3481 26.6207 22.8762 22.3378 22.8762C18.0549 22.8762 14.583 26.3481 14.583 30.631C14.583 34.9138 18.0549 38.3858 22.3378 38.3858Z" fill="#0035CB"/>
<path d="M22.5966 38.3081C26.8795 38.3081 30.3514 34.8361 30.3514 30.5533C30.3514 26.2704 26.8795 22.7985 22.5966 22.7985C18.3137 22.7985 14.8418 26.2704 14.8418 30.5533C14.8418 34.8361 18.3137 38.3081 22.5966 38.3081Z" fill="#0036CB"/>
<path d="M22.8554 38.2304C27.1382 38.2304 30.6102 34.7585 30.6102 30.4756C30.6102 26.1928 27.1382 22.7208 22.8554 22.7208C18.5725 22.7208 15.1006 26.1928 15.1006 30.4756C15.1006 34.7585 18.5725 38.2304 22.8554 38.2304Z" fill="#0036CB"/>
<path d="M23.1093 38.1476C27.3921 38.1476 30.8641 34.6757 30.8641 30.3928C30.8641 26.1099 27.3921 22.638 23.1093 22.638C18.8264 22.638 15.3545 26.1099 15.3545 30.3928C15.3545 34.6757 18.8264 38.1476 23.1093 38.1476Z" fill="#0036CC"/>
<path d="M23.3627 38.0544C27.6456 38.0544 31.1175 34.5825 31.1175 30.2996C31.1175 26.0167 27.6456 22.5448 23.3627 22.5448C19.0799 22.5448 15.6079 26.0167 15.6079 30.2996C15.6079 34.5825 19.0799 38.0544 23.3627 38.0544Z" fill="#0037CC"/>
<path d="M23.6112 37.9613C27.8941 37.9613 31.366 34.4893 31.366 30.2065C31.366 25.9236 27.8941 22.4517 23.6112 22.4517C19.3284 22.4517 15.8564 25.9236 15.8564 30.2065C15.8564 34.4893 19.3284 37.9613 23.6112 37.9613Z" fill="#0037CC"/>
<path d="M23.8598 37.8577C28.1426 37.8577 31.6146 34.3857 31.6146 30.1029C31.6146 25.82 28.1426 22.3481 23.8598 22.3481C19.5769 22.3481 16.105 25.82 16.105 30.1029C16.105 34.3857 19.5769 37.8577 23.8598 37.8577Z" fill="#0037CC"/>
<path d="M24.1029 37.7542C28.3858 37.7542 31.8577 34.2822 31.8577 29.9994C31.8577 25.7165 28.3858 22.2446 24.1029 22.2446C19.8201 22.2446 16.3481 25.7165 16.3481 29.9994C16.3481 34.2822 19.8201 37.7542 24.1029 37.7542Z" fill="#0037CD"/>
<path d="M24.3461 37.6455C28.629 37.6455 32.1009 34.1735 32.1009 29.8907C32.1009 25.6078 28.629 22.1359 24.3461 22.1359C20.0632 22.1359 16.5913 25.6078 16.5913 29.8907C16.5913 34.1735 20.0632 37.6455 24.3461 37.6455Z" fill="#0038CD"/>
<path d="M24.5844 37.5264C28.8672 37.5264 32.3392 34.0544 32.3392 29.7716C32.3392 25.4887 28.8672 22.0168 24.5844 22.0168C20.3015 22.0168 16.8296 25.4887 16.8296 29.7716C16.8296 34.0544 20.3015 37.5264 24.5844 37.5264Z" fill="#0038CD"/>
<path d="M24.8173 37.4073C29.1002 37.4073 32.5721 33.9354 32.5721 29.6525C32.5721 25.3696 29.1002 21.8977 24.8173 21.8977C20.5344 21.8977 17.0625 25.3696 17.0625 29.6525C17.0625 33.9354 20.5344 37.4073 24.8173 37.4073Z" fill="#0038CD"/>
<path d="M25.0502 37.2831C29.3331 37.2831 32.805 33.8112 32.805 29.5283C32.805 25.2454 29.3331 21.7735 25.0502 21.7735C20.7674 21.7735 17.2954 25.2454 17.2954 29.5283C17.2954 33.8112 20.7674 37.2831 25.0502 37.2831Z" fill="#0039CE"/>
<path d="M25.2782 37.1485C29.5611 37.1485 33.033 33.6766 33.033 29.3937C33.033 25.1109 29.5611 21.6389 25.2782 21.6389C20.9954 21.6389 17.5234 25.1109 17.5234 29.3937C17.5234 33.6766 20.9954 37.1485 25.2782 37.1485Z" fill="#0039CE"/>
<path d="M25.5009 37.0139C29.7837 37.0139 33.2557 33.5419 33.2557 29.2591C33.2557 24.9762 29.7837 21.5043 25.5009 21.5043C21.218 21.5043 17.7461 24.9762 17.7461 29.2591C17.7461 33.5419 21.218 37.0139 25.5009 37.0139Z" fill="#0039CE"/>
<path d="M25.7235 36.8741C30.0064 36.8741 33.4783 33.4022 33.4783 29.1193C33.4783 24.8364 30.0064 21.3645 25.7235 21.3645C21.4407 21.3645 17.9688 24.8364 17.9688 29.1193C17.9688 33.4022 21.4407 36.8741 25.7235 36.8741Z" fill="#003ACE"/>
<path d="M25.9408 36.7343C30.2237 36.7343 33.6956 33.2624 33.6956 28.9795C33.6956 24.6967 30.2237 21.2247 25.9408 21.2247C21.658 21.2247 18.186 24.6967 18.186 28.9795C18.186 33.2624 21.658 36.7343 25.9408 36.7343Z" fill="#003ACF"/>
<path d="M26.1581 36.5842C30.441 36.5842 33.9129 33.1123 33.9129 28.8294C33.9129 24.5466 30.441 21.0746 26.1581 21.0746C21.8753 21.0746 18.4033 24.5466 18.4033 28.8294C18.4033 33.1123 21.8753 36.5842 26.1581 36.5842Z" fill="#003ACF"/>
<path d="M26.3705 36.4341C30.6534 36.4341 34.1253 32.9622 34.1253 28.6793C34.1253 24.3964 30.6534 20.9245 26.3705 20.9245C22.0877 20.9245 18.6157 24.3964 18.6157 28.6793C18.6157 32.9622 22.0877 36.4341 26.3705 36.4341Z" fill="#003BCF"/>
<path d="M26.5776 36.2788C30.8604 36.2788 34.3323 32.8068 34.3323 28.524C34.3323 24.2411 30.8604 20.7692 26.5776 20.7692C22.2947 20.7692 18.8228 24.2411 18.8228 28.524C18.8228 32.8068 22.2947 36.2788 26.5776 36.2788Z" fill="#003BCF"/>
<path d="M26.7792 36.1183C31.0621 36.1183 34.534 32.6464 34.534 28.3635C34.534 24.0806 31.0621 20.6087 26.7792 20.6087C22.4964 20.6087 19.0244 24.0806 19.0244 28.3635C19.0244 32.6464 22.4964 36.1183 26.7792 36.1183Z" fill="#003BD0"/>
<path d="M26.976 35.9526C31.2588 35.9526 34.7308 32.4807 34.7308 28.1979C34.7308 23.915 31.2588 20.4431 26.976 20.4431C22.6931 20.4431 19.2212 23.915 19.2212 28.1979C19.2212 32.4807 22.6931 35.9526 26.976 35.9526Z" fill="#003BD0"/>
<path d="M27.1728 35.787C31.4556 35.787 34.9276 32.3151 34.9276 28.0322C34.9276 23.7493 31.4556 20.2774 27.1728 20.2774C22.8899 20.2774 19.418 23.7493 19.418 28.0322C19.418 32.3151 22.8899 35.787 27.1728 35.787Z" fill="#003CD0"/>
<path d="M27.3642 35.6162C31.647 35.6162 35.119 32.1442 35.119 27.8614C35.119 23.5785 31.647 20.1066 27.3642 20.1066C23.0813 20.1066 19.6094 23.5785 19.6094 27.8614C19.6094 32.1442 23.0813 35.6162 27.3642 35.6162Z" fill="#003CD0"/>
<path d="M27.5507 35.4401C31.8336 35.4401 35.3055 31.9682 35.3055 27.6853C35.3055 23.4025 31.8336 19.9305 27.5507 19.9305C23.2678 19.9305 19.7959 23.4025 19.7959 27.6853C19.7959 31.9682 23.2678 35.4401 27.5507 35.4401Z" fill="#003CD1"/>
<path d="M27.7318 35.2641C32.0147 35.2641 35.4866 31.7922 35.4866 27.5093C35.4866 23.2265 32.0147 19.7545 27.7318 19.7545C23.449 19.7545 19.9771 23.2265 19.9771 27.5093C19.9771 31.7922 23.449 35.2641 27.7318 35.2641Z" fill="#003DD1"/>
<path d="M27.913 35.083C32.1959 35.083 35.6678 31.611 35.6678 27.3282C35.6678 23.0453 32.1959 19.5734 27.913 19.5734C23.6301 19.5734 20.1582 23.0453 20.1582 27.3282C20.1582 31.611 23.6301 35.083 27.913 35.083Z" fill="#003DD1"/>
<path d="M28.0893 34.8966C32.3721 34.8966 35.8441 31.4247 35.8441 27.1418C35.8441 22.859 32.3721 19.387 28.0893 19.387C23.8064 19.387 20.3345 22.859 20.3345 27.1418C20.3345 31.4247 23.8064 34.8966 28.0893 34.8966Z" fill="#003DD1"/>
<path d="M28.2548 34.7102C32.5377 34.7102 36.0096 31.2383 36.0096 26.9554C36.0096 22.6726 32.5377 19.2006 28.2548 19.2006C23.9719 19.2006 20.5 22.6726 20.5 26.9554C20.5 31.2383 23.9719 34.7102 28.2548 34.7102Z" fill="#003ED2"/>
<path d="M28.4203 34.5187C32.7032 34.5187 36.1751 31.0468 36.1751 26.7639C36.1751 22.481 32.7032 19.0091 28.4203 19.0091C24.1375 19.0091 20.6655 22.481 20.6655 26.7639C20.6655 31.0468 24.1375 34.5187 28.4203 34.5187Z" fill="#003ED2"/>
<path d="M28.581 34.3272C32.8638 34.3272 36.3358 30.8552 36.3358 26.5724C36.3358 22.2895 32.8638 18.8176 28.581 18.8176C24.2981 18.8176 20.8262 22.2895 20.8262 26.5724C20.8262 30.8552 24.2981 34.3272 28.581 34.3272Z" fill="#003ED2"/>
<path d="M28.7362 34.1304C33.0191 34.1304 36.491 30.6585 36.491 26.3756C36.491 22.0928 33.0191 18.6208 28.7362 18.6208C24.4534 18.6208 20.9814 22.0928 20.9814 26.3756C20.9814 30.6585 24.4534 34.1304 28.7362 34.1304Z" fill="#003ED2"/>
<path d="M28.8915 33.9337C33.1744 33.9337 36.6463 30.4618 36.6463 26.1789C36.6463 21.8961 33.1744 18.4241 28.8915 18.4241C24.6087 18.4241 21.1367 21.8961 21.1367 26.1789C21.1367 30.4618 24.6087 33.9337 28.8915 33.9337Z" fill="#003FD3"/>
<path d="M29.0365 33.7318C33.3194 33.7318 36.7913 30.2599 36.7913 25.977C36.7913 21.6942 33.3194 18.2222 29.0365 18.2222C24.7537 18.2222 21.2817 21.6942 21.2817 25.977C21.2817 30.2599 24.7537 33.7318 29.0365 33.7318Z" fill="#003FD3"/>
<path d="M29.1762 33.5299C33.459 33.5299 36.931 30.058 36.931 25.7751C36.931 21.4923 33.459 18.0203 29.1762 18.0203C24.8933 18.0203 21.4214 21.4923 21.4214 25.7751C21.4214 30.058 24.8933 33.5299 29.1762 33.5299Z" fill="#003FD3"/>
<path d="M29.3109 33.3228C33.5938 33.3228 37.0657 29.8509 37.0657 25.568C37.0657 21.2852 33.5938 17.8132 29.3109 17.8132C25.0281 17.8132 21.5562 21.2852 21.5562 25.568C21.5562 29.8509 25.0281 33.3228 29.3109 33.3228Z" fill="#0040D3"/>
<path d="M29.4452 33.1158C33.7281 33.1158 37.2 29.6439 37.2 25.361C37.2 21.0781 33.7281 17.6062 29.4452 17.6062C25.1624 17.6062 21.6904 21.0781 21.6904 25.361C21.6904 29.6439 25.1624 33.1158 29.4452 33.1158Z" fill="#0040D4"/>
<path d="M29.5697 32.9087C33.8526 32.9087 37.3245 29.4368 37.3245 25.1539C37.3245 20.871 33.8526 17.3991 29.5697 17.3991C25.2869 17.3991 21.8149 20.871 21.8149 25.1539C21.8149 29.4368 25.2869 32.9087 29.5697 32.9087Z" fill="#0040D4"/>
<path d="M29.6938 32.6965C33.9766 32.6965 37.4486 29.2245 37.4486 24.9417C37.4486 20.6588 33.9766 17.1869 29.6938 17.1869C25.4109 17.1869 21.939 20.6588 21.939 24.9417C21.939 29.2245 25.4109 32.6965 29.6938 32.6965Z" fill="#0041D4"/>
<path d="M29.808 32.479C34.0909 32.479 37.5628 29.0071 37.5628 24.7242C37.5628 20.4414 34.0909 16.9694 29.808 16.9694C25.5252 16.9694 22.0532 20.4414 22.0532 24.7242C22.0532 29.0071 25.5252 32.479 29.808 32.479Z" fill="#0041D4"/>
<path d="M29.9164 32.2668C34.1993 32.2668 37.6712 28.7949 37.6712 24.512C37.6712 20.2291 34.1993 16.7572 29.9164 16.7572C25.6336 16.7572 22.1616 20.2291 22.1616 24.512C22.1616 28.7949 25.6336 32.2668 29.9164 32.2668Z" fill="#0041D5"/>
<path d="M30.0199 32.0494C34.3028 32.0494 37.7747 28.5774 37.7747 24.2946C37.7747 20.0117 34.3028 16.5398 30.0199 16.5398C25.7371 16.5398 22.2651 20.0117 22.2651 24.2946C22.2651 28.5774 25.7371 32.0494 30.0199 32.0494Z" fill="#0042D5"/>
<path d="M30.1234 31.8319C34.4063 31.8319 37.8782 28.36 37.8782 24.0771C37.8782 19.7943 34.4063 16.3223 30.1234 16.3223C25.8406 16.3223 22.3687 19.7943 22.3687 24.0771C22.3687 28.36 25.8406 31.8319 30.1234 31.8319Z" fill="#0042D5"/>
<path d="M30.2167 31.6093C34.4996 31.6093 37.9715 28.1374 37.9715 23.8545C37.9715 19.5717 34.4996 16.0997 30.2167 16.0997C25.9339 16.0997 22.4619 19.5717 22.4619 23.8545C22.4619 28.1374 25.9339 31.6093 30.2167 31.6093Z" fill="#0042D5"/>
<path d="M30.3046 31.3867C34.5875 31.3867 38.0594 27.9148 38.0594 23.6319C38.0594 19.3491 34.5875 15.8771 30.3046 15.8771C26.0217 15.8771 22.5498 19.3491 22.5498 23.6319C22.5498 27.9148 26.0217 31.3867 30.3046 31.3867Z" fill="#0042D6"/>
<path d="M30.3876 31.1641C34.6705 31.1641 38.1424 27.6922 38.1424 23.4093C38.1424 19.1265 34.6705 15.6545 30.3876 15.6545C26.1048 15.6545 22.6328 19.1265 22.6328 23.4093C22.6328 27.6922 26.1048 31.1641 30.3876 31.1641Z" fill="#0043D6"/>
<path d="M30.4599 30.9415C34.7427 30.9415 38.2147 27.4696 38.2147 23.1867C38.2147 18.9039 34.7427 15.4319 30.4599 15.4319C26.177 15.4319 22.7051 18.9039 22.7051 23.1867C22.7051 27.4696 26.177 30.9415 30.4599 30.9415Z" fill="#0043D6"/>
<path d="M30.5326 30.7138C34.8155 30.7138 38.2874 27.2418 38.2874 22.959C38.2874 18.6761 34.8155 15.2042 30.5326 15.2042C26.2498 15.2042 22.7778 18.6761 22.7778 22.959C22.7778 27.2418 26.2498 30.7138 30.5326 30.7138Z" fill="#0043D6"/>
<path d="M30.5946 30.4912C34.8775 30.4912 38.3494 27.0192 38.3494 22.7364C38.3494 18.4535 34.8775 14.9816 30.5946 14.9816C26.3118 14.9816 22.8398 18.4535 22.8398 22.7364C22.8398 27.0192 26.3118 30.4912 30.5946 30.4912Z" fill="#0044D7"/>
<path d="M30.6567 30.2634C34.9395 30.2634 38.4114 26.7914 38.4114 22.5086C38.4114 18.2257 34.9395 14.7538 30.6567 14.7538C26.3738 14.7538 22.9019 18.2257 22.9019 22.5086C22.9019 26.7914 26.3738 30.2634 30.6567 30.2634Z" fill="#0044D7"/>
<path d="M30.7084 30.0356C34.9913 30.0356 38.4632 26.5637 38.4632 22.2808C38.4632 17.9979 34.9913 14.526 30.7084 14.526C26.4256 14.526 22.9536 17.9979 22.9536 22.2808C22.9536 26.5637 26.4256 30.0356 30.7084 30.0356Z" fill="#0044D7"/>
<path d="M30.7553 29.8078C35.0381 29.8078 38.5101 26.3359 38.5101 22.053C38.5101 17.7702 35.0381 14.2982 30.7553 14.2982C26.4724 14.2982 23.0005 17.7702 23.0005 22.053C23.0005 26.3359 26.4724 29.8078 30.7553 29.8078Z" fill="#0045D7"/>
<path d="M30.7914 29.58C35.0743 29.58 38.5462 26.1081 38.5462 21.8252C38.5462 17.5424 35.0743 14.0704 30.7914 14.0704C26.5086 14.0704 23.0366 17.5424 23.0366 21.8252C23.0366 26.1081 26.5086 29.58 30.7914 29.58Z" fill="#0045D8"/>
<path d="M30.8276 29.3522C35.1104 29.3522 38.5823 25.8803 38.5823 21.5975C38.5823 17.3146 35.1104 13.8427 30.8276 13.8427C26.5447 13.8427 23.0728 17.3146 23.0728 21.5975C23.0728 25.8803 26.5447 29.3522 30.8276 29.3522Z" fill="#0045D8"/>
<path d="M30.8534 29.1193C35.1363 29.1193 38.6082 25.6474 38.6082 21.3645C38.6082 17.0817 35.1363 13.6097 30.8534 13.6097C26.5706 13.6097 23.0986 17.0817 23.0986 21.3645C23.0986 25.6474 26.5706 29.1193 30.8534 29.1193Z" fill="#0045D8"/>
<path d="M30.8744 28.8916C35.1573 28.8916 38.6292 25.4196 38.6292 21.1368C38.6292 16.8539 35.1573 13.382 30.8744 13.382C26.5916 13.382 23.1196 16.8539 23.1196 21.1368C23.1196 25.4196 26.5916 28.8916 30.8744 28.8916Z" fill="#0046D8"/>
<path d="M30.8847 28.6638C35.1675 28.6638 38.6395 25.1918 38.6395 20.909C38.6395 16.6261 35.1675 13.1542 30.8847 13.1542C26.6018 13.1542 23.1299 16.6261 23.1299 20.909C23.1299 25.1918 26.6018 28.6638 30.8847 28.6638Z" fill="#0046D9"/>
<path d="M30.8949 28.436C35.1778 28.436 38.6497 24.964 38.6497 20.6812C38.6497 16.3983 35.1778 12.9264 30.8949 12.9264C26.6121 12.9264 23.1401 16.3983 23.1401 20.6812C23.1401 24.964 26.6121 28.436 30.8949 28.436Z" fill="#0046D9"/>
<path d="M30.8949 28.1978C35.1778 28.1978 38.6497 24.7259 38.6497 20.443C38.6497 16.1602 35.1778 12.6882 30.8949 12.6882C26.6121 12.6882 23.1401 16.1602 23.1401 20.443C23.1401 24.7259 26.6121 28.1978 30.8949 28.1978Z" fill="#0047D9"/>
<path d="M30.8847 27.9597C35.1675 27.9597 38.6395 24.4878 38.6395 20.2049C38.6395 15.9221 35.1675 12.4501 30.8847 12.4501C26.6018 12.4501 23.1299 15.9221 23.1299 20.2049C23.1299 24.4878 26.6018 27.9597 30.8847 27.9597Z" fill="#0047DA"/>
<path d="M30.8691 27.7268C35.1519 27.7268 38.6239 24.2548 38.6239 19.972C38.6239 15.6891 35.1519 12.2172 30.8691 12.2172C26.5862 12.2172 23.1143 15.6891 23.1143 19.972C23.1143 24.2548 26.5862 27.7268 30.8691 27.7268Z" fill="#0047DA"/>
<path d="M30.8485 27.4887C35.1314 27.4887 38.6033 24.0167 38.6033 19.7339C38.6033 15.451 35.1314 11.9791 30.8485 11.9791C26.5657 11.9791 23.0938 15.451 23.0938 19.7339C23.0938 24.0167 26.5657 27.4887 30.8485 27.4887Z" fill="#0048DA"/>
<path d="M30.8227 27.2557C35.1055 27.2557 38.5775 23.7837 38.5775 19.5009C38.5775 15.218 35.1055 11.7461 30.8227 11.7461C26.5398 11.7461 23.0679 15.218 23.0679 19.5009C23.0679 23.7837 26.5398 27.2557 30.8227 27.2557Z" fill="#0048DA"/>
<path d="M30.786 27.0279C35.0689 27.0279 38.5408 23.556 38.5408 19.2731C38.5408 14.9903 35.0689 11.5183 30.786 11.5183C26.5032 11.5183 23.0312 14.9903 23.0312 19.2731C23.0312 23.556 26.5032 27.0279 30.786 27.0279Z" fill="#0048DB"/>
<path d="M30.7397 26.7949C35.0225 26.7949 38.4945 23.323 38.4945 19.0401C38.4945 14.7573 35.0225 11.2853 30.7397 11.2853C26.4568 11.2853 22.9849 14.7573 22.9849 19.0401C22.9849 23.323 26.4568 26.7949 30.7397 26.7949Z" fill="#0049DB"/>
<path d="M30.6933 26.5672C34.9761 26.5672 38.4481 23.0952 38.4481 18.8124C38.4481 14.5295 34.9761 11.0576 30.6933 11.0576C26.4104 11.0576 22.9385 14.5295 22.9385 18.8124C22.9385 23.0952 26.4104 26.5672 30.6933 26.5672Z" fill="#0049DB"/>
<path d="M30.6361 26.3446C34.919 26.3446 38.3909 22.8726 38.3909 18.5898C38.3909 14.3069 34.919 10.835 30.6361 10.835C26.3533 10.835 22.8813 14.3069 22.8813 18.5898C22.8813 22.8726 26.3533 26.3446 30.6361 26.3446Z" fill="#0049DB"/>
<path d="M30.5741 26.122C34.857 26.122 38.3289 22.65 38.3289 18.3672C38.3289 14.0843 34.857 10.6124 30.5741 10.6124C26.2913 10.6124 22.8193 14.0843 22.8193 18.3672C22.8193 22.65 26.2913 26.122 30.5741 26.122Z" fill="#0049DC"/>
<path d="M30.5014 25.8994C34.7842 25.8994 38.2562 22.4274 38.2562 18.1446C38.2562 13.8617 34.7842 10.3898 30.5014 10.3898C26.2185 10.3898 22.7466 13.8617 22.7466 18.1446C22.7466 22.4274 26.2185 25.8994 30.5014 25.8994Z" fill="#004ADC"/>
<path d="M30.4291 25.6768C34.712 25.6768 38.1839 22.2048 38.1839 17.922C38.1839 13.6391 34.712 10.1672 30.4291 10.1672C26.1463 10.1672 22.6743 13.6391 22.6743 17.922C22.6743 22.2048 26.1463 25.6768 30.4291 25.6768Z" fill="#004ADC"/>
<path d="M30.3461 25.4645C34.629 25.4645 38.1009 21.9925 38.1009 17.7097C38.1009 13.4268 34.629 9.9549 30.3461 9.9549C26.0632 9.9549 22.5913 13.4268 22.5913 17.7097C22.5913 21.9925 26.0632 25.4645 30.3461 25.4645Z" fill="#004ADC"/>
<path d="M30.2582 25.2471C34.5411 25.2471 38.013 21.7751 38.013 17.4923C38.013 13.2094 34.5411 9.73749 30.2582 9.73749C25.9754 9.73749 22.5034 13.2094 22.5034 17.4923C22.5034 21.7751 25.9754 25.2471 30.2582 25.2471Z" fill="#004BDD"/>
<path d="M30.1601 25.0349C34.4429 25.0349 37.9149 21.5629 37.9149 17.2801C37.9149 12.9972 34.4429 9.52527 30.1601 9.52527C25.8772 9.52527 22.4053 12.9972 22.4053 17.2801C22.4053 21.5629 25.8772 25.0349 30.1601 25.0349Z" fill="#004BDD"/>
<path d="M30.0614 24.8226C34.3443 24.8226 37.8162 21.3506 37.8162 17.0678C37.8162 12.7849 34.3443 9.31299 30.0614 9.31299C25.7786 9.31299 22.3066 12.7849 22.3066 17.0678C22.3066 21.3506 25.7786 24.8226 30.0614 24.8226Z" fill="#004BDD"/>
<path d="M29.9526 24.6156C34.2354 24.6156 37.7073 21.1436 37.7073 16.8608C37.7073 12.5779 34.2354 9.10596 29.9526 9.10596C25.6697 9.10596 22.1978 12.5779 22.1978 16.8608C22.1978 21.1436 25.6697 24.6156 29.9526 24.6156Z" fill="#004CDD"/>
<path d="M29.8388 24.4136C34.1216 24.4136 37.5936 20.9417 37.5936 16.6589C37.5936 12.376 34.1216 8.90405 29.8388 8.90405C25.5559 8.90405 22.084 12.376 22.084 16.6589C22.084 20.9417 25.5559 24.4136 29.8388 24.4136Z" fill="#004CDE"/>
<path d="M29.7196 24.2066C34.0025 24.2066 37.4744 20.7346 37.4744 16.4518C37.4744 12.1689 34.0025 8.69696 29.7196 8.69696C25.4368 8.69696 21.9648 12.1689 21.9648 16.4518C21.9648 20.7346 25.4368 24.2066 29.7196 24.2066Z" fill="#004CDE"/>
<path d="M29.5956 24.0098C33.8785 24.0098 37.3504 20.5379 37.3504 16.255C37.3504 11.9722 33.8785 8.50024 29.5956 8.50024C25.3128 8.50024 21.8408 11.9722 21.8408 16.255C21.8408 20.5379 25.3128 24.0098 29.5956 24.0098Z" fill="#004CDE"/>
<path d="M29.4662 23.8131C33.7491 23.8131 37.221 20.3412 37.221 16.0583C37.221 11.7755 33.7491 8.30353 29.4662 8.30353C25.1834 8.30353 21.7114 11.7755 21.7114 16.0583C21.7114 20.3412 25.1834 23.8131 29.4662 23.8131Z" fill="#004DDE"/>
<path d="M29.3266 23.6164C33.6094 23.6164 37.0814 20.1445 37.0814 15.8616C37.0814 11.5788 33.6094 8.10681 29.3266 8.10681C25.0437 8.10681 21.5718 11.5788 21.5718 15.8616C21.5718 20.1445 25.0437 23.6164 29.3266 23.6164Z" fill="#004DDF"/>
<path d="M29.1864 23.4249C33.4693 23.4249 36.9412 19.9529 36.9412 15.6701C36.9412 11.3872 33.4693 7.91528 29.1864 7.91528C24.9036 7.91528 21.4316 11.3872 21.4316 15.6701C21.4316 19.9529 24.9036 23.4249 29.1864 23.4249Z" fill="#004DDF"/>
<path d="M29.0365 23.2385C33.3194 23.2385 36.7913 19.7666 36.7913 15.4837C36.7913 11.2009 33.3194 7.72894 29.0365 7.72894C24.7537 7.72894 21.2817 11.2009 21.2817 15.4837C21.2817 19.7666 24.7537 23.2385 29.0365 23.2385Z" fill="#004EDF"/>
<path d="M28.8861 23.0521C33.169 23.0521 36.6409 19.5802 36.6409 15.2973C36.6409 11.0145 33.169 7.54254 28.8861 7.54254C24.6033 7.54254 21.1313 11.0145 21.1313 15.2973C21.1313 19.5802 24.6033 23.0521 28.8861 23.0521Z" fill="#004EDF"/>
<path d="M28.7309 22.871C33.0137 22.871 36.4857 19.399 36.4857 15.1162C36.4857 10.8333 33.0137 7.36139 28.7309 7.36139C24.448 7.36139 20.9761 10.8333 20.9761 15.1162C20.9761 19.399 24.448 22.871 28.7309 22.871Z" fill="#004EE0"/>
<path d="M28.5653 22.695C32.8482 22.695 36.3201 19.223 36.3201 14.9402C36.3201 10.6573 32.8482 7.18536 28.5653 7.18536C24.2825 7.18536 20.8105 10.6573 20.8105 14.9402C20.8105 19.223 24.2825 22.695 28.5653 22.695Z" fill="#004FE0"/>
<path d="M28.3998 22.5189C32.6827 22.5189 36.1546 19.047 36.1546 14.7641C36.1546 10.4813 32.6827 7.00934 28.3998 7.00934C24.117 7.00934 20.645 10.4813 20.645 14.7641C20.645 19.047 24.117 22.5189 28.3998 22.5189Z" fill="#004FE0"/>
<path d="M28.2235 22.3429C32.5064 22.3429 35.9783 18.871 35.9783 14.5881C35.9783 10.3053 32.5064 6.83331 28.2235 6.83331C23.9407 6.83331 20.4688 10.3053 20.4688 14.5881C20.4688 18.871 23.9407 22.3429 28.2235 22.3429Z" fill="#004FE0"/>
<path d="M28.0478 22.1773C32.3306 22.1773 35.8026 18.7053 35.8026 14.4225C35.8026 10.1396 32.3306 6.66766 28.0478 6.66766C23.7649 6.66766 20.293 10.1396 20.293 14.4225C20.293 18.7053 23.7649 22.1773 28.0478 22.1773Z" fill="#0050E1"/>
<path d="M27.8612 22.0116C32.1441 22.0116 35.616 18.5397 35.616 14.2568C35.616 9.97396 32.1441 6.50201 27.8612 6.50201C23.5784 6.50201 20.1064 9.97396 20.1064 14.2568C20.1064 18.5397 23.5784 22.0116 27.8612 22.0116Z" fill="#0050E1"/>
<path d="M27.6752 21.8511C31.9581 21.8511 35.43 18.3792 35.43 14.0964C35.43 9.81349 31.9581 6.34155 27.6752 6.34155C23.3924 6.34155 19.9204 9.81349 19.9204 14.0964C19.9204 18.3792 23.3924 21.8511 27.6752 21.8511Z" fill="#0050E1"/>
<path d="M27.4833 21.6906C31.7662 21.6906 35.2381 18.2187 35.2381 13.9358C35.2381 9.65297 31.7662 6.18103 27.4833 6.18103C23.2005 6.18103 19.7285 9.65297 19.7285 13.9358C19.7285 18.2187 23.2005 21.6906 27.4833 21.6906Z" fill="#0050E1"/>
<path d="M27.2865 21.5354C31.5694 21.5354 35.0413 18.0634 35.0413 13.7806C35.0413 9.4977 31.5694 6.02576 27.2865 6.02576C23.0037 6.02576 19.5317 9.4977 19.5317 13.7806C19.5317 18.0634 23.0037 21.5354 27.2865 21.5354Z" fill="#0051E2"/>
<path d="M27.0849 21.3852C31.3677 21.3852 34.8397 17.9133 34.8397 13.6304C34.8397 9.34755 31.3677 5.87561 27.0849 5.87561C22.802 5.87561 19.3301 9.34755 19.3301 13.6304C19.3301 17.9133 22.802 21.3852 27.0849 21.3852Z" fill="#0051E2"/>
<path d="M26.8778 21.2402C31.1607 21.2402 34.6326 17.7683 34.6326 13.4854C34.6326 9.20259 31.1607 5.73065 26.8778 5.73065C22.595 5.73065 19.123 9.20259 19.123 13.4854C19.123 17.7683 22.595 21.2402 26.8778 21.2402Z" fill="#0051E2"/>
<path d="M26.6708 21.0954C30.9537 21.0954 34.4256 17.6234 34.4256 13.3406C34.4256 9.0577 30.9537 5.58575 26.6708 5.58575C22.388 5.58575 18.916 9.0577 18.916 13.3406C18.916 17.6234 22.388 21.0954 26.6708 21.0954Z" fill="#0052E2"/>
<path d="M26.453 20.9556C30.7359 20.9556 34.2078 17.4836 34.2078 13.2008C34.2078 8.91792 30.7359 5.44598 26.453 5.44598C22.1702 5.44598 18.6982 8.91792 18.6982 13.2008C18.6982 17.4836 22.1702 20.9556 26.453 20.9556Z" fill="#0052E3"/>
<path d="M26.2358 20.8209C30.5186 20.8209 33.9906 17.349 33.9906 13.0661C33.9906 8.78328 30.5186 5.31134 26.2358 5.31134C21.9529 5.31134 18.481 8.78328 18.481 13.0661C18.481 17.349 21.9529 20.8209 26.2358 20.8209Z" fill="#0052E3"/>
<path d="M26.0131 20.6915C30.296 20.6915 33.7679 17.2196 33.7679 12.9367C33.7679 8.65389 30.296 5.18195 26.0131 5.18195C21.7302 5.18195 18.2583 8.65389 18.2583 12.9367C18.2583 17.2196 21.7302 20.6915 26.0131 20.6915Z" fill="#0053E3"/>
<path d="M25.7904 20.5673C30.0733 20.5673 33.5452 17.0953 33.5452 12.8125C33.5452 8.52962 30.0733 5.05768 25.7904 5.05768C21.5076 5.05768 18.0356 8.52962 18.0356 12.8125C18.0356 17.0953 21.5076 20.5673 25.7904 20.5673Z" fill="#0053E3"/>
<path d="M25.5575 20.4431C29.8404 20.4431 33.3123 16.9711 33.3123 12.6883C33.3123 8.40541 29.8404 4.93347 25.5575 4.93347C21.2747 4.93347 17.8027 8.40541 17.8027 12.6883C17.8027 16.9711 21.2747 20.4431 25.5575 20.4431Z" fill="#0053E4"/>
<path d="M25.3246 20.324C29.6075 20.324 33.0794 16.852 33.0794 12.5692C33.0794 8.28633 29.6075 4.81439 25.3246 4.81439C21.0418 4.81439 17.5698 8.28633 17.5698 12.5692C17.5698 16.852 21.0418 20.324 25.3246 20.324Z" fill="#0054E4"/>
<path d="M25.0868 20.2101C29.3697 20.2101 32.8416 16.7382 32.8416 12.4553C32.8416 8.17244 29.3697 4.7005 25.0868 4.7005C20.804 4.7005 17.332 8.17244 17.332 12.4553C17.332 16.7382 20.804 20.2101 25.0868 20.2101Z" fill="#0054E4"/>
<path d="M24.8432 20.1014C29.126 20.1014 32.598 16.6295 32.598 12.3466C32.598 8.06374 29.126 4.5918 24.8432 4.5918C20.5603 4.5918 17.0884 8.06374 17.0884 12.3466C17.0884 16.6295 20.5603 20.1014 24.8432 20.1014Z" fill="#0054E4"/>
<path d="M24.6 19.9979C28.8829 19.9979 32.3548 16.5259 32.3548 12.2431C32.3548 7.96022 28.8829 4.48828 24.6 4.48828C20.3172 4.48828 16.8452 7.96022 16.8452 12.2431C16.8452 16.5259 20.3172 19.9979 24.6 19.9979Z" fill="#0054E5"/>
<path d="M24.3515 19.8995C28.6343 19.8995 32.1063 16.4275 32.1063 12.1447C32.1063 7.86183 28.6343 4.38989 24.3515 4.38989C20.0686 4.38989 16.5967 7.86183 16.5967 12.1447C16.5967 16.4275 20.0686 19.8995 24.3515 19.8995Z" fill="#0055E5"/>
<path d="M24.1029 19.8012C28.3858 19.8012 31.8577 16.3292 31.8577 12.0464C31.8577 7.76351 28.3858 4.29156 24.1029 4.29156C19.8201 4.29156 16.3481 7.76351 16.3481 12.0464C16.3481 16.3292 19.8201 19.8012 24.1029 19.8012Z" fill="#0055E5"/>
<path d="M23.8442 19.7132C28.127 19.7132 31.599 16.2412 31.599 11.9584C31.599 7.67549 28.127 4.20355 23.8442 4.20355C19.5613 4.20355 16.0894 7.67549 16.0894 11.9584C16.0894 16.2412 19.5613 19.7132 23.8442 19.7132Z" fill="#0055E5"/>
<path d="M23.5907 19.6251C27.8736 19.6251 31.3455 16.1532 31.3455 11.8703C31.3455 7.58748 27.8736 4.11554 23.5907 4.11554C19.3079 4.11554 15.8359 7.58748 15.8359 11.8703C15.8359 16.1532 19.3079 19.6251 23.5907 19.6251Z" fill="#0056E6"/>
<path d="M23.3266 19.5475C27.6094 19.5475 31.0814 16.0756 31.0814 11.7927C31.0814 7.50984 27.6094 4.0379 23.3266 4.0379C19.0437 4.0379 15.5718 7.50984 15.5718 11.7927C15.5718 16.0756 19.0437 19.5475 23.3266 19.5475Z" fill="#0056E6"/>
<path d="M23.0624 19.4698C27.3453 19.4698 30.8172 15.9979 30.8172 11.715C30.8172 7.43215 27.3453 3.96021 23.0624 3.96021C18.7796 3.96021 15.3076 7.43215 15.3076 11.715C15.3076 15.9979 18.7796 19.4698 23.0624 19.4698Z" fill="#0056E6"/>
<path d="M22.7983 19.4025C27.0811 19.4025 30.5531 15.9306 30.5531 11.6477C30.5531 7.36489 27.0811 3.89294 22.7983 3.89294C18.5154 3.89294 15.0435 7.36489 15.0435 11.6477C15.0435 15.9306 18.5154 19.4025 22.7983 19.4025Z" fill="#0057E6"/>
<path d="M22.5292 19.3352C26.8121 19.3352 30.284 15.8633 30.284 11.5804C30.284 7.29756 26.8121 3.82562 22.5292 3.82562C18.2464 3.82562 14.7744 7.29756 14.7744 11.5804C14.7744 15.8633 18.2464 19.3352 22.5292 19.3352Z" fill="#0057E7"/>
<path d="M22.2548 19.2731C26.5377 19.2731 30.0096 15.8011 30.0096 11.5183C30.0096 7.23543 26.5377 3.76349 22.2548 3.76349C17.9719 3.76349 14.5 7.23543 14.5 11.5183C14.5 15.8011 17.9719 19.2731 22.2548 19.2731Z" fill="#0057E7"/>
<path d="M21.9804 19.2213C26.2632 19.2213 29.7352 15.7494 29.7352 11.4665C29.7352 7.18367 26.2632 3.71173 21.9804 3.71173C17.6975 3.71173 14.2256 7.18367 14.2256 11.4665C14.2256 15.7494 17.6975 19.2213 21.9804 19.2213Z" fill="#0057E7"/>
<path d="M21.7011 19.1696C25.9839 19.1696 29.4559 15.6976 29.4559 11.4148C29.4559 7.13191 25.9839 3.65997 21.7011 3.65997C17.4182 3.65997 13.9463 7.13191 13.9463 11.4148C13.9463 15.6976 17.4182 19.1696 21.7011 19.1696Z" fill="#0058E7"/>
<path d="M21.4213 19.1281C25.7042 19.1281 29.1761 15.6562 29.1761 11.3733C29.1761 7.09047 25.7042 3.61853 21.4213 3.61853C17.1384 3.61853 13.6665 7.09047 13.6665 11.3733C13.6665 15.6562 17.1384 19.1281 21.4213 19.1281Z" fill="#0058E8"/>
<path d="M21.142 19.0867C25.4249 19.0867 28.8968 15.6148 28.8968 11.3319C28.8968 7.04909 25.4249 3.57715 21.142 3.57715C16.8591 3.57715 13.3872 7.04909 13.3872 11.3319C13.3872 15.6148 16.8591 19.0867 21.142 19.0867Z" fill="#0058E8"/>
<path d="M20.8573 19.0557C25.1402 19.0557 28.6121 15.5837 28.6121 11.3009C28.6121 7.01802 25.1402 3.54608 20.8573 3.54608C16.5745 3.54608 13.1025 7.01802 13.1025 11.3009C13.1025 15.5837 16.5745 19.0557 20.8573 19.0557Z" fill="#0059E8"/>
<path d="M20.5673 19.0246C24.8502 19.0246 28.3221 15.5527 28.3221 11.2698C28.3221 6.98696 24.8502 3.51501 20.5673 3.51501C16.2844 3.51501 12.8125 6.98696 12.8125 11.2698C12.8125 15.5527 16.2844 19.0246 20.5673 19.0246Z" fill="#0059E8"/>
<path d="M20.2773 19.0039C24.5601 19.0039 28.0321 15.532 28.0321 11.2491C28.0321 6.96626 24.5601 3.49432 20.2773 3.49432C15.9944 3.49432 12.5225 6.96626 12.5225 11.2491C12.5225 15.532 15.9944 19.0039 20.2773 19.0039Z" fill="#0059E9"/>
<path d="M19.9877 18.9884C24.2706 18.9884 27.7425 15.5164 27.7425 11.2336C27.7425 6.9507 24.2706 3.47876 19.9877 3.47876C15.7049 3.47876 12.2329 6.9507 12.2329 11.2336C12.2329 15.5164 15.7049 18.9884 19.9877 18.9884Z" fill="#005AE9"/>
<path d="M19.6977 18.978C23.9805 18.978 27.4525 15.5061 27.4525 11.2232C27.4525 6.94039 23.9805 3.46844 19.6977 3.46844C15.4148 3.46844 11.9429 6.94039 11.9429 11.2232C11.9429 15.5061 15.4148 18.978 19.6977 18.978Z" fill="#005AE9"/>
<path d="M19.4027 18.9729C23.6856 18.9729 27.1575 15.5009 27.1575 11.2181C27.1575 6.9352 23.6856 3.46326 19.4027 3.46326C15.1199 3.46326 11.6479 6.9352 11.6479 11.2181C11.6479 15.5009 15.1199 18.9729 19.4027 18.9729Z" fill="#005AEA"/>
<path d="M19.33 19.1644C23.6129 19.1644 27.0848 15.6924 27.0848 11.4096C27.0848 7.12673 23.6129 3.65479 19.33 3.65479C15.0471 3.65479 11.5752 7.12673 11.5752 11.4096C11.5752 15.6924 15.0471 19.1644 19.33 19.1644Z" fill="#005BEA"/>
<path d="M19.33 19.418C23.6129 19.418 27.0848 15.9461 27.0848 11.6632C27.0848 7.38039 23.6129 3.90845 19.33 3.90845C15.0471 3.90845 11.5752 7.38039 11.5752 11.6632C11.5752 15.9461 15.0471 19.418 19.33 19.418Z" fill="#005BEA"/>
<path d="M19.33 19.6717C23.6129 19.6717 27.0848 16.1998 27.0848 11.9169C27.0848 7.63405 23.6129 4.16211 19.33 4.16211C15.0471 4.16211 11.5752 7.63405 11.5752 11.9169C11.5752 16.1998 15.0471 19.6717 19.33 19.6717Z" fill="#005BEA"/>
<path d="M19.33 19.9306C23.6129 19.9306 27.0848 16.4586 27.0848 12.1758C27.0848 7.8929 23.6129 4.42096 19.33 4.42096C15.0471 4.42096 11.5752 7.8929 11.5752 12.1758C11.5752 16.4586 15.0471 19.9306 19.33 19.9306Z" fill="#005BEB"/>
<path d="M19.33 20.1842C23.6129 20.1842 27.0848 16.7123 27.0848 12.4294C27.0848 8.14656 23.6129 4.67462 19.33 4.67462C15.0471 4.67462 11.5752 8.14656 11.5752 12.4294C11.5752 16.7123 15.0471 20.1842 19.33 20.1842Z" fill="#005CEB"/>
<path d="M19.33 20.4379C23.6129 20.4379 27.0848 16.9659 27.0848 12.6831C27.0848 8.40022 23.6129 4.92828 19.33 4.92828C15.0471 4.92828 11.5752 8.40022 11.5752 12.6831C11.5752 16.9659 15.0471 20.4379 19.33 20.4379Z" fill="#005CEB"/>
<path d="M19.33 20.6915C23.6129 20.6915 27.0848 17.2196 27.0848 12.9367C27.0848 8.65389 23.6129 5.18195 19.33 5.18195C15.0471 5.18195 11.5752 8.65389 11.5752 12.9367C11.5752 17.2196 15.0471 20.6915 19.33 20.6915Z" fill="#005CEB"/>
<path d="M19.33 20.9452C23.6129 20.9452 27.0848 17.4733 27.0848 13.1904C27.0848 8.90755 23.6129 5.43561 19.33 5.43561C15.0471 5.43561 11.5752 8.90755 11.5752 13.1904C11.5752 17.4733 15.0471 20.9452 19.33 20.9452Z" fill="#005DEC"/>
<path d="M19.33 21.1989C23.6129 21.1989 27.0848 17.7269 27.0848 13.4441C27.0848 9.16121 23.6129 5.68927 19.33 5.68927C15.0471 5.68927 11.5752 9.16121 11.5752 13.4441C11.5752 17.7269 15.0471 21.1989 19.33 21.1989Z" fill="#005DEC"/>
<path d="M19.33 21.4525C23.6129 21.4525 27.0848 17.9806 27.0848 13.6977C27.0848 9.41487 23.6129 5.94293 19.33 5.94293C15.0471 5.94293 11.5752 9.41487 11.5752 13.6977C11.5752 17.9806 15.0471 21.4525 19.33 21.4525Z" fill="#005DEC"/>
<path d="M19.33 21.7114C23.6129 21.7114 27.0848 18.2394 27.0848 13.9566C27.0848 9.67372 23.6129 6.20178 19.33 6.20178C15.0471 6.20178 11.5752 9.67372 11.5752 13.9566C11.5752 18.2394 15.0471 21.7114 19.33 21.7114Z" fill="#005EEC"/>
<path d="M19.33 21.965C23.6129 21.965 27.0848 18.4931 27.0848 14.2102C27.0848 9.92739 23.6129 6.45544 19.33 6.45544C15.0471 6.45544 11.5752 9.92739 11.5752 14.2102C11.5752 18.4931 15.0471 21.965 19.33 21.965Z" fill="#005EED"/>
<path d="M19.33 22.2187C23.6129 22.2187 27.0848 18.7468 27.0848 14.4639C27.0848 10.181 23.6129 6.70911 19.33 6.70911C15.0471 6.70911 11.5752 10.181 11.5752 14.4639C11.5752 18.7468 15.0471 22.2187 19.33 22.2187Z" fill="#005EED"/>
<path d="M19.33 22.4724C23.6129 22.4724 27.0848 19.0004 27.0848 14.7176C27.0848 10.4347 23.6129 6.96277 19.33 6.96277C15.0471 6.96277 11.5752 10.4347 11.5752 14.7176C11.5752 19.0004 15.0471 22.4724 19.33 22.4724Z" fill="#005EED"/>
<path d="M19.33 22.726C23.6129 22.726 27.0848 19.2541 27.0848 14.9712C27.0848 10.6884 23.6129 7.21643 19.33 7.21643C15.0471 7.21643 11.5752 10.6884 11.5752 14.9712C11.5752 19.2541 15.0471 22.726 19.33 22.726Z" fill="#005FED"/>
<path d="M19.33 22.9797C23.6129 22.9797 27.0848 19.5077 27.0848 15.2249C27.0848 10.942 23.6129 7.47009 19.33 7.47009C15.0471 7.47009 11.5752 10.942 11.5752 15.2249C11.5752 19.5077 15.0471 22.9797 19.33 22.9797Z" fill="#005FEE"/>
<path d="M19.33 23.2334C23.6129 23.2334 27.0848 19.7614 27.0848 15.4786C27.0848 11.1957 23.6129 7.72375 19.33 7.72375C15.0471 7.72375 11.5752 11.1957 11.5752 15.4786C11.5752 19.7614 15.0471 23.2334 19.33 23.2334Z" fill="#005FEE"/>
<path d="M19.33 23.4922C23.6129 23.4922 27.0848 20.0203 27.0848 15.7374C27.0848 11.4545 23.6129 7.9826 19.33 7.9826C15.0471 7.9826 11.5752 11.4545 11.5752 15.7374C11.5752 20.0203 15.0471 23.4922 19.33 23.4922Z" fill="#0060EE"/>
<path d="M19.33 23.7459C23.6129 23.7459 27.0848 20.2739 27.0848 15.9911C27.0848 11.7082 23.6129 8.23627 19.33 8.23627C15.0471 8.23627 11.5752 11.7082 11.5752 15.9911C11.5752 20.2739 15.0471 23.7459 19.33 23.7459Z" fill="#0060EE"/>
<path d="M19.33 23.9995C23.6129 23.9995 27.0848 20.5275 27.0848 16.2447C27.0848 11.9618 23.6129 8.48987 19.33 8.48987C15.0471 8.48987 11.5752 11.9618 11.5752 16.2447C11.5752 20.5275 15.0471 23.9995 19.33 23.9995Z" fill="#0060EF"/>
<path d="M19.33 24.2531C23.6129 24.2531 27.0848 20.7812 27.0848 16.4983C27.0848 12.2155 23.6129 8.74353 19.33 8.74353C15.0471 8.74353 11.5752 12.2155 11.5752 16.4983C11.5752 20.7812 15.0471 24.2531 19.33 24.2531Z" fill="#0061EF"/>
<path d="M19.33 24.5068C23.6129 24.5068 27.0848 21.0348 27.0848 16.752C27.0848 12.4691 23.6129 8.99719 19.33 8.99719C15.0471 8.99719 11.5752 12.4691 11.5752 16.752C11.5752 21.0348 15.0471 24.5068 19.33 24.5068Z" fill="#0061EF"/>
<path d="M19.33 24.7605C23.6129 24.7605 27.0848 21.2885 27.0848 17.0057C27.0848 12.7228 23.6129 9.25085 19.33 9.25085C15.0471 9.25085 11.5752 12.7228 11.5752 17.0057C11.5752 21.2885 15.0471 24.7605 19.33 24.7605Z" fill="#0061EF"/>
<path d="M19.33 25.0141C23.6129 25.0141 27.0848 21.5422 27.0848 17.2593C27.0848 12.9765 23.6129 9.50452 19.33 9.50452C15.0471 9.50452 11.5752 12.9765 11.5752 17.2593C11.5752 21.5422 15.0471 25.0141 19.33 25.0141Z" fill="#0062F0"/>
<path d="M19.33 25.273C23.6129 25.273 27.0848 21.801 27.0848 17.5182C27.0848 13.2353 23.6129 9.76337 19.33 9.76337C15.0471 9.76337 11.5752 13.2353 11.5752 17.5182C11.5752 21.801 15.0471 25.273 19.33 25.273Z" fill="#0062F0"/>
<path d="M19.33 25.5266C23.6129 25.5266 27.0848 22.0547 27.0848 17.7718C27.0848 13.489 23.6129 10.017 19.33 10.017C15.0471 10.017 11.5752 13.489 11.5752 17.7718C11.5752 22.0547 15.0471 25.5266 19.33 25.5266Z" fill="#0062F0"/>
<path d="M19.33 25.7803C23.6129 25.7803 27.0848 22.3083 27.0848 18.0255C27.0848 13.7426 23.6129 10.2707 19.33 10.2707C15.0471 10.2707 11.5752 13.7426 11.5752 18.0255C11.5752 22.3083 15.0471 25.7803 19.33 25.7803Z" fill="#0062F0"/>
<path d="M19.33 26.034C23.6129 26.034 27.0848 22.562 27.0848 18.2792C27.0848 13.9963 23.6129 10.5244 19.33 10.5244C15.0471 10.5244 11.5752 13.9963 11.5752 18.2792C11.5752 22.562 15.0471 26.034 19.33 26.034Z" fill="#0063F1"/>
<path d="M19.33 26.2876C23.6129 26.2876 27.0848 22.8157 27.0848 18.5328C27.0848 14.25 23.6129 10.778 19.33 10.778C15.0471 10.778 11.5752 14.25 11.5752 18.5328C11.5752 22.8157 15.0471 26.2876 19.33 26.2876Z" fill="#0063F1"/>
<path d="M19.33 26.5413C23.6129 26.5413 27.0848 23.0693 27.0848 18.7865C27.0848 14.5036 23.6129 11.0317 19.33 11.0317C15.0471 11.0317 11.5752 14.5036 11.5752 18.7865C11.5752 23.0693 15.0471 26.5413 19.33 26.5413Z" fill="#0063F1"/>
<path d="M19.33 26.8001C23.6129 26.8001 27.0848 23.3282 27.0848 19.0453C27.0848 14.7625 23.6129 11.2905 19.33 11.2905C15.0471 11.2905 11.5752 14.7625 11.5752 19.0453C11.5752 23.3282 15.0471 26.8001 19.33 26.8001Z" fill="#0064F1"/>
<path d="M19.33 27.0538C23.6129 27.0538 27.0848 23.5818 27.0848 19.299C27.0848 15.0161 23.6129 11.5442 19.33 11.5442C15.0471 11.5442 11.5752 15.0161 11.5752 19.299C11.5752 23.5818 15.0471 27.0538 19.33 27.0538Z" fill="#0064F2"/>
<path d="M19.33 27.3074C23.6129 27.3074 27.0848 23.8355 27.0848 19.5526C27.0848 15.2698 23.6129 11.7979 19.33 11.7979C15.0471 11.7979 11.5752 15.2698 11.5752 19.5526C11.5752 23.8355 15.0471 27.3074 19.33 27.3074Z" fill="#0064F2"/>
<path d="M19.33 27.5611C23.6129 27.5611 27.0848 24.0892 27.0848 19.8063C27.0848 15.5235 23.6129 12.0515 19.33 12.0515C15.0471 12.0515 11.5752 15.5235 11.5752 19.8063C11.5752 24.0892 15.0471 27.5611 19.33 27.5611Z" fill="#0065F2"/>
<path d="M19.33 27.8148C23.6129 27.8148 27.0848 24.3428 27.0848 20.06C27.0848 15.7771 23.6129 12.3052 19.33 12.3052C15.0471 12.3052 11.5752 15.7771 11.5752 20.06C11.5752 24.3428 15.0471 27.8148 19.33 27.8148Z" fill="#0065F2"/>
<path d="M19.33 28.0684C23.6129 28.0684 27.0848 24.5965 27.0848 20.3136C27.0848 16.0308 23.6129 12.5588 19.33 12.5588C15.0471 12.5588 11.5752 16.0308 11.5752 20.3136C11.5752 24.5965 15.0471 28.0684 19.33 28.0684Z" fill="#0065F3"/>
<path d="M19.33 28.3221C23.6129 28.3221 27.0848 24.8502 27.0848 20.5673C27.0848 16.2844 23.6129 12.8125 19.33 12.8125C15.0471 12.8125 11.5752 16.2844 11.5752 20.5673C11.5752 24.8502 15.0471 28.3221 19.33 28.3221Z" fill="#0065F3"/>
<path d="M19.33 28.5809C23.6129 28.5809 27.0848 25.109 27.0848 20.8261C27.0848 16.5433 23.6129 13.0714 19.33 13.0714C15.0471 13.0714 11.5752 16.5433 11.5752 20.8261C11.5752 25.109 15.0471 28.5809 19.33 28.5809Z" fill="#0066F3"/>
<path d="M19.33 28.8346C23.6129 28.8346 27.0848 25.3627 27.0848 21.0798C27.0848 16.797 23.6129 13.325 19.33 13.325C15.0471 13.325 11.5752 16.797 11.5752 21.0798C11.5752 25.3627 15.0471 28.8346 19.33 28.8346Z" fill="#0066F3"/>
<path d="M19.33 29.0883C23.6129 29.0883 27.0848 25.6163 27.0848 21.3335C27.0848 17.0506 23.6129 13.5787 19.33 13.5787C15.0471 13.5787 11.5752 17.0506 11.5752 21.3335C11.5752 25.6163 15.0471 29.0883 19.33 29.0883Z" fill="#0066F4"/>
<path d="M19.33 29.3419C23.6129 29.3419 27.0848 25.87 27.0848 21.5871C27.0848 17.3043 23.6129 13.8323 19.33 13.8323C15.0471 13.8323 11.5752 17.3043 11.5752 21.5871C11.5752 25.87 15.0471 29.3419 19.33 29.3419Z" fill="#0067F4"/>
<path d="M19.33 29.5956C23.6129 29.5956 27.0848 26.1237 27.0848 21.8408C27.0848 17.5579 23.6129 14.086 19.33 14.086C15.0471 14.086 11.5752 17.5579 11.5752 21.8408C11.5752 26.1237 15.0471 29.5956 19.33 29.5956Z" fill="#0067F4"/>
<path d="M19.33 29.8493C23.6129 29.8493 27.0848 26.3773 27.0848 22.0945C27.0848 17.8116 23.6129 14.3397 19.33 14.3397C15.0471 14.3397 11.5752 17.8116 11.5752 22.0945C11.5752 26.3773 15.0471 29.8493 19.33 29.8493Z" fill="#0067F4"/>
<path d="M19.33 30.1029C23.6129 30.1029 27.0848 26.631 27.0848 22.3481C27.0848 18.0653 23.6129 14.5933 19.33 14.5933C15.0471 14.5933 11.5752 18.0653 11.5752 22.3481C11.5752 26.631 15.0471 30.1029 19.33 30.1029Z" fill="#0068F5"/>
<path d="M19.33 30.3618C23.6129 30.3618 27.0848 26.8898 27.0848 22.607C27.0848 18.3241 23.6129 14.8522 19.33 14.8522C15.0471 14.8522 11.5752 18.3241 11.5752 22.607C11.5752 26.8898 15.0471 30.3618 19.33 30.3618Z" fill="#0068F5"/>
<path d="M19.33 30.6154C23.6129 30.6154 27.0848 27.1435 27.0848 22.8606C27.0848 18.5778 23.6129 15.1058 19.33 15.1058C15.0471 15.1058 11.5752 18.5778 11.5752 22.8606C11.5752 27.1435 15.0471 30.6154 19.33 30.6154Z" fill="#0068F5"/>
<path d="M19.33 30.8691C23.6129 30.8691 27.0848 27.3972 27.0848 23.1143C27.0848 18.8314 23.6129 15.3595 19.33 15.3595C15.0471 15.3595 11.5752 18.8314 11.5752 23.1143C11.5752 27.3972 15.0471 30.8691 19.33 30.8691Z" fill="#0069F5"/>
<path d="M19.33 31.1228C23.6129 31.1228 27.0848 27.6508 27.0848 23.368C27.0848 19.0851 23.6129 15.6132 19.33 15.6132C15.0471 15.6132 11.5752 19.0851 11.5752 23.368C11.5752 27.6508 15.0471 31.1228 19.33 31.1228Z" fill="#0069F6"/>
<path d="M19.33 31.3764C23.6129 31.3764 27.0848 27.9045 27.0848 23.6216C27.0848 19.3388 23.6129 15.8668 19.33 15.8668C15.0471 15.8668 11.5752 19.3388 11.5752 23.6216C11.5752 27.9045 15.0471 31.3764 19.33 31.3764Z" fill="#0069F6"/>
<path d="M19.33 31.6301C23.6129 31.6301 27.0848 28.1581 27.0848 23.8753C27.0848 19.5924 23.6129 16.1205 19.33 16.1205C15.0471 16.1205 11.5752 19.5924 11.5752 23.8753C11.5752 28.1581 15.0471 31.6301 19.33 31.6301Z" fill="#0069F6"/>
<path d="M19.33 31.8889C23.6129 31.8889 27.0848 28.4169 27.0848 24.1341C27.0848 19.8512 23.6129 16.3793 19.33 16.3793C15.0471 16.3793 11.5752 19.8512 11.5752 24.1341C11.5752 28.4169 15.0471 31.8889 19.33 31.8889Z" fill="#006AF6"/>
<path d="M19.33 32.1425C23.6129 32.1425 27.0848 28.6706 27.0848 24.3877C27.0848 20.1049 23.6129 16.6329 19.33 16.6329C15.0471 16.6329 11.5752 20.1049 11.5752 24.3877C11.5752 28.6706 15.0471 32.1425 19.33 32.1425Z" fill="#006AF7"/>
<path d="M19.33 32.3962C23.6129 32.3962 27.0848 28.9243 27.0848 24.6414C27.0848 20.3585 23.6129 16.8866 19.33 16.8866C15.0471 16.8866 11.5752 20.3585 11.5752 24.6414C11.5752 28.9243 15.0471 32.3962 19.33 32.3962Z" fill="#006AF7"/>
<path d="M19.33 32.6499C23.6129 32.6499 27.0848 29.1779 27.0848 24.8951C27.0848 20.6122 23.6129 17.1403 19.33 17.1403C15.0471 17.1403 11.5752 20.6122 11.5752 24.8951C11.5752 29.1779 15.0471 32.6499 19.33 32.6499Z" fill="#006BF7"/>
<path d="M19.33 32.9035C23.6129 32.9035 27.0848 29.4316 27.0848 25.1487C27.0848 20.8659 23.6129 17.3939 19.33 17.3939C15.0471 17.3939 11.5752 20.8659 11.5752 25.1487C11.5752 29.4316 15.0471 32.9035 19.33 32.9035Z" fill="#006BF7"/>
<path d="M19.33 33.1572C23.6129 33.1572 27.0848 29.6852 27.0848 25.4024C27.0848 21.1195 23.6129 17.6476 19.33 17.6476C15.0471 17.6476 11.5752 21.1195 11.5752 25.4024C11.5752 29.6852 15.0471 33.1572 19.33 33.1572Z" fill="#006BF8"/>
<path d="M19.33 33.4108C23.6129 33.4108 27.0848 29.9389 27.0848 25.656C27.0848 21.3732 23.6129 17.9012 19.33 17.9012C15.0471 17.9012 11.5752 21.3732 11.5752 25.656C11.5752 29.9389 15.0471 33.4108 19.33 33.4108Z" fill="#006CF8"/>
<path d="M19.33 33.6697C23.6129 33.6697 27.0848 30.1978 27.0848 25.9149C27.0848 21.632 23.6129 18.1601 19.33 18.1601C15.0471 18.1601 11.5752 21.632 11.5752 25.9149C11.5752 30.1978 15.0471 33.6697 19.33 33.6697Z" fill="#006CF8"/>
<path d="M19.33 33.9234C23.6129 33.9234 27.0848 30.4514 27.0848 26.1686C27.0848 21.8857 23.6129 18.4138 19.33 18.4138C15.0471 18.4138 11.5752 21.8857 11.5752 26.1686C11.5752 30.4514 15.0471 33.9234 19.33 33.9234Z" fill="#006CF8"/>
<path d="M19.33 34.177C23.6129 34.177 27.0848 30.7051 27.0848 26.4222C27.0848 22.1394 23.6129 18.6674 19.33 18.6674C15.0471 18.6674 11.5752 22.1394 11.5752 26.4222C11.5752 30.7051 15.0471 34.177 19.33 34.177Z" fill="#006CF9"/>
<path d="M19.33 34.4307C23.6129 34.4307 27.0848 30.9587 27.0848 26.6759C27.0848 22.393 23.6129 18.9211 19.33 18.9211C15.0471 18.9211 11.5752 22.393 11.5752 26.6759C11.5752 30.9587 15.0471 34.4307 19.33 34.4307Z" fill="#006DF9"/>
<path d="M19.33 34.6843C23.6129 34.6843 27.0848 31.2124 27.0848 26.9295C27.0848 22.6467 23.6129 19.1747 19.33 19.1747C15.0471 19.1747 11.5752 22.6467 11.5752 26.9295C11.5752 31.2124 15.0471 34.6843 19.33 34.6843Z" fill="#006DF9"/>
<path d="M19.33 34.938C23.6129 34.938 27.0848 31.4661 27.0848 27.1832C27.0848 22.9003 23.6129 19.4284 19.33 19.4284C15.0471 19.4284 11.5752 22.9003 11.5752 27.1832C11.5752 31.4661 15.0471 34.938 19.33 34.938Z" fill="#006DF9"/>
<path d="M19.33 35.1917C23.6129 35.1917 27.0848 31.7197 27.0848 27.4369C27.0848 23.154 23.6129 19.6821 19.33 19.6821C15.0471 19.6821 11.5752 23.154 11.5752 27.4369C11.5752 31.7197 15.0471 35.1917 19.33 35.1917Z" fill="#006EFA"/>
<path d="M19.33 35.4505C23.6129 35.4505 27.0848 31.9786 27.0848 27.6957C27.0848 23.4129 23.6129 19.9409 19.33 19.9409C15.0471 19.9409 11.5752 23.4129 11.5752 27.6957C11.5752 31.9786 15.0471 35.4505 19.33 35.4505Z" fill="#006EFA"/>
</g>
<defs>
<clipPath id="clip0_16_3561">
<rect width="41" height="41" fill="white"/>
</clipPath>
</defs>
</svg>
